<?xml version="1.0" encoding="UTF-8"?>
<svg width="80px" height="91px" viewBox="0 0 80 91" version="1.1" xmlns="http://www.w3.org/2000/svg" xmlns:xlink="http://www.w3.org/1999/xlink">
    <!-- Generator: Sketch 46.1 (44463) - http://www.bohemiancoding.com/sketch -->
    <title>Shape</title>
    <desc>Created with Sketch.</desc>
    <defs></defs>
    <g id="Page-1" stroke="none" stroke-width="1" fill="none" fill-rule="evenodd">
        <g id="file-5.39.11-PM" transform="translate(30.000000, 33.000000)" fill-rule="nonzero" fill="#C5C5C5">
            <path d="M44.2857144,-33 L-24.2857144,-33 C-27.4414284,-33 -30,-30.4560877 -30,-27.3124999 L-30,52.3125003 C-30,55.4562656 -27.4414284,58 -24.2857144,58 L27.1428572,58 L50,35.2500003 L50,-27.3124999 C50,-30.4560877 47.4442856,-33 44.2857144,-33 Z M27.1428572,49.9575198 L27.1428572,35.2500003 L41.9196428,35.2500003 L27.1428572,49.9575198 Z M44.2857144,29.5625002 L27.1428572,29.5625002 C23.9842856,29.5625002 21.4285716,32.1062345 21.4285716,35.2500003 L21.4285716,52.3125003 L-24.2857144,52.3125003 L-24.2857144,-27.3124999 L44.2857144,-27.3124999 L44.2857144,29.5625002 Z M-18.5714284,-13.0937498 C-18.5714284,-14.6656326 -17.2935716,-15.9375 -15.7142856,-15.9375 L35.7142856,-15.9375 C37.2935716,-15.9375 38.5714284,-14.6656326 38.5714284,-13.0937498 C38.5714284,-11.5218669 37.2935716,-10.2499999 35.7142856,-10.2499999 L-15.7142856,-10.2499999 C-17.2935716,-10.2499999 -18.5714284,-11.5218669 -18.5714284,-13.0937498 Z M-18.5714284,3.96875021 C-18.5714284,2.39686733 -17.2935716,1.12500035 -15.7142856,1.12500035 L35.7142856,1.12500035 C37.2935716,1.12500035 38.5714284,2.39686733 38.5714284,3.96875021 C38.5714284,5.5406331 37.2935716,6.81250007 35.7142856,6.81250007 L-15.7142856,6.81250007 C-17.2935716,6.81250007 -18.5714284,5.5406331 -18.5714284,3.96875021 Z M-18.5714284,21.0312502 C-18.5714284,19.4593673 -17.2935716,18.1875003 -15.7142856,18.1875003 L35.7142856,18.1875003 C37.2935716,18.1875003 38.5714284,19.4593673 38.5714284,21.0312502 C38.5714284,22.6031331 37.2935716,23.875 35.7142856,23.875 L-15.7142856,23.875 C-17.2935716,23.875 -18.5714284,22.6031331 -18.5714284,21.0312502 Z" id="Shape"></path>
        </g>
    </g>
</svg>