<?xml version="1.0" encoding="UTF-8"?>
<svg width="59px" height="59px" viewBox="0 0 59 59" version="1.1" xmlns="http://www.w3.org/2000/svg" xmlns:xlink="http://www.w3.org/1999/xlink">
    <!-- Generator: Sketch 46.1 (44463) - http://www.bohemiancoding.com/sketch -->
    <title>Shape Copy</title>
    <desc>Created with Sketch.</desc>
    <defs></defs>
    <g id="Page-1" stroke="none" stroke-width="1" fill="none" fill-rule="evenodd">
        <path d="M2.08575429,31.5996375 C0.923664365,31.5996375 0,30.6464508 0,29.4849892 C0,28.3235275 0.923664365,27.4003625 2.08575429,27.4003625 L27.3832692,27.4003625 L27.3832692,2.11464826 C27.3851465,0.953186617 28.3388488,0 29.5009387,0 C30.6630286,0 31.586693,0.953186617 31.586693,2.11464826 L31.586693,27.4003625 L56.8842078,27.4003625 C58.0462978,27.4003625 59,28.3235275 59,29.4849892 C59,30.6464508 58.0462978,31.5996375 56.8842078,31.5996375 L31.586693,31.5996375 L31.586693,56.8853517 C31.586693,58.0468134 30.6630286,59 29.5009387,59 C28.3388488,59 27.3851465,58.0468134 27.3851465,56.8853517 L27.3851465,31.5996375 L2.08575429,31.5996375 Z" id="Shape-Copy" fill="#3F4F63" fill-rule="nonzero"></path>
    </g>
</svg>