<?xml version="1.0" encoding="UTF-8"?>
<svg width="100px" height="114px" viewBox="0 0 100 114" version="1.1" xmlns="http://www.w3.org/2000/svg" xmlns:xlink="http://www.w3.org/1999/xlink">
    <!-- Generator: Sketch 46.1 (44463) - http://www.bohemiancoding.com/sketch -->
    <title>attach</title>
    <desc>Created with Sketch.</desc>
    <defs></defs>
    <g id="Page-1" stroke="none" stroke-width="1" fill="none" fill-rule="evenodd">
        <g id="attach" fill="#667884" fill-rule="nonzero">
            <path d="M69.3726429,33.3182164 L64.8485714,28.5901198 L27.2362143,67.8957737 C22.5821429,72.7592446 22.5821429,80.6728773 27.2362143,85.5367942 C29.488,87.8904888 32.4855,89.1863453 35.6767143,89.1863453 C38.8678571,89.1863453 41.8654286,87.8902658 44.1174286,85.5367942 L94.6310714,32.7464359 C101.789643,25.2647555 101.789643,13.0921618 94.6310714,5.61092681 C87.4723571,-1.87030894 75.8242857,-1.87030894 68.6655,5.61092681 L7.24778571,69.7954733 C-2.41592857,79.8944725 -2.41592857,96.3266947 7.24778571,106.425917 C12.0797143,111.475305 18.4267143,114 24.7737143,114 C31.1206429,114 37.4676429,111.475528 42.2992143,106.425917 L90.8141429,55.7254066 L86.2900714,50.9973108 L37.7751429,101.697821 C30.6059286,109.189521 18.9407857,109.189521 11.772,101.697821 C4.60307143,94.2056756 4.60307143,82.0152694 11.772,74.5233468 L73.1893571,10.3392457 C77.8534286,5.46530963 85.4427857,5.46530963 90.1067857,10.3392457 C94.7708571,15.213404 94.7706429,23.144404 90.1067857,28.0187853 L39.5927143,80.809143 C38.5491429,81.8997111 37.1582857,82.5004363 35.6765,82.5004363 C34.1946429,82.5004363 32.8036429,81.8997111 31.7605,80.809143 C29.6011429,78.5523035 29.6011429,74.8802637 31.7605,72.6236473 L69.3726429,33.3182164 Z"></path>
        </g>
    </g>
</svg>