<?xml version="1.0" encoding="UTF-8"?>
<svg width="100px" height="110px" viewBox="0 0 100 110" version="1.1" xmlns="http://www.w3.org/2000/svg" xmlns:xlink="http://www.w3.org/1999/xlink">
    <!-- Generator: Sketch 46.1 (44463) - http://www.bohemiancoding.com/sketch -->
    <title>baotridinhky</title>
    <desc>Created with Sketch.</desc>
    <defs></defs>
    <g id="Page-1" stroke="none" stroke-width="1" fill="none" fill-rule="evenodd">
        <g id="baotridinhky" fill-rule="nonzero" fill="#9DA7BF">
            <path d="M79.1704035,14.458974 C92.0627805,23.8393421 99.775785,39.0008963 99.775785,54.9722665 C99.775785,82.5734935 77.399103,105.023391 49.8878924,105.023391 L49.8878924,109.364905 C49.8878924,109.837297 49.3721973,110.107236 48.9910314,109.837297 L37.264574,101.761633 C36.9282511,101.536684 36.9282511,101.041796 37.264574,100.816847 L48.9910314,92.7411825 C49.3721973,92.471244 49.8878924,92.7411825 49.8878924,93.213575 L49.8878924,97.5550885 C73.295964,97.5550885 92.3318385,78.456929 92.3318385,54.9722665 C92.3318385,41.3853544 85.7847535,28.4732889 74.7982065,20.4876039 L79.1704035,14.458974 Z M79.3049325,49.8434321 C80.381166,50.023391 81.1659195,50.9681765 81.1659195,52.047931 L81.1659195,54.9497715 L81.1659195,57.851612 C81.1659195,58.9313665 80.381166,59.876152 79.3049325,60.056111 L73.4753365,61.045886 C72.914798,63.22789 72.0403585,65.3424095 70.8744395,67.3444545 L74.3049325,72.1358655 C74.9327355,73.035661 74.820628,74.27288 74.058296,75.037706 L71.9955155,77.1072355 L69.9327355,79.1767655 C69.147982,79.9640865 67.9372195,80.054066 67.0403585,79.424209 L62.2421525,76.004986 C60.3139015,77.1522255 58.251121,78.007031 56.121076,78.5694035 L55.134529,84.440569 C54.955157,85.5203235 54.013453,86.3076445 52.9372195,86.3076445 L50.044843,86.3076445 L47.1524663,86.3076445 C46.0762332,86.3076445 45.1345291,85.5203235 44.9551569,84.440569 L43.9910314,78.659383 C41.838565,78.097011 39.7085202,77.2647 37.7130045,76.094966 L32.8699551,79.5591785 C31.9730941,80.1890355 30.7399103,80.076561 29.9775785,79.3117345 L27.9147982,77.242205 L25.8520179,75.1726755 C25.0672645,74.3853545 24.9775785,73.1706305 25.6053811,72.29333 L28.9686098,67.501919 C27.780269,65.5223685 26.9058296,63.407849 26.3228699,61.225845 L20.470852,60.23607 C19.3946188,60.056111 18.6098654,59.1113255 18.6098654,58.031571 L18.6098654,55.1297305 L18.6098654,52.22789 C18.6098654,51.1481355 19.3946188,50.20335 20.470852,50.023391 L26.2556054,49.1011008 C26.8161435,46.9415916 27.6457399,44.8045773 28.8116592,42.8025323 L25.3587444,37.9436366 C24.7309417,37.0438411 24.8430493,35.8066223 25.6053811,35.0417961 L27.6681614,32.9722664 L29.7309417,30.9027368 C30.515695,30.1154157 31.7264574,30.0254362 32.6233184,30.655293 L37.3991031,34.052021 C39.4170403,32.8148022 41.5695067,31.9150067 43.8116592,31.3526345 L44.7982063,25.5039638 C44.9775785,24.4242092 45.9192825,23.6368881 46.9955157,23.6368881 L49.8878924,23.6368881 L52.780269,23.6368881 C53.856502,23.6368881 54.7982065,24.4242092 54.9775785,25.5039638 L55.9641255,31.3526345 C58.1390135,31.9150067 60.246637,32.7923073 62.2421525,33.9620415 L67.0403585,30.5203237 C67.914798,29.8904668 69.1255605,30.0029413 69.910314,30.7002828 L71.973094,32.7698124 L74.0358745,34.8393421 C74.820628,35.6266632 74.910314,36.8413871 74.282511,37.7411826 L70.8744395,42.5550885 C72.0403585,44.5346386 72.914798,46.649158 73.4753365,48.853657 L79.3049325,49.8434321 Z M63.8569035,68.6156625 C71.438617,60.977047 71.438617,48.6204625 63.824913,40.9818468 C56.211209,33.375326 43.8949235,33.375326 36.2812197,41.0139418 C28.6675158,48.6525576 28.6995061,61.041237 36.31321,68.6477575 C43.9269139,76.2542785 56.2431995,76.2542785 63.8569035,68.6156625 Z M62.511211,8.16040545 C62.8475335,8.40784925 62.8475335,8.90273675 62.511211,9.12768565 L50.7847535,17.2033503 C50.4035875,17.4732889 49.8878924,17.2033503 49.8878924,16.7309576 L49.8878924,12.3894443 C26.4798206,12.3894443 7.4439462,31.4876039 7.4439462,54.9722665 C7.4439462,68.5591785 14.0134529,81.448749 24.9775785,89.456929 L20.6053811,95.485559 C7.7130045,86.1051905 0,70.9436365 0,54.9722665 C0,27.3710394 22.3766816,4.92114166 49.8878924,4.92114166 L49.8878924,0.579628365 C49.8878924,0.107235729 50.4035875,-0.162702921 50.7847535,0.107235729 L62.511211,8.16040545 Z" id="Combined-Shape"></path>
        </g>
    </g>
</svg>