<?xml version="1.0" encoding="UTF-8"?>
<svg width="80px" height="80px" viewBox="0 0 80 80" version="1.1" xmlns="http://www.w3.org/2000/svg" xmlns:xlink="http://www.w3.org/1999/xlink">
    <!-- Generator: Sketch 46.1 (44463) - http://www.bohemiancoding.com/sketch -->
    <title>capnhatdulieu</title>
    <desc>Created with Sketch.</desc>
    <defs></defs>
    <g id="Page-1" stroke="none" stroke-width="1" fill="none" fill-rule="evenodd">
        <g id="capnhatdulieu" fill-rule="nonzero" fill="#9DA7BF">
            <path d="M80,25.78125 C80,24.8457812 79.8185936,23.93625 79.4609376,23.0779688 C79.4606248,23.0773438 79.4603124,23.0765625 79.46,23.0759375 L71.6467188,4.32656252 C70.5514064,1.69828125 68.00375,0 65.1564064,0 L14.8435938,0 C11.99625,0 9.44859376,1.69828125 8.35328124,4.32656252 L0.5390625,23.0778125 C0.18140625,23.93625 0,24.8457812 0,25.78125 L0,35.46875 C0,37.2682812 0.6803125,38.91125 1.79609375,40.15625 C0.6803125,41.40125 0,43.0442188 0,44.84375 L0,54.21875 C0,56.0182812 0.6803125,57.66125 1.79609375,58.90625 C0.6803125,60.15125 0,61.7942188 0,63.59375 L0,72.96875 C0,76.8457812 3.15421875,80 7.03125,80 L72.96875,80 C76.8457812,80 80,76.8457812 80,72.96875 L80,63.59375 C80,61.7942188 79.3196876,60.15125 78.2039064,58.90625 C79.3198436,57.66125 80,56.0182812 80,54.21875 L80,44.84375 C80,43.0442188 79.3196876,41.40125 78.2039064,40.15625 C79.3198436,38.91125 80,37.2682812 80,35.46875 L80,25.78125 Z M12.6801562,6.12968748 C13.0453125,5.25359376 13.8945312,4.6875 14.8435938,4.6875 L65.1564064,4.6875 C66.1054688,4.6875 66.9546876,5.25359376 67.3198436,6.12968752 L72.5792188,18.75 L7.42078124,18.75 L12.6801562,6.12968748 Z M75.3125,72.96875 C75.3125,74.2610936 74.2610936,75.3125 72.96875,75.3125 L7.03125,75.3125 C5.73890624,75.3125 4.6875,74.2610936 4.6875,72.96875 L4.6875,63.59375 C4.6875,62.3014064 5.73890624,61.25 7.03125,61.25 L72.96875,61.25 C74.2610936,61.25 75.3125,62.3014064 75.3125,63.59375 L75.3125,72.96875 Z M75.3125,54.21875 C75.3125,55.5110936 74.2610936,56.5625 72.96875,56.5625 L7.03125,56.5625 C5.73890624,56.5625 4.6875,55.5110936 4.6875,54.21875 L4.6875,44.84375 C4.6875,43.5514064 5.73890624,42.5 7.03125,42.5 L72.96875,42.5 C74.2610936,42.5 75.3125,43.5514064 75.3125,44.84375 L75.3125,54.21875 Z M75.3125,35.46875 C75.3125,36.7610938 74.2610936,37.8125 72.96875,37.8125 L7.03125,37.8125 C5.73890624,37.8125 4.6875,36.7610938 4.6875,35.46875 L4.6875,25.78125 C4.6875,24.4778125 5.74,23.4375 7.03125,23.4375 L72.96875,23.4375 C74.2640624,23.4375 75.3125,24.481875 75.3125,25.78125 L75.3125,35.46875 Z M69.615894,64 C70.9325564,64 72,64.8954668 72,66 C72,67.1045332 70.9325564,68 69.615894,68 L26.384106,68 C25.0674437,68 24,67.1045332 24,66 C24,64.8954668 25.0674437,64 26.384106,64 L69.615894,64 Z M69.615894,28 L26.384106,28 C25.0674437,28 24,28.8954667 24,30 C24,31.1045333 25.0674437,32 26.384106,32 L69.615894,32 C70.9325564,32 72,31.1045333 72,30 C72,28.8954667 70.9325564,28 69.615894,28 Z M10,28 C8.89546668,28 8,28.8395 8,29.875 C8,30.9105 8.89546668,32 10,32 C11.1045333,32 12,30.9105 12,29.875 C12,28.8395 11.1045333,28 10,28 Z M69.615894,48 C70.9325564,48 72,48.8954668 72,50 C72,51.1045332 70.9325564,52 69.615894,52 L26.384106,52 C25.0674437,52 24,51.1045332 24,50 C24,48.8954668 25.0674437,48 26.384106,48 L69.615894,48 Z M10,52 C8.89543052,52 8,51.1045696 8,50 C8,48.8954304 8.89543052,48 10,48 C11.1045695,48 12,48.8954304 12,50 C12,51.1045696 11.1045695,52 10,52 Z M10,68 C8.89543052,68 8,67.1045696 8,66 C8,64.8954304 8.89543052,64 10,64 C11.1045695,64 12,64.8954304 12,66 C12,67.1045696 11.1045695,68 10,68 Z" id="Combined-Shape"></path>
        </g>
    </g>
</svg>