<?xml version="1.0" encoding="UTF-8"?>
<svg width="80px" height="80px" viewBox="0 0 80 80" version="1.1" xmlns="http://www.w3.org/2000/svg" xmlns:xlink="http://www.w3.org/1999/xlink">
    <!-- Generator: Sketch 46.1 (44463) - http://www.bohemiancoding.com/sketch -->
    <title>clock</title>
    <desc>Created with Sketch.</desc>
    <defs></defs>
    <g id="Page-1" stroke="none" stroke-width="1" fill="none" fill-rule="evenodd">
        <g id="clock" fill-rule="nonzero" fill="#667884">
            <path d="M39.8450909,0 C17.8745454,0 0,17.8745454 0,39.8450909 C0,61.816 17.8741818,79.6909092 39.8447273,79.6909092 C61.8156364,79.6909092 79.689818,61.816 79.689818,39.8450909 C79.690182,17.8745454 61.816,0 39.8450909,0 Z M39.8450909,74.2363636 C20.8821818,74.2363636 5.45490908,58.8083636 5.45490908,39.8450909 C5.45454544,20.8821818 20.8821818,5.45454544 39.8450909,5.45454544 C58.808,5.45454544 74.2356364,20.8821818 74.2356364,39.8450909 C74.2356364,58.8087272 58.808,74.2363636 39.8450909,74.2363636 Z M60.404,39.3130909 L41.4763636,39.3130909 L41.4763636,18.636 C41.4763636,17.1298182 40.2556364,15.9087273 38.7490909,15.9087273 C37.2429091,15.9087273 36.0218182,17.1298182 36.0218182,18.636 L36.0218182,42.0403636 C36.0218182,43.5465456 37.2429091,44.7676364 38.7490909,44.7676364 L60.404,44.7676364 C61.9105456,44.7676364 63.1312728,43.5465456 63.1312728,42.0403636 C63.1312728,40.534182 61.910182,39.3130909 60.404,39.3130909 Z" id="Combined-Shape"></path>
        </g>
    </g>
</svg>