<?xml version="1.0" encoding="UTF-8"?>
<svg width="80px" height="120px" viewBox="0 0 80 120" version="1.1" xmlns="http://www.w3.org/2000/svg" xmlns:xlink="http://www.w3.org/1999/xlink">
    <!-- Generator: Sketch 46.1 (44463) - http://www.bohemiancoding.com/sketch -->
    <title>danhmucthietbi</title>
    <desc>Created with Sketch.</desc>
    <defs></defs>
    <g id="Page-1" stroke="none" stroke-width="1" fill="none" fill-rule="evenodd">
        <g id="danhmucthietbi" fill-rule="nonzero" fill="#9DA7BF">
            <path d="M76.6908876,11.5942969 L57.3718342,11.5942969 L50.0539644,11.5942969 L50.0539644,10.1449219 C50.0539644,4.55109373 45.457988,0 39.8089941,0 C34.16,0 29.5640237,4.55109373 29.5640237,10.1449219 L29.5640237,11.5942969 L22.2461539,11.5942969 L2.92710059,11.5942969 C1.31076923,11.5942969 0,12.8920312 0,14.4928125 L0,117.101484 C0,118.702266 1.31076923,120 2.92710059,120 L76.6908876,120 C78.3072191,120 79.617988,118.702266 79.617988,117.101484 L79.617988,14.4928125 C79.617988,12.8917969 78.3072191,11.5942969 76.6908876,11.5942969 Z M35.4182248,10.1449219 C35.4182248,7.7475 37.387929,5.79703124 39.8089941,5.79703124 C42.2300592,5.79703124 44.1997633,7.7475 44.1997633,10.1449219 L44.1997633,11.5942969 L35.4184616,11.5942969 L35.4184616,10.1449219 L35.4182248,10.1449219 Z M25.1732544,17.3913281 L54.4447338,17.3913281 L54.4447338,24.6377344 L25.1732544,24.6377344 L25.1732544,17.3913281 Z M73.7637871,114.202969 L5.8542012,114.202969 L5.8542012,17.3913281 L19.3190532,17.3913281 L19.3190532,27.53625 C19.3190532,29.1370312 20.6298225,30.4347656 22.2461539,30.4347656 L57.3718342,30.4347656 C58.9881658,30.4347656 60.2989351,29.1370312 60.2989351,27.53625 L60.2989351,17.3913281 L73.7637871,17.3913281 L73.7637871,114.202969 Z M32.6899408,44.6894533 L21.5143195,55.7559373 L16.7053254,50.9939062 C15.5618935,49.8621093 13.7091124,49.8621093 12.5654438,50.9939062 C11.4224852,52.1257031 11.4224852,53.9610938 12.5654438,55.0933596 L19.4442604,61.905 C20.015858,62.4710156 20.7649704,62.7539062 21.5140828,62.7539062 C22.2631952,62.7539062 23.012071,62.4710156 23.5839053,61.905 L36.8291124,48.7891404 C37.972071,47.6573436 37.972071,45.8219533 36.8291124,44.6896876 C35.6861539,43.5574219 33.8331361,43.5574219 32.6899408,44.6894533 Z M40.1017752,56.2319533 C40.1017752,57.8327342 41.4125444,59.1304689 43.0288757,59.1304689 L64.3969231,59.1304689 C66.0132542,59.1304689 67.3240236,57.8327342 67.3240236,56.2319533 C67.3240236,54.631172 66.0132542,53.3334373 64.3969231,53.3334373 L43.0288757,53.3334373 C41.4125444,53.3334373 40.1017752,54.6309373 40.1017752,56.2319533 Z M32.6899408,63.6025782 L21.5143195,74.668828 L16.7053254,69.9067969 C15.5618935,68.775 13.7091124,68.775 12.5654438,69.9067969 C11.4224852,71.0385938 11.4224852,72.8739844 12.5654438,74.0062502 L19.4442604,80.8178907 C20.015858,81.3839062 20.7649704,81.6667969 21.5140828,81.6667969 C22.2631952,81.6667969 23.012071,81.3839062 23.5839053,80.8178907 L36.8291124,67.7020311 C37.972071,66.5702342 37.972071,64.7348436 36.8291124,63.6025782 C35.6861539,62.4705467 33.8331361,62.4705467 32.6899408,63.6025782 Z M64.3969231,72.1739062 L43.0288757,72.1739062 C41.4125444,72.1739062 40.1017752,73.4716404 40.1017752,75.0724218 C40.1017752,76.6732031 41.4125444,77.9709373 43.0288757,77.9709373 L64.3969231,77.9709373 C66.0132542,77.9709373 67.3240236,76.6732031 67.3240236,75.0724218 C67.3240236,73.4716404 66.0132542,72.1739062 64.3969231,72.1739062 Z M32.6899408,82.5157031 L21.5143195,93.5821876 L16.7053254,88.8201564 C15.5618935,87.6883596 13.7091124,87.6883596 12.5654438,88.8201564 C11.4224852,89.9519533 11.4224852,91.7873436 12.5654438,92.9196093 L19.4442604,99.7312498 C20.015858,100.297266 20.7649704,100.580156 21.5140828,100.580156 C22.2631952,100.580156 23.012071,100.297266 23.5839053,99.7312498 L36.8291124,86.6153907 C37.972071,85.4835938 37.972071,83.6482031 36.8291124,82.5159373 C35.6861539,81.3834373 33.8331361,81.3834373 32.6899408,82.5157031 Z M64.3969231,91.3042969 L43.0288757,91.3042969 C41.4125444,91.3042969 40.1017752,92.6020311 40.1017752,94.2028124 C40.1017752,95.8035938 41.4125444,97.101328 43.0288757,97.101328 L64.3969231,97.101328 C66.0132542,97.101328 67.3240236,95.8035938 67.3240236,94.2028124 C67.3240236,92.6020311 66.0132542,91.3042969 64.3969231,91.3042969 Z" id="Combined-Shape"></path>
        </g>
    </g>
</svg>