<?xml version="1.0" encoding="UTF-8"?>
<svg width="80px" height="100px" viewBox="0 0 80 100" version="1.1" xmlns="http://www.w3.org/2000/svg" xmlns:xlink="http://www.w3.org/1999/xlink">
    <!-- Generator: Sketch 46.1 (44463) - http://www.bohemiancoding.com/sketch -->
    <title>delete</title>
    <desc>Created with Sketch.</desc>
    <defs></defs>
    <g id="Page-1" stroke="none" stroke-width="1" fill="none" fill-rule="evenodd">
        <g id="delete" fill="#667884" fill-rule="nonzero">
            <path d="M68.69865,11.9808305 L53.29945,11.9808305 C52.53125,5.2476115 46.86385,0 39.9999,0 C33.13615,0 27.46955,5.2474045 26.7014,11.9808305 L11.30135,11.9808305 C5.06945,11.9808305 0,17.1065585 0,23.405725 L0,23.991925 C0,28.80569 2.96525,32.92588 7.14245,34.60468 L7.14245,88.575105 C7.14245,94.87448 12.2125,100 18.444,100 L61.5562,100 C67.78795,100 72.85755,94.874065 72.85755,88.575105 L72.85755,34.604885 C77.03455,32.92588 80,28.80569 80,23.99213 L80,23.40593 C80,17.1065585 74.93015,11.9808305 68.69865,11.9808305 Z M39.9999,5.4182065 C43.90375,5.4182065 47.1622,8.246602 47.88325,11.9808305 L32.118,11.9808305 C32.8388,8.246395 36.0975,5.4182065 39.9999,5.4182065 Z M67.49735,88.575105 C67.49735,91.887095 64.8315,94.582 61.556,94.582 L18.4438,94.582 C15.1683,94.582 12.50245,91.88689 12.50245,88.575105 L12.50245,35.41682 L67.49735,35.41682 L67.49735,88.575105 Z M74.6398,23.991925 C74.6398,27.303915 71.97395,29.99882 68.6984,29.99882 L11.30135,29.99882 C8.02585,29.99882 5.36,27.303915 5.36,23.991925 L5.36,23.405725 C5.36,20.093735 8.02585,17.3988295 11.30135,17.3988295 L68.69865,17.3988295 C71.97415,17.3988295 74.64,20.093735 74.64,23.405725 L74.64,23.991925 L74.6398,23.991925 Z M25.63095,87.6529 C24.1508,87.6529 22.95075,86.440075 22.95095,84.944105 L22.95095,54.44138 C22.95095,52.945615 24.151,51.73217 25.63095,51.73217 C27.1109,51.73217 28.31095,52.945615 28.31095,54.44138 L28.31095,84.944105 C28.31095,86.439665 27.1111,87.6529 25.63095,87.6529 Z M39.9999,87.6529 C38.51975,87.6529 37.3199,86.440075 37.3199,84.944105 L37.3199,54.44138 C37.3199,52.945615 38.51995,51.73217 39.9999,51.73217 C41.47965,51.73217 42.6801,52.945615 42.6801,54.44138 L42.6801,84.944105 C42.6801,86.439665 41.48005,87.6529 39.9999,87.6529 Z M54.36885,87.6529 C52.8889,87.6529 51.68845,86.440075 51.68865,84.944105 L51.68865,54.44138 C51.68865,52.945615 52.8885,51.73217 54.36885,51.73217 C55.8486,51.73217 57.04865,52.945615 57.04865,54.44138 L57.04865,84.944105 C57.04865,86.439665 55.8488,87.6529 54.36885,87.6529 Z"></path>
        </g>
    </g>
</svg>