<?xml version="1.0" encoding="UTF-8"?>
<svg width="80px" height="80px" viewBox="0 0 80 80" version="1.1" xmlns="http://www.w3.org/2000/svg" xmlns:xlink="http://www.w3.org/1999/xlink">
    <!-- Generator: Sketch 46.1 (44463) - http://www.bohemiancoding.com/sketch -->
    <title>excel</title>
    <desc>Created with Sketch.</desc>
    <defs></defs>
    <g id="Page-1" stroke="none" stroke-width="1" fill="none" fill-rule="evenodd">
        <g id="excel" fill-rule="nonzero">
            <path d="M68.9773016,80 L2.50555556,80 C1.20142857,80 0.144285714,78.9593748 0.144285714,77.6756248 L0.144285714,40.1431248 C0.144285714,38.859375 1.20142857,37.81875 2.50555556,37.81875 C3.80968254,37.81875 4.8668254,38.859375 4.8668254,40.1431248 L4.8668254,75.35125 L66.6161904,75.35125 L66.6161904,70.2210936 C66.6161904,68.9373436 67.673492,67.8967188 68.9774604,67.8967188 C70.2814284,67.8967188 71.33873,68.9373436 71.33873,70.2210936 L71.33873,77.6756248 C71.3385716,78.9593748 70.28127,80 68.9773016,80 Z" id="Shape" fill="#507C5C"></path>
            <g id="Group" transform="translate(2.380952, 2.187500)" fill="#CFF09E">
                <polygon id="Shape" points="0.124603175 25.4878125 0.124603175 24.739375 24.854127 0.136875 24.854127 25.4878125"></polygon>
                <rect id="Rectangle-path" x="28.1196825" y="32.0992188" width="46.9938096" height="25.5703125"></rect>
            </g>
            <g id="Group" fill="#507C5C">
                <path d="M77.4944444,31.9623438 L71.3385716,31.9623438 L71.3385716,2.324375 C71.3385716,1.040625 70.28127,0 68.9773016,0 L27.2350794,0 C27.2060318,0 27.1774603,0.00328125 27.1484127,0.00421875 C27.1219048,0.00515625 27.0957143,0.00625 27.0693651,0.008125 C26.9673016,0.0153125 26.865873,0.0265625 26.7663492,0.04640625 C26.7642857,0.046875 26.7620635,0.0475 26.7596825,0.04796875 C26.661746,0.06765625 26.5660318,0.095625 26.4715873,0.1275 C26.4469841,0.1359375 26.4225397,0.14453125 26.3980952,0.15359375 C26.3052381,0.18828125 26.214127,0.226875 26.1265079,0.27265625 C26.1234921,0.27421875 26.1198413,0.27546875 26.1168254,0.27734375 C26.0266667,0.325 25.9409524,0.38046875 25.8573016,0.439843752 C25.835873,0.455156252 25.8147619,0.470468752 25.7938095,0.4865625 C25.7109524,0.549375 25.6306349,0.615781252 25.5561905,0.6896875 L0.826984128,25.291875 C0.771428572,25.3470312 0.71936508,25.4045312 0.670158732,25.464375 C0.637301588,25.5040625 0.608571428,25.5457812 0.57873016,25.586875 C0.564126984,25.6073438 0.547777776,25.626875 0.533809524,25.6475 C0.499841268,25.698125 0.469523808,25.750625 0.439841268,25.8034375 C0.432539684,25.8164062 0.423968252,25.82875 0.417142856,25.8417188 C0.388095238,25.8959375 0.362857143,25.95125 0.338571428,26.0067188 C0.332698413,26.0201562 0.325555556,26.0329688 0.32015873,26.0467188 C0.297936508,26.1 0.27952381,26.154375 0.261587302,26.2089062 C0.255873016,26.2264062 0.248888889,26.243125 0.243650794,26.2604688 C0.228571428,26.310625 0.216666667,26.3614062 0.205238095,26.4121875 C0.2,26.4351562 0.193174603,26.4579688 0.188412698,26.48125 C0.179206349,26.528125 0.173333333,26.575625 0.167142857,26.6229688 C0.163333333,26.650625 0.158095238,26.6778125 0.155396825,26.7057812 C0.150952381,26.753125 0.15,26.800625 0.148253968,26.8482812 C0.147301587,26.874375 0.144444444,26.9001562 0.144444444,26.9260938 L0.144444444,27.6748438 C0.144444444,28.9585938 1.2015873,29.9992188 2.50571428,29.9992188 L27.2352381,29.9992188 C28.5393651,29.9992188 29.5965079,28.9585938 29.5965079,27.6748438 L29.5965079,4.64875 L66.6163492,4.64875 L66.6163492,31.9623438 L30.5009524,31.9623438 C29.1968254,31.9623438 28.1396825,33.0029688 28.1396825,34.2867188 L28.1396825,59.8560936 C28.1396825,61.1398436 29.1968254,62.1804688 30.5009524,62.1804688 L77.4944444,62.1804688 C78.7984128,62.1804688 79.8557144,61.1398436 79.8557144,59.8560936 L79.8557144,34.2867188 C79.8557144,33.0029688 78.7984128,31.9623438 77.4944444,31.9623438 Z M7.41126984,25.3509375 L24.8738095,7.978125 L24.8738095,25.3509375 L7.41126984,25.3509375 Z M75.1331748,57.5317188 L32.8622222,57.5317188 L32.8622222,36.6110938 L75.1333332,36.6110938 L75.1333332,57.5317188 L75.1331748,57.5317188 Z" id="Shape"></path>
                <path d="M39.9511111,49.0429688 L37.3998413,53.3089064 C37.2774603,53.4981248 37.0328572,53.5840624 36.7533333,53.5840624 C36.0019048,53.5840624 34.935873,52.9992188 34.935873,52.2596876 C34.935873,52.1048436 34.988254,51.9501564 35.0933333,51.7781248 L38.1165079,47.1854688 L35.2157143,42.61 C35.0933333,42.4207812 35.0409524,42.24875 35.0409524,42.0767188 C35.0409524,41.3543748 36.0369841,40.8035936 36.8060318,40.8035936 C37.1904762,40.8035936 37.4525397,40.94125 37.6273016,41.2507812 L39.9514286,45.2414064 L42.2753968,41.2507812 C42.4501588,40.94125 42.7125396,40.8035936 43.0968252,40.8035936 C43.8657144,40.8035936 44.8619048,41.3540624 44.8619048,42.0767188 C44.8619048,42.24875 44.8092064,42.4207812 44.6871428,42.61 L41.7863492,47.1854688 L44.809524,51.7781252 C44.9142856,51.9501564 44.9668252,52.105 44.9668252,52.2596876 C44.9668252,52.9993752 43.9009524,53.5840624 43.149524,53.5840624 C42.87,53.5840624 42.6077776,53.4981252 42.503016,53.3089064 L39.9511111,49.0429688 Z M47.2373016,53.4807812 C46.643016,53.4807812 46.0488888,53.2056248 46.0488888,52.6551564 L46.0488888,41.715 C46.0488888,41.1473436 46.7306348,40.9065624 47.411746,40.9065624 C48.093492,40.9065624 48.7746032,41.1473436 48.7746032,41.715 L48.7746032,51.1414064 L52.75873,51.1414064 C53.2831748,51.1414064 53.545238,51.7264064 53.545238,52.31125 C53.545238,52.8960936 53.2831748,53.4809376 52.75873,53.4809376 L47.2371428,53.4809376 L47.2371428,53.4807812 L47.2373016,53.4807812 Z M59.8879364,50.1093748 C59.8879364,48.0279688 54.3484128,48.3890624 54.3484128,44.3640624 C54.3484128,41.78375 56.6376192,40.8034376 58.821746,40.8034376 C59.7480952,40.8034376 62.2993652,40.9754688 62.2993652,42.3173436 C62.2993652,42.7817188 61.9849208,43.7278124 61.2157144,43.7278124 C60.5866668,43.7278124 60.2546032,43.0742188 58.8215872,43.0742188 C57.5809524,43.0742188 57.0742856,43.5729688 57.0742856,44.10625 C57.0742856,45.8265624 62.6138096,45.4996876 62.6138096,49.8343748 C62.6138096,52.3114064 60.7788888,53.6531248 58.2450792,53.6531248 C55.9560316,53.6531248 54.0338096,52.5523436 54.0338096,51.4168748 C54.0338096,50.8318748 54.558254,49.9718748 55.2220636,49.9718748 C56.043492,49.9718748 56.5674604,51.245 58.1926984,51.245 C58.9968252,51.2448436 59.8879364,50.9351564 59.8879364,50.1093748 Z M68.1703176,49.0429688 L65.6190476,53.3089064 C65.496508,53.4981248 65.2519048,53.5840624 64.9725396,53.5840624 C64.2209524,53.5840624 63.155238,52.9992188 63.155238,52.2596876 C63.155238,52.1048436 63.2076192,51.9501564 63.3125396,51.7781248 L66.3357144,47.1854688 L63.4349208,42.61 C63.3125396,42.4207812 63.2601588,42.24875 63.2601588,42.0767188 C63.2601588,41.3543748 64.2563492,40.8035936 65.025238,40.8035936 C65.4096824,40.8035936 65.671746,40.94125 65.8466668,41.2507812 L68.1707936,45.2414064 L70.4949208,41.2507812 C70.6693652,40.94125 70.931746,40.8035936 71.3161904,40.8035936 C72.085238,40.8035936 73.08127,41.3540624 73.08127,42.0767188 C73.08127,42.24875 73.0288888,42.4207812 72.906508,42.61 L70.0058732,47.1854688 L73.0290476,51.7781252 C73.1338096,51.9501564 73.1863492,52.105 73.1863492,52.2596876 C73.1863492,52.9993752 72.1201588,53.5840624 71.3690476,53.5840624 C71.0892064,53.5840624 70.8271428,53.4981252 70.7225396,53.3089064 L68.1703176,49.0429688 Z" id="Combined-Shape"></path>
            </g>
        </g>
    </g>
</svg>