<?xml version="1.0" encoding="UTF-8"?>
<svg width="15px" height="18px" viewBox="0 0 15 18" version="1.1" xmlns="http://www.w3.org/2000/svg" xmlns:xlink="http://www.w3.org/1999/xlink">
    <!-- Generator: Sketch 47.1 (45422) - http://www.bohemiancoding.com/sketch -->
    <title>File4</title>
    <desc>Created with Sketch.</desc>
    <defs></defs>
    <g id="Page-1" stroke="none" stroke-width="1" fill="none" fill-rule="evenodd">
        <g id="Cap-nhat-du-lieu-định-kỳ---Tìm-kiếm" transform="translate(-1366.000000, -278.000000)" fill-rule="nonzero" fill="#687A85">
            <g id="row5-copy-2" transform="translate(19.000000, 277.000000)">
                <g id="Group-4" transform="translate(1321.000000, 0.000000)">
                    <path d="M38.7992812,1 L30.8306844,1 C29.6170315,1 28.6296773,1.98366149 28.6296773,3.19248811 L28.6296773,3.61984236 L28.2007188,3.61984236 C26.9873542,3.61984236 26,4.60321664 26,5.81233047 L26,16.8075119 C26,18.0163385 26.9873542,19 28.2007188,19 L36.1696039,19 C37.3829685,19 38.3703227,18.0163385 38.3703227,16.8075119 L38.3703227,16.3801576 L38.7992812,16.3801576 C40.0126458,16.3801576 41,15.3967834 41,14.1876695 L41,3.19248811 C41,1.98366149 40.0126458,1 38.7992812,1 Z M36.0514454,18.214867 L28.3188772,18.214867 C27.4500368,18.214867 26.7428801,17.5106337 26.7428801,16.644764 L26.7428801,5.97536554 C26.7428801,5.10977453 27.4497571,4.4052626 28.3188772,4.4052626 L33.6452105,4.4052626 L33.6452105,6.86130044 C33.6452105,8.03427937 34.6032848,8.98877042 35.7806671,8.98877042 L37.6274426,8.98877042 L37.6274426,16.6444853 C37.6271629,17.510355 36.9202859,18.214867 36.0514454,18.214867 Z M34.4102743,5.08024224 L37.1014383,8.17781325 L35.7827753,8.17781325 C35.0261214,8.17781325 34.4102743,7.56451215 34.4102743,6.81044546 L34.4102743,5.08024224 Z M40.2449081,14.0126687 C40.2449081,14.8763174 39.5396173,15.5792485 38.6724473,15.5792485 L38.2571435,15.5792485 L38.2571435,8.63252078 C38.2571435,8.56578681 38.2328616,8.50099925 38.1890426,8.45067072 L34.2157462,3.8774477 C34.1629959,3.8162749 34.0856846,3.78123957 34.004745,3.78123957 L29.3847692,3.78123957 L29.3847692,3.36748898 C29.3847692,2.50356219 30.0903391,1.80090915 30.9575091,1.80090915 L38.6724473,1.80090915 C39.5393382,1.80090915 40.2449081,2.50356219 40.2449081,3.36748898 L40.2449081,14.0126687 Z" id="File4"></path>
                </g>
            </g>
        </g>
    </g>
</svg>