<?xml version="1.0" encoding="UTF-8"?>
<svg width="79px" height="97px" viewBox="0 0 79 97" version="1.1" xmlns="http://www.w3.org/2000/svg" xmlns:xlink="http://www.w3.org/1999/xlink">
    <!-- Generator: Sketch 46.1 (44463) - http://www.bohemiancoding.com/sketch -->
    <title>file</title>
    <desc>Created with Sketch.</desc>
    <defs></defs>
    <g id="Page-1" stroke="none" stroke-width="1" fill="none" fill-rule="evenodd">
        <g id="file" fill="#687A85" fill-rule="nonzero">
            <path d="M78.5964923,31.953684 C78.5964923,31.159737 78.2680615,30.4013027 77.6898462,29.8630133 L47.5003692,1.73985525 C47.0750769,0.717243625 46.0771692,0 44.9123077,0 C44.8505231,0 44.7929846,0.099421 44.7312,0.103684 C44.6666462,0.098 44.6020923,0.16901325 44.5361231,0.16901325 L13.4764923,0.16901325 C5.03858462,0.16901325 0,4.1657105 0,11.1450132 L0,82.4265199 C0,90.2310133 6.04633846,96.7487237 13.4779077,96.7487237 L64.9544,96.7487237 C72.3494769,96.7487237 78.5964923,90.0975066 78.5964923,82.4265199 L78.5964923,31.953684 Z M47.7193231,9.66649338 L69.3614154,29.9950989 L47.7193231,29.9950989 L47.7193231,9.66649338 Z M64.9529846,91.0675657 L13.4779077,91.0675657 C9.21403077,91.0675657 5.61403077,87.018316 5.61403077,82.4265199 L5.61403077,11.1450132 C5.61403077,9.6494475 5.61403077,5.85017125 13.4779077,5.85017125 L42.1052923,5.85017125 L42.1052923,32.6666646 C42.1052923,34.2346646 43.3628308,35.676263 44.9123077,35.676263 L72.9824615,35.676263 L72.9824615,82.4265199 C72.9824615,87.018316 69.3038769,91.0675657 64.9529846,91.0675657 Z"></path>
        </g>
    </g>
</svg>