<?xml version="1.0" encoding="UTF-8"?>
<svg width="80px" height="97px" viewBox="0 0 80 97" version="1.1" xmlns="http://www.w3.org/2000/svg" xmlns:xlink="http://www.w3.org/1999/xlink">
    <!-- Generator: Sketch 46.1 (44463) - http://www.bohemiancoding.com/sketch -->
    <title>historical-report</title>
    <desc>Created with Sketch.</desc>
    <defs></defs>
    <g id="Page-1" stroke="none" stroke-width="1" fill="none" fill-rule="evenodd">
        <g id="historical-report" fill-rule="nonzero" fill="#667884">
            <path d="M72,6.0625 L55.9998,6.0625 C55.9984,6.0625 55.9972,6.06268944 55.9958,6.06268944 C54.5348,4.22328907 52.2118,3.03125 49.6,3.03125 L45.522,3.03125 C44.3932,1.1825664 42.2962,0 40,0 C37.7038,0 35.6068,1.1825664 34.478,3.03125 L30.4,3.03125 C27.7882,3.03125 25.4652,4.22328907 24.0042,6.06268944 C24.0028,6.06268944 24.0014,6.0625 24,6.0625 L8,6.0625 C3.5888,6.0625 0,9.4620469 0,13.640625 L0,89.421875 C0,93.600453 3.5888,97 8,97 L72,97 C76.4112,97 80,93.600453 80,89.421875 L80,13.640625 C80,9.4620469 76.4112,6.0625 72,6.0625 Z M27.0770733,11.2914249 C27.0770733,9.16044663 29.0096117,7.4265811 31.3847654,7.4265811 L35.9563037,7.4265811 C36.5638678,7.4265811 37.1057395,7.08341513 37.309278,6.56987402 C37.7167139,5.54118141 38.7981241,4.8500185 40.0001497,4.8500185 C41.2021753,4.8500185 42.2835854,5.54118141 42.6910213,6.56987402 C42.8945598,7.08341513 43.4364315,7.4265811 44.0439956,7.4265811 L48.6155339,7.4265811 C50.9906876,7.4265811 52.923226,9.16044663 52.923226,11.2914249 L52.923226,15.1562688 L27.0770733,15.1562688 L27.0770733,11.2914249 Z M75.3230771,87.9011809 C75.3230771,90.3075974 73.2561011,92.2655726 70.7157189,92.2655726 L9.28428091,92.2655726 C6.74389897,92.2655726 4.67692307,90.3075974 4.67692307,87.9011809 L4.67692307,15.161319 C4.67692307,12.7549025 6.74389897,10.7969272 9.28428091,10.7969272 L23.260893,10.7969272 C23.1597231,11.2671905 23.1063545,11.7536383 23.1063545,12.2517245 L23.1063545,18.0709135 C23.1063545,18.8743252 23.7940027,19.5257107 24.6421405,19.5257107 L55.3578595,19.5257107 C56.2059973,19.5257107 56.8936455,18.8743252 56.8936455,18.0709135 L56.8936455,12.2517245 C56.8936455,11.7536383 56.8402769,11.2671905 56.739107,10.7969272 L70.7157189,10.7969272 C73.2561011,10.7969272 75.3230771,12.7549025 75.3230771,15.161319 L75.3230771,87.9011809 Z M14.8686,35.3032637 C14.2436,35.8951152 14.2436,36.8546953 14.8686,37.4465468 L19.6686,41.9934218 C19.981,42.2893477 20.3904,42.4373106 20.8,42.4373106 C21.2096,42.4373106 21.619,42.2893477 21.9314,41.9934218 L29.9314,34.4152968 C30.5564,33.8234453 30.5564,32.8638652 29.9314,32.2720137 C29.3066,31.6801621 28.2936,31.6801621 27.6688,32.2720137 L20.8,38.7784023 L17.1314,35.3032637 C16.5066,34.7114121 15.4934,34.7114121 14.8686,35.3032637 Z M29.9314,48.9438887 C29.3066,48.3520371 28.2936,48.3520371 27.6688,48.9438887 L20.8,55.4502773 L17.1314,51.9751387 C16.5066,51.3832871 15.4936,51.3832871 14.8688,51.9751387 C14.2438,52.5669902 14.2438,53.5265703 14.8688,54.1184218 L19.6688,58.665297 C19.9812,58.9612229 20.3906,59.1091856 20.8002,59.1091856 C21.2098,59.1091856 21.6192,58.9612229 21.9316,58.665297 L29.9316,51.0871718 C30.5562,50.4955098 30.5562,49.5357402 29.9314,48.9438887 Z M27.6686,65.6157635 L20.8,72.1221521 L17.1314,68.6470135 C16.5066,68.0551623 15.4936,68.0551623 14.8688,68.6470135 C14.2438,69.2388653 14.2438,70.1984452 14.8688,70.790297 L19.6688,75.337172 C19.9812,75.6330979 20.3906,75.7810606 20.8002,75.7810606 C21.2098,75.7810606 21.6192,75.6330979 21.9316,75.337172 L29.9316,67.759047 C30.5566,67.1671952 30.5566,66.2076153 29.9316,65.6157635 C29.3066,65.0239123 28.2934,65.0239123 27.6686,65.6157635 Z M36.8,39.7093751 L64,39.7093751 C64.8836,39.7093751 65.6,38.6235813 65.6,37.2843751 C65.6,35.9451688 64.8836,34.859375 64,34.859375 L36.8,34.859375 C35.9164,34.859375 35.2,35.9451688 35.2,37.2843751 C35.2,38.6235813 35.9164,39.7093751 36.8,39.7093751 Z M36.8,56.3812501 L64,56.3812501 C64.8836,56.3812501 65.6,55.2954563 65.6,53.9562501 C65.6,52.6170438 64.8836,51.53125 64,51.53125 L36.8,51.53125 C35.9164,51.53125 35.2,52.6170438 35.2,53.9562501 C35.2,55.2954563 35.9164,56.3812501 36.8,56.3812501 Z M36.8,73.053125 L64,73.053125 C64.8836,73.053125 65.6,71.9673315 65.6,70.628125 C65.6,69.288919 64.8836,68.203125 64,68.203125 L36.8,68.203125 C35.9164,68.203125 35.2,69.288919 35.2,70.628125 C35.2,71.9673315 35.9164,73.053125 36.8,73.053125 Z" id="Shape"></path>
        </g>
    </g>
</svg>