<?xml version="1.0" encoding="UTF-8"?>
<svg width="79px" height="74px" viewBox="0 0 79 74" version="1.1" xmlns="http://www.w3.org/2000/svg" xmlns:xlink="http://www.w3.org/1999/xlink">
    <!-- Generator: Sketch 46.1 (44463) - http://www.bohemiancoding.com/sketch -->
    <title>image</title>
    <desc>Created with Sketch.</desc>
    <defs></defs>
    <g id="Page-1" stroke="none" stroke-width="1" fill="none" fill-rule="evenodd">
        <g id="image" fill="#687A85" fill-rule="nonzero">
            <path d="M22.0983529,70.0687031 L41.4450353,44.9392781 L26.3648471,30.3609375 C25.7115294,29.7292969 24.9115294,29.409375 24.0909176,29.4878906 C23.2787765,29.5570312 22.5406118,29.9988281 22.0109176,30.73125 L4.23538824,55.3124625 L4.23538824,66.5571703 C4.23538824,68.4955172 5.86136471,70.0687031 7.86630588,70.0687031 L22.0983529,70.0687031 Z M25.1182588,70.0687031 L71.1915294,70.0687031 C73.1964235,70.0687031 74.8236235,68.4967172 74.8236235,66.5571703 L74.8235765,62.9078672 C74.4182588,63.0299953 73.9587765,62.9438813 73.6298824,62.6425781 L51.9442353,40.8328125 C51.2630118,40.2105469 50.4169882,39.9105469 49.5430118,39.9808594 C48.6751529,40.0535156 47.8896941,40.4953125 47.3272941,41.2242188 L25.1182588,70.0687031 Z M74.8235294,60.4642828 L74.8224,7.72905937 C74.8224,5.7907125 73.1976471,4.21872188 71.1915294,4.21872188 L7.86630588,4.21872188 C5.86136471,4.21872188 4.23538824,5.7907125 4.23538824,7.72905937 L4.23538824,51.2226094 L20.0242353,29.3882812 C20.9696941,28.078125 22.3393882,27.2835937 23.8787765,27.1535156 C25.4181647,27.0257813 26.9090824,27.571875 28.08,28.7039063 L42.9077647,43.0393359 L45.3806118,39.8273437 C46.3612235,38.5546875 47.7624471,37.7824219 49.3272941,37.6488281 C50.8896941,37.5128906 52.4145412,38.0425781 53.6072941,39.1300781 L74.8235294,60.4642828 Z M70.3854588,73.8292969 L8.40244706,73.8292969 C3.76244706,73.8292969 0,70.190625 0,65.7046875 L0,8.1234375 C0,3.6375 3.76244706,0 8.40244706,0 L70.3854588,0 C75.0254588,0 78.7890824,3.6375 78.7890824,8.1234375 L78.7878588,65.7046875 C78.7878588,70.190625 75.0254588,73.8292969 70.3854588,73.8292969 Z M50.0254588,29.4785156 C44.2484706,29.4785156 39.5503059,24.9351563 39.5503059,19.3511719 C39.5503059,13.7671875 44.2484706,9.225 50.0254588,9.225 C55.8012235,9.225 60.5006118,13.7671875 60.5006118,19.3511719 C60.5006118,24.9351563 55.8,29.4785156 50.0254588,29.4785156 Z M50.0254588,11.5699219 C45.5866824,11.5699219 41.9745412,15.0609375 41.9745412,19.3523438 C41.9745412,23.64375 45.5854588,27.1359375 50.0254588,27.1359375 C54.4654588,27.1359375 58.0763765,23.6449219 58.0763765,19.3523438 C58.0763765,15.0597656 54.4654588,11.5699219 50.0254588,11.5699219 Z"></path>
        </g>
    </g>
</svg>