<?xml version="1.0" encoding="UTF-8"?>
<svg width="100px" height="84px" viewBox="0 0 100 84" version="1.1" xmlns="http://www.w3.org/2000/svg" xmlns:xlink="http://www.w3.org/1999/xlink">
    <!-- Generator: Sketch 47.1 (45422) - http://www.bohemiancoding.com/sketch -->
    <title>machinery</title>
    <desc>Created with Sketch.</desc>
    <defs></defs>
    <g id="Page-1" stroke="none" stroke-width="1" fill="none" fill-rule="evenodd">
        <g id="machinery" fill-rule="nonzero" fill="#687A85">
            <path d="M90.4379221,59.0239157 L90.4379221,0.224421687 L9.34233766,0.224421687 L9.34233766,59.0241687 C3.95038961,60.5624819 0,65.4208193 0,71.1639398 C0,78.1394819 5.82597403,83.8145422 12.987013,83.8145422 L86.7932468,83.8145422 C93.9542857,83.8145422 99.7802597,78.1394819 99.7802597,71.1639398 C99.7802597,65.4205663 95.8298701,60.5624819 90.4379221,59.0239157 Z M14.5371429,5.28466265 L47.2927273,5.28466265 L47.2927273,11.7562048 L45.0423377,11.7562048 L44.8428571,19.7761807 L35.9846753,25.5547229 L41.712987,33.4428795 L45.954026,30.5203373 L43.3036364,26.8706386 L49.8901299,22.574241 L56.4766234,26.8706386 L53.825974,30.5203373 L58.067013,33.4428795 L63.7955844,25.5547229 L54.9371429,19.7761807 L54.7376623,11.7562048 L52.4875325,11.7562048 L52.4875325,5.28466265 L85.2428571,5.28466265 L85.2428571,58.5135904 L79.2285714,58.5135904 L79.2285714,48.9335422 L63.6441558,48.9335422 L63.6441558,58.5135904 L57.6823377,58.5135904 L57.6823377,48.9335422 L42.0979221,48.9335422 L42.0979221,58.5135904 L36.1358442,58.5135904 L36.1358442,48.9335422 L20.5514286,48.9335422 L20.5514286,58.5135904 L14.5371429,58.5135904 L14.5371429,5.28466265 Z M74.0337662,53.9935301 L74.0337662,58.5133373 L68.838961,58.5133373 L68.838961,53.9935301 L74.0337662,53.9935301 Z M52.4875325,53.9935301 L52.4875325,58.5133373 L47.2927273,58.5133373 L47.2927273,53.9935301 L52.4875325,53.9935301 Z M30.9412987,53.9935301 L30.9412987,58.5133373 L25.7464935,58.5133373 L25.7464935,53.9935301 L30.9412987,53.9935301 Z M86.7932468,78.7543012 L12.987013,78.7543012 C8.69038961,78.7543012 5.19480519,75.3492651 5.19480519,71.1639398 C5.19480519,66.9786145 8.69038961,63.5735783 12.987013,63.5735783 L86.7932468,63.5735783 C91.0898701,63.5735783 94.5854545,66.9786145 94.5854545,71.1639398 C94.5854545,75.3492651 91.0898701,78.7543012 86.7932468,78.7543012 Z" id="Shape"></path>
            <path d="M13.981039,68.6338193 L23.1584416,68.6338193 L23.1584416,73.6940602 L13.981039,73.6940602 L13.981039,68.6338193 Z M34.8612987,68.6338193 L44.0387013,68.6338193 L44.0387013,73.6940602 L34.8612987,73.6940602 L34.8612987,68.6338193 Z M55.7412987,68.6338193 L64.918961,68.6338193 L64.918961,73.6940602 L55.7412987,73.6940602 L55.7412987,68.6338193 Z M76.6218182,68.6338193 L85.7992208,68.6338193 L85.7992208,73.6940602 L76.6218182,73.6940602 L76.6218182,68.6338193 Z" id="Combined-Shape"></path>
        </g>
    </g>
</svg>