<?xml version="1.0" encoding="UTF-8"?>
<svg width="80px" height="101px" viewBox="0 0 80 101" version="1.1" xmlns="http://www.w3.org/2000/svg" xmlns:xlink="http://www.w3.org/1999/xlink">
    <!-- Generator: Sketch 46.1 (44463) - http://www.bohemiancoding.com/sketch -->
    <title>notepad</title>
    <desc>Created with Sketch.</desc>
    <defs></defs>
    <g id="Page-1" stroke="none" stroke-width="1" fill="none" fill-rule="evenodd">
        <g id="notepad" fill-rule="nonzero" fill="#96A5C3">
            <path d="M78.3584158,87.7737523 C77.5079207,87.7737523 76.8186139,87.0866761 76.8186139,86.2396176 L76.8186139,9.36834179 C76.8186139,7.81231054 75.5477227,6.54625977 73.9855445,6.54625977 L66.8712871,6.54625977 L66.8712871,11.2380254 L71.1065346,11.2380254 C71.9570297,11.2380254 72.6463367,11.924707 72.6463367,12.7719629 L72.6463367,82.6089258 C72.6463367,83.4561816 71.9570297,84.1428633 71.1065346,84.1428633 L8.79168318,84.1428633 C7.94118811,84.1428633 7.25188119,83.4561816 7.25188119,82.6089258 L7.25188119,12.7721601 C7.25188119,11.9249043 7.94118811,11.2382226 8.79168318,11.2382226 L13.0269307,11.2382226 L13.0269307,6.54645702 L5.91227723,6.54645702 C4.35029703,6.54645702 3.07940594,7.81250781 3.07940594,9.36853906 L3.07940594,95.1100429 C3.07940594,96.6660742 4.35029703,97.932125 5.91227723,97.932125 L73.9855445,97.932125 C75.5477227,97.932125 76.8186139,96.6660742 76.8186139,95.1100429 L76.8186139,85.4888066 C76.8186139,84.6415508 77.5079207,83.9548691 78.3584158,83.9548691 C79.2089109,83.9548691 79.8982178,84.6415508 79.8982178,85.4888066 L79.8982178,95.1100429 C79.8982178,98.3574296 77.2457426,100.999803 73.9855445,100.999803 L5.91227723,100.999803 C2.65247525,100.999803 0,98.357627 0,95.1098457 L0,9.36834179 C0,6.12095508 2.6520792,3.47858204 5.91227723,3.47858204 L13.0265347,3.47858204 L13.0265347,1.5339375 C13.0265347,0.686681639 13.7158416,0 14.5663366,0 L65.3314853,0 C66.1819801,0 66.8712871,0.686681639 66.8712871,1.5339375 L66.8712871,3.47877929 L73.9855445,3.47877929 C77.2457426,3.47877929 79.8982178,6.12075781 79.8982178,9.36853906 L79.8982178,86.2398148 C79.8982178,87.0870707 79.2089109,87.7737523 78.3584158,87.7737523 Z M69.5667326,14.3059004 L66.8708912,14.3059004 L66.8708912,17.8558926 C66.8708912,18.7031484 66.1815842,19.3898301 65.3310891,19.3898301 L26.2102971,19.3898301 C25.3598021,19.3898301 24.6704951,18.7031484 24.6704951,17.8558926 C24.6704951,17.0086367 25.3598021,16.3219551 26.2102971,16.3219551 L63.7914853,16.3219551 L63.7914853,3.06767773 L16.1061386,3.06767773 L16.1061386,16.3217578 L32.5459973,16.3217578 C33.3964921,16.3217578 34.0857991,17.0084395 34.0857991,17.8556953 C34.0857991,18.7029512 33.3964921,19.3896328 32.5459973,19.3896328 L14.5663366,19.3896328 C13.7158416,19.3896328 13.0265347,18.7029512 13.0265347,17.8556953 L13.0265347,14.3059004 L10.3312871,14.3059004 L10.3312871,81.0749883 L69.5667326,81.0749883 L69.5667326,14.3059004 Z M40.1265346,28.8980332 C40.9770297,28.8980332 41.6663367,29.5847148 41.6663367,30.4319707 C41.6663367,31.2792267 40.9770297,31.9659082 40.1265346,31.9659082 L18.3269307,31.9659082 C17.4764356,31.9659082 16.7871287,31.2792267 16.7871287,30.4319707 C16.7871287,29.5847148 17.4764356,28.8980332 18.3269307,28.8980332 L40.1265346,28.8980332 Z M40.1265346,69.1425878 C40.9770297,69.1425878 41.6663367,69.8292696 41.6663367,70.6765253 C41.6663367,71.5237812 40.9770297,72.2104628 40.1265346,72.2104628 L18.3269307,72.2104628 C17.4764356,72.2104628 16.7871287,71.5237812 16.7871287,70.6765253 C16.7871287,69.8292696 17.4764356,69.1425878 18.3269307,69.1425878 L40.1265346,69.1425878 Z M40.1265346,42.3128847 C40.9770297,42.3128847 41.6663367,42.9995665 41.6663367,43.8468222 C41.6663367,44.6940781 40.9770297,45.3807597 40.1265346,45.3807597 L18.3269307,45.3807597 C17.4764356,45.3807597 16.7871287,44.6940781 16.7871287,43.8468222 C16.7871287,42.9995665 17.4764356,42.3128847 18.3269307,42.3128847 L40.1265346,42.3128847 Z M40.1265346,55.7277364 C40.9770297,55.7277364 41.6663367,56.4144179 41.6663367,57.2616739 C41.6663367,58.1089296 40.9770297,58.7956114 40.1265346,58.7956114 L18.3269307,58.7956114 C17.4764356,58.7956114 16.7871287,58.1089296 16.7871287,57.2616739 C16.7871287,56.4144179 17.4764356,55.7277364 18.3269307,55.7277364 L40.1265346,55.7277364 Z M64.5328713,26.1769511 C65.1342574,26.7758497 65.1342574,27.7469883 64.5326734,28.3460841 L58.1679207,34.6869903 C57.8671287,34.9864395 57.4728713,35.1363614 57.0790098,35.1363614 C56.6851486,35.1363614 56.2908912,34.9864395 55.990099,34.6869903 L51.970693,30.6821034 C51.369307,30.0832051 51.369307,29.1120665 51.970693,28.5129707 C52.5716832,27.9140722 53.5467326,27.9140722 54.1481189,28.5129707 L57.0794059,31.4332909 L62.3554455,26.1769511 C62.9568318,25.5780528 63.9318811,25.5780528 64.5328713,26.1769511 Z M64.5334654,53.0064571 C65.1346535,53.6053554 65.1346535,54.5762969 64.5332674,55.1753926 L58.1681189,61.5162989 C57.8675248,61.815748 57.4732674,61.9656699 57.0794059,61.9656699 C56.6855445,61.9656699 56.2912871,61.815748 55.990693,61.5162989 L51.9704951,57.5116094 C51.3691088,56.9127108 51.3691088,55.9415722 51.9702971,55.3424764 C52.5716832,54.7435781 53.5467326,54.7435781 54.1477227,55.3424764 L57.079208,58.2625997 L62.3556437,53.0066543 C62.9568318,52.4075585 63.9316832,52.4077559 64.5334654,53.0064571 Z" id="Note"></path>
        </g>
    </g>
</svg>