<?xml version="1.0" encoding="UTF-8"?>
<svg width="80px" height="80px" viewBox="0 0 80 80" version="1.1" xmlns="http://www.w3.org/2000/svg" xmlns:xlink="http://www.w3.org/1999/xlink">
    <!-- Generator: Sketch 46.1 (44463) - http://www.bohemiancoding.com/sketch -->
    <title>search</title>
    <desc>Created with Sketch.</desc>
    <defs></defs>
    <g id="Page-1" stroke="none" stroke-width="1" fill="none" fill-rule="evenodd">
        <g id="search" fill-rule="nonzero">
            <g transform="translate(40.000000, 40.000000) scale(-1, 1) translate(-40.000000, -40.000000) " id="path-1-link">
                <g fill="#C6CEDB">
                    <path d="M31.1302849,62.2605693 C38.7230369,62.2605693 45.6255391,59.5685938 51.0094911,55.0129422 L75.1682484,79.1716996 C75.7204484,79.7239 76.4106987,80 77.1699742,80 C77.9292493,80 78.6194996,79.7239 79.1716996,79.1716996 C80.2761,78.0672996 80.2761,76.2726489 79.1716996,75.1682484 L55.0129422,51.0094911 C59.4995684,45.6255391 62.2605693,38.654012 62.2605693,31.1302849 C62.2605693,13.9430542 48.3175151,0 31.1302849,0 C14.0120796,0 0,14.0120796 0,31.1302849 C0,48.3175151 14.0120796,62.2605693 31.1302849,62.2605693 L31.1302849,62.2605693 Z M31.1302849,5.66005156 C45.2113893,5.66005156 56.6005178,17.1182053 56.6005178,31.1302849 C56.6005178,45.2113893 45.2113893,56.6005178 31.1302849,56.6005178 C17.0491804,56.6005178 5.66005156,45.142364 5.66005156,31.1302849 C5.66005156,17.1182053 17.1182053,5.66005156 31.1302849,5.66005156 L31.1302849,5.66005156 Z" id="path-1"></path>
                </g>
                <g fill="#3F4F63">
                    <path d="M31.1302849,62.2605693 C38.7230369,62.2605693 45.6255391,59.5685938 51.0094911,55.0129422 L75.1682484,79.1716996 C75.7204484,79.7239 76.4106987,80 77.1699742,80 C77.9292493,80 78.6194996,79.7239 79.1716996,79.1716996 C80.2761,78.0672996 80.2761,76.2726489 79.1716996,75.1682484 L55.0129422,51.0094911 C59.4995684,45.6255391 62.2605693,38.654012 62.2605693,31.1302849 C62.2605693,13.9430542 48.3175151,0 31.1302849,0 C14.0120796,0 0,14.0120796 0,31.1302849 C0,48.3175151 14.0120796,62.2605693 31.1302849,62.2605693 L31.1302849,62.2605693 Z M31.1302849,5.66005156 C45.2113893,5.66005156 56.6005178,17.1182053 56.6005178,31.1302849 C56.6005178,45.2113893 45.2113893,56.6005178 31.1302849,56.6005178 C17.0491804,56.6005178 5.66005156,45.142364 5.66005156,31.1302849 C5.66005156,17.1182053 17.1182053,5.66005156 31.1302849,5.66005156 L31.1302849,5.66005156 Z" id="path-1"></path>
                </g>
            </g>
        </g>
    </g>
</svg>