<?xml version="1.0" encoding="UTF-8"?>
<svg width="80px" height="80px" viewBox="0 0 80 80" version="1.1" xmlns="http://www.w3.org/2000/svg" xmlns:xlink="http://www.w3.org/1999/xlink">
    <!-- Generator: Sketch 46.1 (44463) - http://www.bohemiancoding.com/sketch -->
    <title>timkiem</title>
    <desc>Created with Sketch.</desc>
    <defs></defs>
    <g id="Page-1" stroke="none" stroke-width="1" fill="none" fill-rule="evenodd">
        <g id="timkiem" fill-rule="nonzero" fill="#9DA7BF">
            <path d="M49.9113512,63.04 C50.9810812,63.3736988 52.0772972,63.6273972 53.1897296,63.7945204 C51.5567568,68.4120548 47.2351352,71.7484932 42.1302704,71.7484932 L11.7967568,71.7484932 C5.2913512,71.7484932 0,66.3835616 0,59.7906848 L0,22.2082192 C0,15.6136988 5.2913512,10.2498632 11.7967568,10.2498632 L20.8762164,10.2498632 C21.702162,4.4728768 26.5751352,0 32.5010812,0 L48.868108,0 C55.371892,0 60.6643244,5.3638356 60.6643244,11.958356 L60.6643244,20.1041096 C59.5583784,19.8739728 58.4324324,19.7271232 57.294054,19.6772604 L57.294054,11.958356 C57.294054,7.2504108 53.5156756,3.4169864 48.868108,3.4169864 L32.5010812,3.4169864 C28.4329728,3.4169864 25.028108,6.3550684 24.2464864,10.2504108 L42.1335136,10.2504108 C47.8243244,10.2504108 52.5837836,14.3578084 53.6864864,19.7961644 C52.574054,19.9331508 51.477838,20.180274 50.3854056,20.4904108 C49.602162,16.601644 46.1989188,13.6668492 42.1372972,13.6668492 L11.8032432,13.6668492 C7.1589188,13.6668492 3.3772972,17.500822 3.3772972,22.2087672 L3.3772972,59.7912328 C3.3772972,64.4958904 7.1594596,68.3331508 11.8032432,68.3331508 L42.1372972,68.3331508 C45.6394596,68.3287672 48.6475676,66.1364384 49.9113512,63.04 Z M66.5135136,59.7106848 C56.7875676,65.4027396 44.3097296,62.0126028 38.6962164,52.1567124 C33.0805404,42.3041096 36.4264864,29.6536988 46.145946,23.9643836 C55.8686488,18.2756164 68.3497296,21.660274 73.9654056,31.518356 C79.5805404,41.3726028 76.2297296,54.01863 66.5135136,59.7106848 Z M64.8286488,56.7545204 C72.942162,52.0098632 75.7264864,41.4531508 71.0427028,33.2268492 C66.362162,24.998904 55.948108,22.1693152 47.831892,26.918904 C39.7167568,31.6684932 36.9302704,42.220274 41.614054,50.4476712 C46.297838,58.6750684 56.7113512,61.5024656 64.8286488,56.7545204 Z M71.6286488,58.4427396 L62.8664864,63.5682192 L69.6075676,75.399452 L78.3697296,70.2739728 L71.6286488,58.4427396 Z M79.277838,71.8821916 L70.5189188,77.0071232 C71.9145944,79.4624656 75.0086488,80.3041096 77.4243244,78.8827396 C79.8437836,77.4679452 80.68,74.3347944 79.277838,71.8821916 Z M32.5410812,22.6279452 L10.108108,22.6279452 L10.108108,25.1906848 L32.5405404,25.1906848 L32.5405404,22.6279452 L32.5410812,22.6279452 Z M27.3816216,34.019726 L10.108108,34.019726 L10.108108,36.581918 L27.3816216,36.581918 L27.3816216,34.019726 Z M10.108108,47.9698632 L27.3816216,47.9698632 L27.3816216,45.4071232 L10.108108,45.4071232 L10.108108,47.9698632 Z M10.108108,59.3567124 L32.5405404,59.3567124 L32.5405404,56.7945204 L10.108108,56.7945204 L10.108108,59.3567124 Z M53.0448648,45.3906848 L47.8113512,39.5128768 L45.3097296,41.8071232 L52.7124324,50.1079452 L67.1745944,37.898082 L65.0156756,35.2739728 L53.0448648,45.3906848 Z" id="TIMKIEM"></path>
        </g>
    </g>
</svg>