<?xml version="1.0" encoding="UTF-8"?>
<svg width="100px" height="84px" viewBox="0 0 100 84" version="1.1" xmlns="http://www.w3.org/2000/svg" xmlns:xlink="http://www.w3.org/1999/xlink">
    <!-- Generator: Sketch 47.1 (45422) - http://www.bohemiancoding.com/sketch -->
    <title>users</title>
    <desc>Created with Sketch.</desc>
    <defs></defs>
    <g id="Page-1" stroke="none" stroke-width="1" fill="none" fill-rule="evenodd">
        <g id="users" fill-rule="nonzero" fill="#667884">
            <path d="M69.0297313,44.6676592 C69.2553969,44.7651659 69.49132,44.8465762 69.8947826,44.9880383 C70.0847023,45.0595432 70.2702703,45.1313576 70.4720016,45.1948144 C71.9801688,45.6684183 73.5663553,45.9070775 75.1823819,45.9070775 C75.723855,45.9070775 76.2532055,45.8792185 76.8105311,45.8235004 C76.9783815,45.8036895 77.1440561,45.7798545 77.3100415,45.7498286 L77.6457423,45.7021587 C77.8735838,45.6702756 78.1051552,45.6405592 78.3727834,45.5848411 C78.5365929,45.5489339 78.6944967,45.5071453 78.8542654,45.4634995 L79.0681193,45.4077814 C79.3258008,45.350206 79.5794414,45.288297 79.8790855,45.1988385 L80.5542172,44.9561552 C80.8059929,44.8707207 81.0577685,44.7809527 81.2672707,44.6914941 C81.3909827,44.6438242 81.5090997,44.584082 81.6987085,44.4905994 C82.0222868,44.343256 82.3558118,44.192198 82.6237508,44.0470214 C82.7235286,43.9993514 82.8155355,43.9436333 82.9112724,43.8857484 C83.2050106,43.7185941 83.5024789,43.5455584 83.7881355,43.3604505 L84.1138896,43.1434594 C86.5850209,41.4483907 88.5146791,39.0871812 89.695538,36.3118003 C90.4766641,34.4755791 90.8981552,32.5598048 90.9481995,30.6081233 L90.9581462,30.1924044 C90.9581462,28.3561832 90.628662,26.5397729 89.9833704,24.8010583 C87.7239171,18.624087 81.7729978,14.4740166 75.1764761,14.4740166 C68.2144134,14.4740166 62.1637163,18.9361084 60.121847,25.5767782 C59.7401427,26.8161966 59.5166529,28.0017541 59.4386336,29.2195043 L59.424646,29.4522822 C59.4087935,29.6968227 59.3926301,29.9416729 59.3926301,30.1942616 L59.4007118,30.3991804 C59.482772,36.6362035 63.262515,42.2405165 69.0297313,44.6676592 Z M64.7901377,29.7690529 L64.8041388,29.5372165 C64.8535542,28.7553157 65.0018007,27.9717745 65.257663,27.1442172 C66.6056075,22.763932 70.5912403,19.8225084 75.1805656,19.8225084 C79.5296767,19.8225084 83.451893,22.5599816 84.9464367,26.6398091 C85.3434077,27.7082247 85.5586395,28.8132748 85.5869162,29.9289871 L85.5869162,30.2048396 C85.5869162,31.5753532 85.3082678,32.9283698 84.7542654,34.2250676 C83.9938161,36.0119572 82.7694103,37.5372106 81.2007434,38.6474552 L80.9097412,38.8459377 C80.7032943,38.9812667 80.4916313,39.1023793 80.3151083,39.2043545 L80.1350163,39.3098838 C79.9250005,39.4222478 79.7026309,39.5206689 79.487399,39.6174497 L79.212045,39.7508649 C79.0709363,39.8107377 78.9226899,39.8596749 78.6193338,39.9652042 L78.2734254,40.0953387 C78.1216101,40.1409952 77.9700693,40.174349 77.6840086,40.2410566 L77.2763309,40.3498666 C77.151145,40.3744719 77.0223902,40.3903286 76.8969298,40.4061853 L76.2424493,40.5062468 C74.8379516,40.648684 73.3999612,40.5062468 72.0855094,40.093425 C71.9814624,40.0600712 71.8842786,40.0212495 71.7854477,39.9827013 L71.5100937,39.8826398 C71.3829861,39.8386237 71.256153,39.7984351 71.1290454,39.7437567 C67.3215828,38.139493 64.828572,34.4446013 64.7703715,30.192537 C64.7689989,30.0484594 64.779431,29.9095763 64.7901377,29.7690529 Z M75.1786519,46.0302765 C68.3605054,46.0302765 61.96385,48.8053478 57.2913914,53.6676813 C51.2385186,48.7261042 43.5052764,45.7519955 35.0850908,45.7519955 C15.7397075,45.7516859 0,61.4261182 0,80.6934399 C0,81.0039135 0.0180283792,81.3122204 0.0379217631,81.6146459 L0.131793668,84 L70.0184946,84 L70.1282191,81.6743881 C70.1481125,81.3499849 70.1683167,81.0258912 70.1683167,80.6937494 C70.1683167,78.2805362 69.9205819,75.9230412 69.4512224,73.6454088 L99.852043,73.6454088 L99.9679841,71.4810698 C99.9838366,71.2362197 100,70.9935364 100,70.7471386 C99.9978242,57.1172512 88.8646784,46.0302765 75.1786519,46.0302765 Z M6.84655144,78.6354683 C7.17497992,63.4045215 19.7162602,51.1143603 35.084906,51.1143603 C42.4953031,51.1143603 49.2304875,53.99187 54.2741098,58.6565742 C54.6643834,59.0162629 55.0399722,59.3886068 55.4065244,59.7662941 C55.555348,59.9218123 55.7005004,60.0807053 55.8456528,60.2379109 C56.959994,61.443529 57.9619409,62.7374522 58.8438688,64.1075878 C58.9890212,64.3334127 59.1341736,64.5612061 59.2739604,64.7943429 C59.5244472,65.2083084 59.7675916,65.6239611 59.9943569,66.0486132 C60.1087279,66.2584082 60.2084143,66.4732652 60.3157254,66.6867161 C60.7314148,67.5163344 61.1089805,68.3639511 61.4410801,69.2298475 C61.5156331,69.4233314 61.5952693,69.6148466 61.6661511,69.8100178 C61.8403904,70.2999144 62.0002275,70.7951543 62.1470743,71.2937689 C62.8420549,73.6344172 63.2650867,76.0869937 63.3195894,78.6354683 L6.84655144,78.6354683 Z M69.5855791,68.4219945 C69.5785207,68.4027995 69.5698334,68.3854971 69.562775,68.3663022 C69.2226145,67.3568113 68.8265296,66.3751666 68.386737,65.415961 C68.3118094,65.2526689 68.2298233,65.0945136 68.1529954,64.9347361 C67.7533813,64.1025955 67.3190182,63.2945162 66.8480058,62.5056317 C66.7380576,62.3215227 66.6264806,62.1371432 66.5113744,61.9549266 C66.0194582,61.1695568 65.4925215,60.4085185 64.9324646,59.6737043 C64.8276745,59.536366 64.7283139,59.3957834 64.621895,59.2600672 C63.9432027,58.4017026 63.2313902,57.5746987 62.4688115,56.7928434 C65.8886063,53.2569218 70.5732122,51.2555128 75.5474839,51.2555128 C85.2568561,51.2555128 93.2165596,58.8745466 93.7101046,68.4238869 L69.5855791,68.4238869 L69.5855791,68.4219945 L69.5855791,68.4219945 Z M26.5809801,42.0634567 C26.8088215,42.1569393 27.0425687,42.2423738 27.278181,42.3259509 L27.9514477,42.5726583 C28.1513141,42.6481873 28.3508696,42.7237163 28.576846,42.7955308 C30.6843013,43.449909 32.8878044,43.7823604 35.1310943,43.7863844 L35.1351351,43.7863844 C35.8901512,43.7863844 36.6333556,43.7464531 37.3504499,43.6709241 C37.5922789,43.6489464 37.8297562,43.6111819 38.0697201,43.5715602 L38.6329515,43.487983 C38.9406773,43.4461944 39.2502681,43.4003818 39.5300188,43.3428064 C39.7637661,43.2951365 39.9916075,43.2353943 40.2213139,43.1737948 L40.642805,43.0682399 C40.9785058,42.9886869 41.3138958,42.9091338 41.6617192,42.8017217 C41.821488,42.7518849 41.9772159,42.6924523 42.1310787,42.6345673 L42.7023919,42.4296485 C43.0259702,42.3182123 43.3455077,42.2049188 43.6591393,42.0736717 C43.8008797,42.0139295 43.9367142,41.948306 44.2065182,41.8152016 C44.665931,41.6084255 45.1275197,41.3994826 45.5850675,41.1567993 C45.6870211,41.1029385 45.7849339,41.041339 45.8968342,40.9676673 C46.4103321,40.677314 46.9197893,40.3789126 47.411218,40.0545094 L47.5871501,39.9291437 C53.5461511,35.8409823 57.1039585,29.1207594 57.1120402,21.8913349 C57.1120402,9.82155465 47.2495843,0 35.1276751,0 C23.5571857,0 13.9322071,9.00992755 13.2110719,20.5085972 L13.1952194,20.7571619 C13.1691093,21.1332591 13.1433101,21.5112136 13.1433101,21.8931922 C13.1448642,30.7077969 18.414746,38.6237922 26.5809801,42.0634567 Z M19.5117883,21.1709325 L19.5273474,20.9420644 C20.0359671,13.0359714 26.8320501,6.84144782 35.0008163,6.84144782 C43.5625825,6.84144782 50.5260593,13.5925371 50.5260593,21.9113729 C50.5209624,26.8973168 47.9708888,31.5508818 43.8160876,34.2887166 L43.5695572,34.4458034 C43.2522064,34.6447626 42.9230521,34.8301978 42.5713641,35.0242155 L42.3988733,35.1295469 C42.0799129,35.2915751 41.7507587,35.4387789 41.4057771,35.5875432 L41.0194836,35.7680369 C40.8177526,35.8515217 40.6090468,35.9201822 40.3987314,35.9904031 L39.5901977,36.2728471 C39.3849792,36.3347456 39.1765417,36.379739 38.9694455,36.4283734 L38.490066,36.5454083 C38.3677397,36.5789582 38.2451452,36.6122482 38.0986755,36.6405966 C37.9194783,36.6772675 37.7333063,36.7006745 37.5487438,36.725902 L36.9746688,36.8093868 C36.8488551,36.8294128 36.7230415,36.8512593 36.5763036,36.8645232 C36.05749,36.9180992 35.5349207,36.9446271 35.005645,36.9446271 C33.4178177,36.9412461 31.8557434,36.712378 30.3886329,36.2694661 C30.2663066,36.2309747 30.1455899,36.1859813 30.0264827,36.1425484 L29.383465,35.9136802 C29.2369954,35.8619248 29.0902575,35.8117299 28.9558596,35.758154 C23.1957943,33.3963911 19.4734272,27.9540113 19.4734272,21.891607 C19.4755733,21.6489548 19.4946197,21.4099437 19.5117883,21.1709325 Z" id="group"></path>
        </g>
    </g>
</svg>