<?xml version="1.0" encoding="UTF-8"?>
<svg width="100px" height="122px" viewBox="0 0 100 122" version="1.1" xmlns="http://www.w3.org/2000/svg" xmlns:xlink="http://www.w3.org/1999/xlink">
    <!-- Generator: Sketch 46.1 (44463) - http://www.bohemiancoding.com/sketch -->
    <title>baotriboitron</title>
    <desc>Created with Sketch.</desc>
    <defs></defs>
    <g id="Page-1" stroke="none" stroke-width="1" fill="none" fill-rule="evenodd">
        <g id="baotriboitron" fill-rule="nonzero" fill="#9DA7BF">
            <path d="M87.87956,40.5983593 C82.0483789,30.1728399 76.3160317,21.5013086 76.0754344,21.1367383 L73.1361378,16.6997031 L70.1944828,21.1367383 C69.9963439,21.4369726 66.1040939,27.3251406 61.4947694,35.1888984 C61.3980589,35.0173359 61.3037067,34.8457734 61.2069961,34.6742109 C52.1487457,18.4725157 42.9628843,4.57762109 42.8708913,4.43941797 L39.9320667,0 L36.9904115,4.43941797 C36.8984184,4.57762109 27.7127929,18.4725157 18.6543066,34.6742109 C6.2769935,56.8095861 0,72.6205 0,81.66375 C0,103.906351 17.9136444,122 39.9320667,122 C56.08369,122 70.0251211,112.263351 76.3068322,98.2943514 C89.6300228,96.7073986 100,85.2262931 100,71.3478398 C100,65.2428361 96.0346272,55.1845078 87.87956,40.5983593 Z M39.9320667,114.851086 C21.8153298,114.851086 7.07686139,99.9623204 7.07686139,81.66375 C7.07686139,67.2801408 28.604418,30.6494024 39.9320667,12.9393867 C44.7183007,20.4266601 51.332838,31.2975274 57.3715928,42.4378907 C49.9055302,56.0349338 46.2727477,65.5025625 46.2727477,71.3478398 C46.2727477,84.7066014 55.87588,95.842199 68.477515,98.0751329 C62.8159311,108.088426 52.1395464,114.851086 39.9320667,114.851086 Z M78.9038672,90.4687185 C77.0781589,91.0334454 75.1413511,91.3360625 73.1363739,91.3360625 C72.5466744,91.3360625 71.9616933,91.3098514 71.3861467,91.2574296 C61.2921489,90.3591092 53.3498449,81.7733592 53.3498449,71.3478398 C53.3498449,66.7916639 56.9118633,58.5180625 61.3560722,50.0109453 C62.6699217,47.494457 64.0618478,44.9567617 65.4629728,42.4903125 C68.1545956,37.7482774 70.8742878,33.2683516 73.1295333,29.6867461 C75.3470378,33.2135468 78.5408483,38.4369101 81.7183833,44.1156289 C91.4654022,61.5516213 92.9233744,68.6624102 92.9233744,71.3480783 C92.9231389,80.3436717 87.0091639,87.9691486 78.9038672,90.4687185 Z" id="Shape"></path>
        </g>
    </g>
</svg>