<?xml version="1.0" encoding="UTF-8"?>
<svg width="100px" height="80px" viewBox="0 0 100 80" version="1.1" xmlns="http://www.w3.org/2000/svg" xmlns:xlink="http://www.w3.org/1999/xlink">
    <!-- Generator: Sketch 46.1 (44463) - http://www.bohemiancoding.com/sketch -->
    <title>buildings (1)</title>
    <desc>Created with Sketch.</desc>
    <defs></defs>
    <g id="Page-1" stroke="none" stroke-width="1" fill="none" fill-rule="evenodd">
        <g id="buildings-(1)" fill="#FFFFFF">
            <path d="M98.2757813,76.5629126 L94.0873047,76.5629126 C94.1849609,76.1949515 94.2527344,75.816699 94.2527344,75.4201942 L94.2527344,19.4264078 C94.2527344,16.9124272 92.1837891,14.855534 89.6550781,14.855534 L81.534375,14.855534 C81.5769531,14.6225243 81.6078125,14.3860194 81.6078125,14.1413592 L81.6078125,12.5368932 C81.6078125,10.0229126 79.5400391,7.96601942 77.0101563,7.96601942 L63.2169922,7.96601942 C60.6894531,7.96601942 58.6193359,10.0229126 58.6193359,12.5368932 L58.6193359,14.1413592 C58.6193359,14.3858252 58.6503906,14.6225243 58.6927734,14.855534 L47.1261719,14.855534 C46.7273437,14.855534 46.3457031,14.9229126 45.9767578,15.0190291 L45.9767578,4.57087379 C45.9767578,2.0568932 43.9078125,0 41.3791016,0 L10.3449219,0 C7.81621094,0 5.74726563,2.0568932 5.74726563,4.57087379 L5.74726563,75.42 C5.74726563,75.8165049 5.81503906,76.1947573 5.91269531,76.5627184 L1.72421875,76.5627184 C0.771289063,76.5627184 0,77.3295146 0,78.2768932 C0,79.2242718 0.771289063,79.991068 1.72421875,79.991068 L98.2757813,79.991068 C99.2287109,79.991068 100,79.2242718 100,78.2768932 C100,77.3297087 99.2287109,76.5629126 98.2757813,76.5629126 Z M41.9914051,20.089529 L41.9914051,74.2781504 C41.9914051,74.8774108 41.4820073,75.3840291 40.8790466,75.3840291 L10.8451784,75.3840291 C10.2424068,75.3840291 9.73281996,74.8775987 9.73281996,74.2781504 L9.73281996,5.71291756 C9.73281996,5.1136572 10.2422178,4.60703883 10.8451784,4.60703883 L40.8792356,4.60703883 C41.4820073,4.60703883 41.9915941,5.11346928 41.9915941,5.71291756 L41.9915941,20.089529 L41.9914051,20.089529 Z M62.0677734,12.5368932 C62.0677734,11.9176699 62.5953125,11.3941748 63.2171875,11.3941748 L77.0103516,11.3941748 C77.6345703,11.3941748 78.1597656,11.9174757 78.1597656,12.5368932 L78.1597656,14.1413592 C78.1597656,14.4133981 78.0458984,14.656699 77.8804687,14.855534 L62.3482422,14.855534 C62.1828125,14.656699 62.0677734,14.4132039 62.0677734,14.1413592 L62.0677734,12.5368932 Z M89.8143744,74.1836344 C89.8143744,74.7755038 89.3112592,75.2758738 88.7157352,75.2758738 L48.0657101,75.2758738 C47.4703728,75.2758738 46.9670709,74.7756894 46.9670709,74.1836344 L46.9670709,20.6631617 C46.9670709,20.0712923 47.4701861,19.5709223 48.0657101,19.5709223 L88.7157352,19.5709223 C89.3110725,19.5709223 89.8143744,20.0711067 89.8143744,20.6631617 L89.8143744,74.1836344 Z" id="Shape" fill-rule="nonzero"></path>
            <rect id="Rectangle-path" x="75" y="45" width="10" height="7.5"></rect>
            <rect id="Rectangle-path-Copy-3" x="25" y="25" width="10" height="7.5"></rect>
            <rect id="Rectangle-path-Copy-4" x="25" y="55" width="10" height="7.5"></rect>
            <rect id="Rectangle-path-Copy" x="60" y="45" width="10" height="7.5"></rect>
            <rect id="Rectangle-path" x="75" y="30" width="10" height="7.5"></rect>
            <rect id="Rectangle-path-Copy-5" x="25" y="10" width="10" height="7.5"></rect>
            <rect id="Rectangle-path-Copy-6" x="25" y="40" width="10" height="7.5"></rect>
            <rect id="Rectangle-path-Copy-2" x="60" y="30" width="10" height="7.5"></rect>
        </g>
    </g>
</svg>