<?xml version="1.0" encoding="UTF-8"?>
<svg width="80px" height="80px" viewBox="0 0 80 80" version="1.1" xmlns="http://www.w3.org/2000/svg" xmlns:xlink="http://www.w3.org/1999/xlink">
    <!-- Generator: Sketch 46.1 (44463) - http://www.bohemiancoding.com/sketch -->
    <title>calendar</title>
    <desc>Created with Sketch.</desc>
    <defs></defs>
    <g id="Page-1" stroke="none" stroke-width="1" fill="none" fill-rule="evenodd">
        <g id="calendar" fill="#667884" fill-rule="nonzero">
            <path d="M73.335,7.5 L62.5,7.5 L62.5,2.5 C62.5,1.1175 61.38248,0 60,0 C58.61752,0 57.5,1.1175 57.5,2.5 L57.5,7.5 L42.5,7.5 L42.5,2.5 C42.5,1.1175 41.38,0 40,0 C38.62,0 37.5,1.1175 37.5,2.5 L37.5,7.5 L22.5,7.5 L22.5,2.5 C22.5,1.1175 21.38,0 20,0 C18.62,0 17.5,1.1175 17.5,2.5 L17.5,7.5 L6.66748,7.5 C2.985,7.5 0,10.4825 0,14.165 L0,73.3325 C0,77.015 2.985,80 6.66748,80 L73.335,80 C77.01748,80 80,77.015 80,73.3325 L80,14.165 C80,10.4825 77.01748,7.5 73.335,7.5 Z M75,73.3325 C75,74.2525 74.25248,75 73.335,75 L6.66748,75 C5.74752,75 5,74.2525 5,73.3325 L5,14.165 C5,13.2475 5.74752,12.5 6.66748,12.5 L17.5,12.5 L17.5,17.5 C17.5,18.8825 18.62,20 20,20 C21.38,20 22.5,18.8825 22.5,17.5 L22.5,12.5 L37.5,12.5 L37.5,17.5 C37.5,18.8825 38.62,20 40,20 C41.38,20 42.5,18.8825 42.5,17.5 L42.5,12.5 L57.5,12.5 L57.5,17.5 C57.5,18.8825 58.61752,20 60,20 C61.38248,20 62.5,18.8825 62.5,17.5 L62.5,12.5 L73.335,12.5 C74.25248,12.5 75,13.2475 75,14.165 L75,73.3325 Z M17.5,30 L17.5,37.5 L27.5,37.5 L27.5,30 L17.5,30 Z M17.5,42.5 L17.5,50 L27.5,50 L27.5,42.5 L17.5,42.5 Z M17.5,55 L17.5,62.5 L27.5,62.5 L27.5,55 L17.5,55 Z M35,55 L35,62.5 L45,62.5 L45,55 L35,55 Z M35,42.5 L35,50 L45,50 L45,42.5 L35,42.5 Z M35,30 L35,37.5 L45,37.5 L45,30 L35,30 Z M52.5,55 L52.5,62.5 L62.5,62.5 L62.5,55 L52.5,55 Z M52.5,42.5 L52.5,50 L62.5,50 L62.5,42.5 L52.5,42.5 Z M52.5,30 L52.5,37.5 L62.5,37.5 L62.5,30 L52.5,30 Z"></path>
        </g>
    </g>
</svg>