<?xml version="1.0" encoding="UTF-8"?>
<svg width="80px" height="80px" viewBox="0 0 80 80" version="1.1" xmlns="http://www.w3.org/2000/svg" xmlns:xlink="http://www.w3.org/1999/xlink">
    <!-- Generator: Sketch 46.1 (44463) - http://www.bohemiancoding.com/sketch -->
    <title>close</title>
    <desc>Created with Sketch.</desc>
    <defs></defs>
    <g id="Page-1" stroke="none" stroke-width="1" fill="none" fill-rule="evenodd">
        <g id="close" fill="#FFFFFF" fill-rule="nonzero">
            <path d="M36.174225,40.012273 L0.76284,75.671049 C-0.220945,76.66171 -0.220945,78.266657 0.76284,79.2573185 C1.25411,79.7532785 1.899135,80 2.54291,80 C3.187935,80 3.83171,79.7532785 4.32298,79.2573185 L40.000625,43.3304225 L75.67827,79.2573185 C76.17079,79.7532785 76.814565,80 77.45834,80 C78.102115,80 78.74714,79.7532785 79.23841,79.2573185 C80.222195,78.266657 80.222195,76.66171 79.23841,75.671049 L43.828275,40.012273 L79.26216,4.328322 C80.245945,3.3376605 80.245945,1.7327135 79.26216,0.742052 C78.27837,-0.2473505 76.68456,-0.2473505 75.70202,0.742052 L40.001875,36.694124 L4.29798,0.743311 C3.31419,-0.246092 1.72163,-0.246092 0.73784,0.743311 C-0.245945,1.733972 -0.245945,3.338919 0.73784,4.3295805 L36.174225,40.012273 Z"></path>
        </g>
    </g>
</svg>