<?xml version="1.0" encoding="UTF-8"?>
<svg width="100px" height="93px" viewBox="0 0 100 93" version="1.1" xmlns="http://www.w3.org/2000/svg" xmlns:xlink="http://www.w3.org/1999/xlink">
    <!-- Generator: Sketch 47.1 (45422) - http://www.bohemiancoding.com/sketch -->
    <title>Combined Shape</title>
    <desc>Created with Sketch.</desc>
    <defs></defs>
    <g id="Page-1" stroke="none" stroke-width="1" fill="none" fill-rule="evenodd">
        <path d="M97.1349745,43.8393268 C98.7266553,43.8393268 100,45.1792737 100,46.804783 L100,73.7794508 C100,84.3672276 91.6808149,93 81.4303905,93 L18.5696095,93 C8.34040747,93 0,84.389194 0,73.7794508 L0,46.3654562 C0,44.7179805 1.27334465,43.4 2.86502547,43.4 C4.45670628,43.4 5.73005093,44.7179805 5.73005093,46.3654562 L5.73005093,73.7794508 C5.73005093,81.0942427 11.4813243,87.0690877 18.5696095,87.0690877 L81.4303905,87.0690877 C88.4974533,87.0690877 94.2699491,81.116209 94.2699491,73.7794508 L94.2699491,46.804783 C94.2699491,45.1573074 95.5432937,43.8393268 97.1349745,43.8393268 Z M36.3124843,45.9301949 L50.1503085,58.7726537 L50.1503085,2.76071964 C50.1503085,1.22698651 51.4723936,0 53.125,0 C54.7776064,0 56.0996915,1.22698651 56.0996915,2.76071964 L56.0996915,58.7726537 L69.9375157,45.9301949 C70.5104193,45.3985007 71.2816356,45.1122039 72.0308172,45.1122039 C72.8020335,45.1122039 73.5512151,45.378051 74.1241186,45.9301949 C75.2919605,47.014033 75.2919605,48.7522639 74.1241186,49.8361019 L55.2183014,67.382009 C54.6674326,67.8932534 53.8962163,68.2 53.125,68.2 C52.3317489,68.2 51.5825674,67.9137031 51.0316986,67.382009 L32.1258814,49.8361019 C30.9580395,48.7522639 30.9580395,47.014033 32.1258814,45.9301949 C33.2716885,44.8668066 35.1666772,44.8668066 36.3124843,45.9301949 Z" id="Combined-Shape" fill="#667884" fill-rule="nonzero"></path>
    </g>
</svg>