<?xml version="1.0" encoding="UTF-8"?>
<svg width="100px" height="90px" viewBox="0 0 100 90" version="1.1" xmlns="http://www.w3.org/2000/svg" xmlns:xlink="http://www.w3.org/1999/xlink">
    <!-- Generator: Sketch 47.1 (45422) - http://www.bohemiancoding.com/sketch -->
    <title>film-strips-video-player</title>
    <desc>Created with Sketch.</desc>
    <defs></defs>
    <g id="Page-1" stroke="none" stroke-width="1" fill="none" fill-rule="evenodd">
        <g id="film-strips-video-player" fill-rule="nonzero" fill="#667884">
            <path d="M93,0 L6.75675676,0 C3.03127413,0 0,3.34990154 0,7.46698216 L0,82.293397 C0,86.4104776 3.03127413,89.7603791 6.75675676,89.7603791 L93,89.7603791 C96.7254826,89.7603791 99.7567568,86.4104776 99.7567568,82.293397 L99.7567568,7.46698216 C99.7567568,3.34990154 96.7254826,0 93,0 Z M30.4440154,74.1044643 L30.4440154,83.3601087 L16.8011583,83.3601087 L16.8011583,74.1044643 L30.4440154,74.1044643 Z M34.3050193,74.1044643 L47.9478764,74.1044643 L47.9478764,83.3601087 L34.3050193,83.3601087 L34.3050193,74.1044643 Z M51.8088803,74.1044643 L65.4517375,74.1044643 L65.4517375,83.3601087 L51.8088803,83.3601087 L51.8088803,74.1044643 Z M69.3127413,74.1044643 L82.9555985,74.1044643 L82.9555985,83.3601087 L69.3127413,83.3601087 L69.3127413,74.1044643 Z M5.79150579,67.7041939 L5.79150579,21.7613461 L93.965251,21.7613461 L93.965251,67.7041939 L5.79150579,67.7041939 Z M69.3127413,15.3610757 L69.3127413,6.40027042 L82.9555985,6.40027042 L82.9555985,15.3610757 L69.3127413,15.3610757 L69.3127413,15.3610757 Z M65.4517375,15.3610757 L51.8088803,15.3610757 L51.8088803,6.40027042 L65.4517375,6.40027042 L65.4517375,15.3610757 Z M47.9478764,15.3610757 L34.3050193,15.3610757 L34.3050193,6.40027042 L47.9478764,6.40027042 L47.9478764,15.3610757 Z M30.4440154,15.3610757 L16.8011583,15.3610757 L16.8011583,6.40027042 L30.4440154,6.40027042 L30.4440154,15.3610757 Z M93.965251,7.46698216 L93.965251,15.3610757 L86.8166023,15.3610757 L86.8166023,6.40027042 L93,6.40027042 C93.523166,6.40027042 93.965251,6.88882439 93.965251,7.46698216 Z M6.75675676,6.40027042 L12.9401544,6.40027042 L12.9401544,15.3610757 L5.79150579,15.3610757 L5.79150579,7.46698216 C5.79150579,6.88882439 6.23359073,6.40027042 6.75675676,6.40027042 Z M5.79150579,82.2938237 L5.79150579,74.104891 L12.9401544,74.104891 L12.9401544,83.3605354 L6.75675676,83.3605354 C6.23359073,83.3605354 5.79150579,82.8719814 5.79150579,82.2938237 Z M93,83.3605354 L86.8166023,83.3605354 L86.8166023,74.104891 L93.965251,74.104891 L93.965251,82.2938237 C93.965251,82.8719814 93.523166,83.3605354 93,83.3605354 Z" id="Shape"></path>
            <path d="M59.3567568,39.2538389 L46.0976834,30.7290995 C45.3559846,30.2521327 44.5405405,30 43.7397683,30 C41.607722,30 40,31.7046445 40,33.9651185 L40,51.3793365 C40,53.6398104 41.6073359,55.344455 43.7397683,55.344455 C44.5405405,55.344455 45.3559846,55.0923223 46.0976834,54.6153555 L59.3579151,46.0887204 C60.6131274,45.2811374 61.3332046,44.0356398 61.3328185,42.67109 C61.3324324,41.3065403 60.6123552,40.0610427 59.3567568,39.2538389 Z M45.7915058,48.0140284 L45.7915058,37.3304265 L54.0996139,42.6718483 L45.7915058,48.0140284 Z" id="Shape"></path>
        </g>
    </g>
</svg>