<?xml version="1.0" encoding="UTF-8"?>
<svg width="80px" height="67px" viewBox="0 0 80 67" version="1.1" xmlns="http://www.w3.org/2000/svg" xmlns:xlink="http://www.w3.org/1999/xlink">
    <!-- Generator: Sketch 46.1 (44463) - http://www.bohemiancoding.com/sketch -->
    <title>foward</title>
    <desc>Created with Sketch.</desc>
    <defs></defs>
    <g id="Page-1" stroke="none" stroke-width="1" fill="none" fill-rule="evenodd">
        <g id="foward" fill="#667884" fill-rule="nonzero">
            <path d="M79.1898358,28.9715976 L43.8619663,0.640169046 C43.2062316,0.113740476 42.2881979,0.00207380952 41.5177053,0.35302619 C40.7472126,0.703978573 40.2554105,1.46969286 40.2554105,2.29921667 L40.2554105,17.2306452 C23.1078695,17.8368357 11.3209853,23.7232643 5.18983579,34.7463595 C-0.0888505263,44.2539786 -0.0396715789,55.5163595 0.00950736842,62.9661214 C0.00950736842,63.5723118 0.00950736842,64.1465977 0.00950736842,64.6889786 C0.00950736842,65.6620736 0.681637895,66.5235023 1.66524632,66.7787405 C1.84557474,66.8265977 2.04229474,66.84255 2.22262316,66.84255 C3.00950737,66.84255 3.74721263,66.4437405 4.14065684,65.7577882 C16.1078695,45.2270736 25.9603284,44.2380263 40.2390147,44.1901691 L40.2390147,59.0737405 C40.2390147,59.9032641 40.7308211,60.6689786 41.5177053,61.0199309 C42.3045895,61.3708832 43.2062316,61.2592168 43.8783621,60.7327882 L79.1898358,32.3056452 C79.6980337,31.8908833 79.9931158,31.2846929 79.9931158,30.6465976 C79.9931158,30.0085024 79.6980337,29.3863595 79.1898358,28.9715976 Z M44.6816379,54.4954073 L44.6816379,42.0365977 C44.6816379,41.4623119 44.4521305,40.919931 44.0259032,40.5211214 C43.6160674,40.1223119 43.0422947,39.8830262 42.4685263,39.8830262 C33.5504926,39.8830262 26.7144253,40.1223119 20.0750821,43.1373118 C14.3373768,45.73755 9.37016421,50.1563595 4.46852632,57.0956454 C4.66524632,50.76255 5.51770526,43.2011214 9.07508211,36.8042167 C14.7144253,26.6585024 25.6324589,21.6335024 42.4685263,21.489931 C43.6816379,21.4739786 44.6652463,20.5168357 44.6652463,19.3363595 L44.6652463,6.86159763 L74.2881979,30.6465976 L44.6816379,54.4954073 Z"></path>
        </g>
    </g>
</svg>