<?xml version="1.0" encoding="UTF-8"?>
<svg width="100px" height="100px" viewBox="0 0 100 100" version="1.1" xmlns="http://www.w3.org/2000/svg" xmlns:xlink="http://www.w3.org/1999/xlink">
    <!-- Generator: Sketch 46.1 (44463) - http://www.bohemiancoding.com/sketch -->
    <title>settings (8)</title>
    <desc>Created with Sketch.</desc>
    <defs></defs>
    <g id="Page-1" stroke="none" stroke-width="1" fill="none" fill-rule="evenodd">
        <g id="settings-(8)" fill-rule="nonzero" fill="#FFFFFF">
            <path d="M3.84615385,39.6581197 C1.88034188,39.6581197 0.341880342,41.1965812 0.341880342,43.1623932 L0.341880342,56.8376068 C0.341880342,58.8034188 1.88034188,60.3418803 3.84615385,60.3418803 L10.2564103,60.3418803 C11.1965812,64.017094 12.6495726,67.5213675 14.6153846,70.7692308 L10.1709402,75.2136752 C8.8034188,76.5811966 8.8034188,78.8034188 10.1709402,80.1709402 L19.8290598,89.8290598 C21.1965812,91.1965812 23.4188034,91.1965812 24.7863248,89.8290598 L29.3162393,85.2991453 C32.5641026,87.1794872 36.0683761,88.6324786 39.7435897,89.5726496 L39.7435897,95.982906 C39.7435897,97.9487179 41.2820513,99.4871795 43.2478632,99.4871795 L56.9230769,99.4871795 C58.8888889,99.4871795 60.4273504,97.9487179 60.4273504,95.982906 L60.4273504,89.4871795 C64.1025641,88.5470085 67.5213675,87.0940171 70.7692308,85.2136752 L75.3846154,89.8290598 C76.7521368,91.1965812 78.974359,91.1965812 80.3418803,89.8290598 L90,80.1709402 C91.3675214,78.8034188 91.3675214,76.5811966 90,75.2136752 L85.3846154,70.5982906 C87.2649573,67.3504274 88.7179487,63.9316239 89.6581197,60.2564103 L96.1538462,60.2564103 C98.1196581,60.2564103 99.6581197,58.7179487 99.6581197,56.7521368 L99.6581197,43.0769231 C99.6581197,41.1111111 98.1196581,39.5726496 96.1538462,39.5726496 L89.6581197,39.5726496 C88.7179487,35.8974359 87.2649573,32.4786325 85.3846154,29.2307692 L90,24.6153846 C91.3675214,23.2478632 91.3675214,21.025641 90,19.6581197 L80.2564103,10.0854701 C78.8888889,8.71794872 76.6666667,8.71794872 75.2991453,10.0854701 L70.7692308,14.6153846 C67.5213675,12.7350427 64.017094,11.2820513 60.3418803,10.2564103 L60.3418803,3.84615385 C60.3418803,1.88034188 58.8034188,0.341880342 56.8376068,0.341880342 L43.1623932,0.341880342 C41.1965812,0.341880342 39.6581197,1.88034188 39.6581197,3.84615385 L39.6581197,10.2564103 C35.982906,11.1965812 32.4786325,12.6495726 29.2307692,14.5299145 L24.7008547,10 C23.3333333,8.63247863 21.1111111,8.63247863 19.7435897,10 L10.0854701,19.7435897 C8.71794872,21.1111111 8.71794872,23.3333333 10.0854701,24.7008547 L14.5299145,29.1452991 C12.5641026,32.3931624 11.1111111,35.8974359 10.1709402,39.6581197 L3.84615385,39.6581197 Z M16.4957265,43.7606838 C17.3504274,38.974359 19.2307692,34.6153846 21.8803419,30.6837607 C22.8205128,29.3162393 22.6495726,27.4358974 21.4529915,26.2393162 L17.5213675,22.2222222 L22.2222222,17.5213675 L26.2393162,21.5384615 C27.4358974,22.7350427 29.3162393,22.9059829 30.6837607,21.965812 C34.6153846,19.2307692 39.0598291,17.4358974 43.7606838,16.5811966 C45.3846154,16.2393162 46.6666667,14.8717949 46.6666667,13.1623932 L46.6666667,7.43589744 L53.3333333,7.43589744 L53.3333333,13.1623932 C53.3333333,14.8717949 54.5299145,16.3247863 56.1538462,16.5811966 C60.8547009,17.4358974 65.2136752,19.3162393 69.1452991,21.965812 C70.5128205,22.9059829 72.3931624,22.7350427 73.5897436,21.5384615 L77.6923077,17.4358974 L82.3931624,22.1367521 L78.2905983,26.2393162 C77.0940171,27.4358974 76.9230769,29.3162393 77.8632479,30.6837607 C80.5128205,34.6153846 82.3076923,38.974359 83.2478632,43.6752137 C83.5897436,45.2991453 85.042735,46.5811966 86.6666667,46.5811966 L92.4786325,46.5811966 L92.4786325,53.2478632 L86.6666667,53.2478632 C84.957265,53.2478632 83.5042735,54.4444444 83.2478632,56.0683761 C82.3931624,60.7692308 80.5982906,65.1282051 77.8632479,69.0598291 C76.9230769,70.4273504 77.0940171,72.3076923 78.2905983,73.5042735 L82.3931624,77.6068376 L77.6923077,82.3076923 L73.5897436,78.2051282 C72.3931624,77.008547 70.5128205,76.8376068 69.1452991,77.7777778 C65.2136752,80.5128205 60.8547009,82.3076923 56.1538462,83.1623932 C54.5299145,83.5042735 53.3333333,84.957265 53.3333333,86.5811966 L53.3333333,92.3076923 L46.6666667,92.3076923 L46.6666667,86.5811966 C46.6666667,84.8717949 45.4700855,83.4188034 43.7606838,83.1623932 C38.974359,82.3076923 34.6153846,80.5128205 30.6837607,77.7777778 C29.3162393,76.8376068 27.4358974,77.008547 26.2393162,78.2051282 L22.2222222,82.2222222 L17.5213675,77.7777778 L21.5384615,73.7606838 C22.7350427,72.5641026 22.9059829,70.6837607 21.965812,69.3162393 C19.2307692,65.3846154 17.4358974,60.9401709 16.4957265,56.2393162 C16.1538462,54.6153846 14.7863248,53.4188034 13.0769231,53.4188034 L7.43589744,53.4188034 L7.43589744,46.7521368 L13.0769231,46.7521368 C14.7008547,46.6666667 16.1538462,45.4700855 16.4957265,43.7606838 Z" id="Shape"></path>
            <path d="M49.9145299,74.5299145 C63.1623932,74.5299145 73.9316239,63.7606838 73.9316239,50.5128205 C73.9316239,37.2649573 63.1623932,26.4957265 49.9145299,26.4957265 C36.6666667,26.4957265 25.8974359,37.2649573 25.8974359,50.5128205 C25.8974359,63.7606838 36.6666667,74.5299145 49.9145299,74.5299145 L49.9145299,74.5299145 Z M49.9145299,33.5042735 C59.3162393,33.5042735 66.9230769,41.1111111 66.9230769,50.5128205 C66.9230769,59.9145299 59.3162393,67.5213675 49.9145299,67.5213675 C40.5128205,67.5213675 32.9059829,59.9145299 32.9059829,50.5128205 C32.9059829,41.1111111 40.5128205,33.5042735 49.9145299,33.5042735 Z" id="Shape"></path>
        </g>
    </g>
</svg>