<?xml version="1.0" encoding="UTF-8"?>
<svg width="100px" height="100px" viewBox="0 0 100 100" version="1.1" xmlns="http://www.w3.org/2000/svg" xmlns:xlink="http://www.w3.org/1999/xlink">
    <!-- Generator: Sketch 47.1 (45422) - http://www.bohemiancoding.com/sketch -->
    <title>Combined Shape</title>
    <desc>Created with Sketch.</desc>
    <defs></defs>
    <g id="Page-1" stroke="none" stroke-width="1" fill="none" fill-rule="evenodd">
        <path d="M3.12277177,6 C1.39848129,6 0,4.6565 0,3 C0,1.3435 1.39848129,0 3.12277177,0 L96.8772282,0 C98.6015187,0 100,1.3435 100,3 C100,4.6565 98.6015187,6 96.8772282,6 L3.12277177,6 Z M3.12277177,37 C1.39848129,37 0,35.6565 0,34 C0,32.3435 1.39848129,31 3.12277177,31 L96.8772282,31 C98.6015187,31 100,32.3435 100,34 C100,35.6565 98.6015187,37 96.8772282,37 L3.12277177,37 Z M65.8026444,63 C67.5686505,63 69,64.3435 69,66 C69,67.6565 67.5681176,69 65.8026444,69 L3.19735562,69 C1.43188242,69 0,67.6565 0,66 C0,64.3435 1.43188242,63 3.19735562,63 L65.8026444,63 Z M65.8026444,94 C67.5686505,94 69,95.3435 69,97 C69,98.6565 67.5681176,100 65.8026444,100 L3.19735562,100 C1.43188242,100 0,98.6565 0,97 C0,95.3435 1.43188242,94 3.19735562,94 L65.8026444,94 Z" id="Combined-Shape" fill="#667884" fill-rule="nonzero"></path>
    </g>
</svg>