<?xml version="1.0" encoding="UTF-8"?>
<svg width="16px" height="13px" viewBox="0 0 16 13" version="1.1" xmlns="http://www.w3.org/2000/svg" xmlns:xlink="http://www.w3.org/1999/xlink">
    <!-- Generator: Sketch 47.1 (45422) - http://www.bohemiancoding.com/sketch -->
    <title>menu</title>
    <desc>Created with Sketch.</desc>
    <defs></defs>
    <g id="Page-1" stroke="none" stroke-width="1" fill="none" fill-rule="evenodd">
        <g id="Quan-tri-he-thong---Du-lieu-goc---MENU-dropdown" transform="translate(-20.000000, -128.000000)" fill-rule="nonzero" fill="#0094FB">
            <g id="Nha-may" transform="translate(20.000000, 124.000000)">
                <g id="placeholder-(3)" transform="translate(0.000000, 4.000000)">
                    <path d="M16,0.65 L16,1.95 C16,2.34 15.7333333,2.6 15.3333333,2.6 L0.666666667,2.6 C0.266666667,2.6 0,2.34 0,1.95 L0,0.65 C0,0.26 0.266666667,0 0.666666667,0 L15.3333333,0 C15.7333333,0 16,0.26 16,0.65 Z M16,5.85 L16,7.15 C16,7.54 15.7333333,7.8 15.3333333,7.8 L0.666666667,7.8 C0.266666667,7.8 0,7.54 0,7.15 L0,5.85 C0,5.46 0.266666667,5.2 0.666666667,5.2 L15.3333333,5.2 C15.7333333,5.2 16,5.46 16,5.85 Z M16,11.05 L16,12.35 C16,12.74 15.7333333,13 15.3333333,13 L0.666666667,13 C0.266666667,13 0,12.74 0,12.35 L0,11.05 C0,10.66 0.266666667,10.4 0.666666667,10.4 L15.3333333,10.4 C15.7333333,10.4 16,10.66 16,11.05 Z" id="menu"></path>
                </g>
            </g>
        </g>
    </g>
</svg>