<?xml version="1.0" encoding="UTF-8"?>
<svg width="16px" height="16px" viewBox="0 0 16 16" version="1.1" xmlns="http://www.w3.org/2000/svg" xmlns:xlink="http://www.w3.org/1999/xlink">
    <!-- Generator: Sketch 47.1 (45422) - http://www.bohemiancoding.com/sketch -->
    <title>Shape</title>
    <desc>Created with Sketch.</desc>
    <defs></defs>
    <g id="Page-1" stroke="none" stroke-width="1" fill="none" fill-rule="evenodd">
        <g id="Quan-tri-he-thong---Danh-muc-quan-ly" transform="translate(-1350.000000, -187.000000)" fill-rule="nonzero" fill="#667884">
            <g id="row5" transform="translate(332.000000, 184.000000)">
                <g id="move-arrows" transform="translate(1018.000000, 2.000000)">
                    <g id="move-(1)" transform="translate(0.000000, 1.000000)">
                        <path d="M15.8825092,7.71102607 L13.6182567,5.44648487 C13.4617275,5.28995293 13.2086682,5.28995293 13.0521389,5.44648487 C12.8956096,5.60301681 12.8956096,5.85608042 13.0521389,6.01261236 L14.6331813,7.59368181 L8.40022924,7.59368181 L8.40022924,1.36699819 L9.98127166,2.94806764 C10.1378009,3.10459958 10.3908602,3.10459958 10.5473895,2.94806764 C10.7039187,2.7915357 10.7039187,2.53847209 10.5473895,2.38194016 L8.28288698,0.117398953 C8.12660772,-0.0391329845 7.87329844,-0.0391329845 7.71676917,0.117398953 L5.45251668,2.38169015 C5.29598742,2.53822209 5.29598742,2.7912857 5.45251668,2.94781764 C5.60879595,3.10434958 5.86210523,3.10434958 6.01863449,2.94781764 L7.59967691,1.36674819 L7.59967691,7.59396306 L1.36697483,7.59396306 L2.94801724,6.01289361 C3.10454651,5.85636167 3.10454651,5.60329806 2.94801724,5.44676612 C2.79148798,5.29023419 2.5384287,5.29023419 2.38189943,5.44676612 L0.117396946,7.71102607 C-0.0391323155,7.86730801 -0.0391323155,8.12062162 0.117396946,8.27715356 L2.38189943,10.5414448 C2.5384287,10.6979767 2.79148798,10.6979767 2.94801724,10.5414448 C3.10454651,10.3851628 3.10454651,10.1318492 2.94801724,9.97531727 L1.36697483,8.39424783 L7.59995816,8.39424783 L7.59995816,14.6332127 L6.01891574,13.0521433 C5.86238648,12.8958614 5.60932719,12.8958614 5.45279793,13.0521433 C5.29626867,13.2086752 5.29626867,13.4617388 5.45279793,13.6182708 L7.71705042,15.882812 C7.87329844,16.0390627 8.12663897,16.0390627 8.28316823,15.882812 L10.5476707,13.6185208 C10.7042,13.4619888 10.7042,13.2089252 10.5476707,13.0523933 C10.3911415,12.8961426 10.1380822,12.8961426 9.98155291,13.0523933 L8.40051049,14.6334627 L8.40051049,8.39449783 L14.6334938,8.39449783 L13.0524514,9.97556728 C12.8959221,10.1320992 12.8959221,10.3851628 13.0524514,10.5416948 C13.2089807,10.6982267 13.46204,10.6982267 13.6185692,10.5416948 L15.8830717,8.27740356 C16.0390697,8.12090288 16.0390697,7.86755801 15.8825092,7.71102607 Z" id="Shape"></path>
                    </g>
                </g>
            </g>
        </g>
    </g>
</svg>