<?xml version="1.0" encoding="UTF-8"?>
<svg width="100px" height="107px" viewBox="0 0 100 107" version="1.1" xmlns="http://www.w3.org/2000/svg" xmlns:xlink="http://www.w3.org/1999/xlink">
    <!-- Generator: Sketch 46.1 (44463) - http://www.bohemiancoding.com/sketch -->
    <title>Shape</title>
    <desc>Created with Sketch.</desc>
    <defs></defs>
    <g id="Page-1" stroke="none" stroke-width="1" fill="none" fill-rule="evenodd">
        <path d="M99.9541495,25.2256226 C99.9541495,24.819122 99.8624484,24.4126214 99.6790463,24.0287041 C99.3122421,23.2608696 98.6015589,22.7414521 97.8221,22.5833685 L51.1233379,0.271000422 C50.3668042,-0.090333474 49.4727189,-0.090333474 48.7161852,0.271000422 L1.55891793,22.7866188 C0.641907382,23.2157028 0.0458505273,24.1190376 0,25.1352892 L0,25.1578725 C0,25.1804559 0,25.2030393 0,25.248206 L0,81.751794 C0,82.790629 0.596056855,83.7391304 1.55891793,84.1907978 L48.7161852,106.706416 C48.7391105,106.706416 48.7391105,106.706416 48.7620358,106.729 C48.8308116,106.751583 48.8995873,106.774166 48.9683631,106.819333 C48.9912884,106.819333 49.0142137,106.841916 49.0600642,106.841916 C49.12884,106.8645 49.1976158,106.887083 49.2663916,106.909667 C49.2893168,106.909667 49.3122421,106.93225 49.3351674,106.93225 C49.4039431,106.954833 49.4956442,106.954833 49.56442,106.977417 C49.5873453,106.977417 49.6102705,106.977417 49.6331958,106.977417 C49.7248968,106.977417 49.8395232,107 49.9312242,107 C50.0229253,107 50.1375516,107 50.2292526,106.977417 C50.2521779,106.977417 50.2751032,106.977417 50.2980284,106.977417 C50.3668042,106.977417 50.4585053,106.954833 50.5272811,106.93225 C50.5502063,106.93225 50.5731316,106.909667 50.5960569,106.909667 C50.6648326,106.887083 50.7336084,106.8645 50.8023842,106.841916 C50.8253095,106.841916 50.8482348,106.819333 50.8940853,106.819333 C50.9628611,106.79675 51.0316369,106.774166 51.1004127,106.729 C51.1233379,106.729 51.1233379,106.729 51.1462632,106.706416 L98.4410821,84.1230477 C99.3810179,83.6713803 100,82.7228789 100,81.6840439 L100,25.2933727 C99.9541495,25.2707894 99.9541495,25.248206 99.9541495,25.2256226 Z M49.9082989,5.71359223 L90.8069693,25.248206 L75.7450711,32.4523005 L34.8464007,12.9176868 L49.9082989,5.71359223 Z M49.9082989,44.7828198 L9.00962861,25.248206 L28.5419532,15.9212748 L69.4406236,35.4558886 L49.9082989,44.7828198 Z M5.50206327,29.6067961 L47.1572673,49.5027438 L47.1572673,99.9314057 L5.50206327,80.035458 L5.50206327,29.6067961 Z M52.6593306,99.9314057 L52.6593306,49.5027438 L72.2145805,40.1532292 L72.2145805,53.3419164 C72.2145805,54.8324187 73.4525447,56.0519206 74.9656121,56.0519206 C76.4786795,56.0519206 77.7166437,54.8324187 77.7166437,53.3419164 L77.7166437,37.5109751 L94.4520862,29.5164626 L94.4520862,79.9451245 L52.6593306,99.9314057 Z" id="Shape" fill="#667884" fill-rule="nonzero"></path>
    </g>
</svg>