<?xml version="1.0" encoding="UTF-8"?>
<svg width="100px" height="95px" viewBox="0 0 100 95" version="1.1" xmlns="http://www.w3.org/2000/svg" xmlns:xlink="http://www.w3.org/1999/xlink">
    <!-- Generator: Sketch 46.1 (44463) - http://www.bohemiancoding.com/sketch -->
    <title>Combined Shape</title>
    <desc>Created with Sketch.</desc>
    <defs></defs>
    <g id="Page-1" stroke="none" stroke-width="1" fill="none" fill-rule="evenodd">
        <path d="M97.1294866,8.24774581 C99.0895887,8.66963136 100.338246,10.60541 99.9189297,12.5717813 L95.4670296,33.4143256 C95.2652117,34.358615 94.6977984,35.1840305 93.8893652,35.7087653 C93.3840944,36.0368337 92.8102926,36.2305864 92.2216812,36.2804085 C91.8682821,36.310127 91.5099464,36.2882752 91.157128,36.2122309 L70.3841107,31.7457216 C68.4240086,31.3244188 67.1753509,29.3880574 67.5952483,27.4213948 C68.0148554,25.4547323 69.9441767,24.201604 71.9048596,24.6231982 L84.006385,27.2253113 C76.9180749,14.9766454 63.8257541,7.28393547 49.4722892,7.28393547 C27.4558412,7.28393547 9.54428268,25.2554438 9.54428268,47.3455806 C9.54428268,49.3568208 7.91899502,50.9875483 5.9144639,50.9875483 C3.9096424,50.9875483 2.28464513,49.3568208 2.28464513,47.3455806 C2.28464513,21.2387904 23.4528771,0 49.4722892,0 C66.3677888,0 81.7831936,9.0210084 90.1817231,23.3965835 L92.819585,11.0456511 C93.2394824,9.07898853 95.1685133,7.82556891 97.1294866,8.24774581 Z M93.4770177,42.5719806 C95.4800969,42.500598 97.1588155,44.0817948 97.224733,46.0915782 C97.6408555,58.7312458 93.1265224,70.7768356 84.5128173,80.0093694 C75.8991122,89.2419033 64.2177746,94.5562627 51.6205611,94.9740692 C51.0967057,94.9915506 50.5719791,95 50.0501563,95 C33.8051202,95.0005827 18.8313918,86.6327976 10.2290117,73.0418481 L7.13669648,84.6136907 C6.70198938,86.2403392 5.23525221,87.3136999 3.63290502,87.3136999 C3.32161176,87.3136999 3.00567233,87.2729099 2.69060406,87.1881249 C0.754313536,86.6668865 -0.394451509,84.6699227 0.124757768,82.7271514 L5.6261111,62.1380881 C5.87555225,61.2051616 6.48390987,60.4094645 7.31789703,59.9269766 C8.15130342,59.4444887 9.14238914,59.3139606 10.0722035,59.5636539 L30.5920046,65.0837116 C32.5282951,65.6052414 33.6770602,67.6022051 33.1578509,69.5449764 C32.6386416,71.488039 30.648049,72.6403576 28.7117585,72.1197019 L16.0953796,68.725388 C23.3312055,80.467966 36.1435946,87.7154818 50.0518986,87.7160645 C50.4944461,87.7160645 50.9364129,87.7087806 51.3807027,87.6942127 C62.0398833,87.3410875 71.924025,82.8436944 79.2124107,75.0318193 C86.5010868,67.2190701 90.3208177,57.0270962 89.9688705,46.3319481 C89.9026626,44.3218733 91.4736482,42.6384101 93.4770177,42.5719806 Z" id="Combined-Shape" fill="#667884" fill-rule="nonzero"></path>
    </g>
</svg>