<?xml version="1.0" encoding="UTF-8"?>
<svg width="100px" height="107px" viewBox="0 0 100 107" version="1.1" xmlns="http://www.w3.org/2000/svg" xmlns:xlink="http://www.w3.org/1999/xlink">
    <!-- Generator: Sketch 46.1 (44463) - http://www.bohemiancoding.com/sketch -->
    <title>BTDK</title>
    <desc>Created with Sketch.</desc>
    <defs></defs>
    <g id="Page-1" stroke="none" stroke-width="1" fill="none" fill-rule="evenodd">
        <g id="BTDK" fill-rule="nonzero" fill="#FFFFFF">
            <path d="M50.026608,0 C38.9919778,0 29.9735909,9.3423616 29.9735909,20.7733977 C29.9735909,32.2044337 38.9919778,41.5467953 50.026608,41.5467953 C61.0612383,41.5467953 70.0796252,32.2044337 70.0796252,20.7733977 C70.0796252,9.34287682 61.0607409,0 50.026608,0 Z M50.026608,34.4028486 C42.7588814,34.4028486 36.870297,28.3027239 36.870297,20.7739129 C36.870297,13.2451019 42.7588814,7.14497715 50.026608,7.14497715 C57.2943347,7.14497715 63.1829191,13.2451019 63.1829191,20.7739129 C63.1829191,28.3027239 57.2943347,34.4028486 50.026608,34.4028486 Z M57.2943347,51.6588855 C80.8486723,51.6588855 100,71.4982016 100,95.8987004 L100,107 L0,107 L0,95.8987004 C0,71.4982016 19.1513277,51.6588855 42.7056653,51.6588855 L57.2943347,51.6588855 Z M93.1032939,99.8555381 L93.1032939,95.8987004 C93.1032939,75.4550392 77.02905,58.8033474 57.2943347,58.8033474 L42.7056653,58.8033474 C22.97095,58.8033474 6.89670607,75.4550392 6.89670607,95.8987004 L6.89670607,99.8555381 L93.1032939,99.8555381 Z" id="Combined-Shape"></path>
        </g>
    </g>
</svg>