<?xml version="1.0" encoding="UTF-8"?>
<svg width="80px" height="85px" viewBox="0 0 80 85" version="1.1" xmlns="http://www.w3.org/2000/svg" xmlns:xlink="http://www.w3.org/1999/xlink">
    <!-- Generator: Sketch 46.1 (44463) - http://www.bohemiancoding.com/sketch -->
    <title>user</title>
    <desc>Created with Sketch.</desc>
    <defs></defs>
    <g id="Page-1" stroke="none" stroke-width="1" fill="none" fill-rule="evenodd">
        <g id="user" fill-rule="nonzero">
            <path d="M80,85 L80,74.6041558 C80,72.4243817 79.0242427,70.3284454 77.2848485,68.9451278 C67.7818181,61.2320817 57.557576,56.1179972 55.4363637,55.1119478 C55.1818181,54.9861913 55.0545456,54.7765978 55.0545456,54.4831667 L55.0545456,39.8535311 C56.9212123,38.6378879 58.1515152,36.5419516 58.1515152,34.1525842 L58.1515152,18.978005 C58.1515152,11.4326341 51.9575757,5.3125 44.3212121,5.3125 L42.6666667,5.3125 L41.0121212,5.3125 C33.3757576,5.3125 27.1818182,11.4326341 27.1818182,18.978005 L27.1818182,34.1525842 C27.1818182,36.5419516 28.4121212,38.5959692 30.2787879,39.8535311 L30.2787879,54.4831667 C30.2787879,54.734679 30.1515151,54.9861913 29.8969697,55.1119478 C27.8181818,56.1179972 17.5515151,61.2320817 8.04848485,68.9451278 C6.35151515,70.3284454 5.33333333,72.4243817 5.33333333,74.6041558 L5.33333333,85" id="XMLID_1866_" fill="#C9D4E8"></path>
            <path d="M76.2474229,85 C78.3092784,85 80,83.3253242 80,81.2830371 L80,71.1532917 C80,67.885632 78.5567008,64.8222006 76,62.7799136 C68.0824741,56.3262854 59.5876288,51.6698702 55.7525771,49.7092744 L55.7525771,39.0485344 C57.6494848,37.1287842 58.7628864,34.5555021 58.7628864,31.7779914 L58.7628864,16.9918309 C58.7628864,7.59730898 51.0515464,0 41.6082474,0 L38.3917526,0 C28.9072165,0 21.2371134,7.63815472 21.2371134,16.9918309 L21.2371134,31.7779914 C21.2371134,34.5146564 22.3505155,37.1287842 24.2474227,39.0485344 L24.2474227,49.7092744 C20.4536083,51.6698702 11.9587629,56.3262854 4,62.7799136 C1.44329897,64.8630468 0,67.885632 0,71.1532917 L0,81.2830371 C0,83.3253242 1.69072165,85 3.75257732,85 C5.81443301,85 7.50515461,83.3253242 7.50515461,81.2830371 L7.50515461,71.1532917 C7.50515461,70.0913023 7.95876288,69.1518499 8.78350517,68.4983183 C17.7319588,61.2277753 27.4226804,56.3671311 29.2783505,55.4685249 C30.7628866,54.7333015 31.7525773,53.2220089 31.7525773,51.547333 L31.7525773,37.2921672 C31.7525773,36.0667948 31.1340206,34.8822681 30.1030928,34.2287362 C29.2783505,33.6568957 28.7835052,32.7582893 28.7835052,31.7779914 L28.7835052,16.9918309 C28.7835052,11.6818837 33.1134021,7.39308027 38.4742268,7.39308027 L41.6907217,7.39308027 C47.0515464,7.39308027 51.3814433,11.6818837 51.3814433,16.9918309 L51.3814433,31.7779914 C51.3814433,32.7582893 50.8865979,33.6977415 50.0618557,34.2287362 C49.0309278,34.9231139 48.4123711,36.0667948 48.4123711,37.2921672 L48.4123711,51.547333 C48.4123711,53.1811627 49.3608247,54.7333015 50.8865979,55.4685249 C52.7422681,56.3671311 62.4329899,61.2277753 71.3814432,68.4983183 C72.1649483,69.1518499 72.6597936,70.132148 72.6597936,71.1532917 L72.6597936,81.2830371 C72.5360827,83.3253242 74.1855669,85 76.2474229,85 Z" id="Shape" fill="#667884"></path>
        </g>
    </g>
</svg>