<?xml version="1.0" encoding="UTF-8"?>
<svg width="88px" height="88px" viewBox="0 0 88 88" version="1.1" xmlns="http://www.w3.org/2000/svg" xmlns:xlink="http://www.w3.org/1999/xlink">
    <!-- Generator: Sketch 46.1 (44463) - http://www.bohemiancoding.com/sketch -->
    <title>Group</title>
    <desc>Created with Sketch.</desc>
    <defs></defs>
    <g id="Page-1" stroke="none" stroke-width="1" fill="none" fill-rule="evenodd">
        <g id="Group">
            <circle id="Oval-6" fill="#43D3E8" cx="44" cy="44" r="44"></circle>
            <path d="M88,44.0051765 C88,19.7575817 68.2424183,0 43.9948235,0 C19.7472288,0 0,19.7575817 0,44.0051765 C0,57.3606144 6.05934641,69.3752026 15.4859869,77.4507843 C15.6003007,77.565098 15.7146144,77.6794118 15.9328889,77.7833725 C23.5615686,84.1856601 33.3312941,88 44.1091373,88 C54.6583529,88 64.4280784,84.1856601 72.0567582,78.012 C72.5036601,77.8976863 72.8466013,77.565098 73.0648758,77.2221569 C82.1694248,69.0322614 88,57.2463007 88,44.0051765 Z M4.04296732,44.0051765 C4.04296732,22.0025882 22.0025882,4.04296732 44.0051765,4.04296732 C66.0077647,4.04296732 83.9673856,22.0025882 83.9673856,44.0051765 C83.9673856,54.7830196 79.7061438,64.5422484 72.7426405,71.7345229 C71.6202092,66.4546667 68.2527712,57.4749281 57.9218301,51.6443529 C60.2811503,48.723817 61.6218562,44.9094771 61.6218562,40.8665098 C61.6218562,31.211098 53.764549,23.3537908 44.1091373,23.3537908 C34.4537255,23.3537908 26.5964183,31.211098 26.5964183,40.8665098 C26.5964183,44.9094771 28.0514379,48.6095033 30.2964444,51.6443529 C19.8720392,57.4749281 16.5046013,66.4548105 15.4963399,71.7345229 C8.41852288,64.6567059 4.04296732,54.7830196 4.04296732,44.0051765 Z M30.5354248,40.9703268 C30.5354248,33.5599216 36.5947712,27.5005752 44.0051765,27.5005752 C51.4155817,27.5005752 57.4749281,33.5599216 57.4749281,40.9703268 C57.4749281,48.380732 51.4155817,54.4400784 44.0051765,54.4400784 C36.5947712,54.4400784 30.5354248,48.380732 30.5354248,40.9703268 Z M19.0820523,75.2059216 C19.3106797,71.9527974 21.0982876,60.9463268 33.2273333,54.7726667 C36.262183,57.1319869 39.9622092,58.4726928 44.0051765,58.4726928 C48.0481438,58.4726928 51.8624837,57.0176732 54.8973333,54.6583529 C66.9119216,60.8320131 68.8139869,71.6098562 69.1569281,75.0916078 C62.3077386,80.5897386 53.5566275,83.9570327 44.1298431,83.9570327 C34.5785359,83.9673856 25.9312418,80.7142614 19.0820523,75.2059216 Z" id="Shape" fill="#3F4F63" fill-rule="nonzero"></path>
        </g>
    </g>
</svg>