<?xml version="1.0" encoding="UTF-8"?>
<svg width="80px" height="80px" viewBox="0 0 80 80" version="1.1" xmlns="http://www.w3.org/2000/svg" xmlns:xlink="http://www.w3.org/1999/xlink">
    <!-- Generator: Sketch 46.1 (44463) - http://www.bohemiancoding.com/sketch -->
    <title>vattuthaythe</title>
    <desc>Created with Sketch.</desc>
    <defs></defs>
    <g id="Page-1" stroke="none" stroke-width="1" fill="none" fill-rule="evenodd">
        <g id="vattuthaythe" fill-rule="nonzero" fill="#9DA7BF">
            <path d="M23.59375,53.4656252 L23.59375,26.5345312 C29.4748438,24.1270312 33.125,20.3923438 33.125,14.0625 C33.125,6.99328124 28.5985938,3.32984375 22.035,0.9965625 C21.3175,0.74125 20.5207812,0.8509375 19.8984375,1.29 C19.27625,1.72921875 18.90625,2.44328125 18.90625,3.20484375 L18.90625,10.619375 C17.488125,11.5459375 15.636875,11.5460938 14.21875,10.619375 L14.21875,3.205 C14.21875,2.4434375 13.84875,1.729375 13.2265625,1.29015625 C12.6042188,0.850781248 11.8075,0.7415625 11.09,0.996718748 C4.53140624,3.32796875 0,6.980625 0,14.0625 C0,20.3928125 3.65078125,24.1273438 9.53125,26.5345312 L9.53125,53.4656252 C3.6503125,55.8728124 0,59.6076564 0,65.9375 C0,73.0067188 4.52640624,76.6701564 11.09,79.0034376 C12.6146875,79.5459376 14.21875,78.4118752 14.21875,76.7951564 L14.21875,69.3804688 C15.6370312,68.45375 17.488125,68.4535936 18.90625,69.3804688 L18.90625,76.795 C18.90625,78.4196876 20.518125,79.5426564 22.035,79.0032812 C28.5935938,76.6718752 33.125,73.0193752 33.125,65.9375 C33.125,59.6085936 29.4757812,55.8732812 23.59375,53.4656252 Z M23.59375,73.2557812 L23.59375,68.28125 C23.59375,67.6596876 23.3467188,67.0635936 22.9071875,66.6240624 C21.1578125,64.8745312 18.8604688,64.0001564 16.5625,64.0001564 C14.265,64.0001564 11.9667188,64.875 10.2178125,66.6239064 C9.77828124,67.0635936 9.53125,67.6595312 9.53125,68.28125 L9.53125,73.2557812 C6.09203124,71.4657812 4.6875,69.2542188 4.6875,65.9375 C4.6875,61.7528124 6.92281248,59.3278124 12.66,57.2882812 C13.594375,56.9560936 14.21875,56.0717188 14.21875,55.08 L14.21875,24.9201562 C14.21875,23.9284375 13.5945312,23.0439062 12.66,22.7117188 C6.92281248,20.6721875 4.6875,18.2471875 4.6875,14.0625 C4.6875,10.745625 6.09203124,8.53421876 9.53125,6.74421876 L9.53125,11.71875 C9.53125,12.3404688 9.77828124,12.9364062 10.2178125,13.3760938 C13.7164062,16.8745312 19.4089062,16.8745312 22.9073438,13.3760938 C23.3467188,12.9364062 23.59375,12.3403125 23.59375,11.71875 L23.59375,6.74421876 C27.0329688,8.534375 28.4375,10.7457812 28.4375,14.0625 C28.4375,18.2471875 26.2021875,20.6721875 20.465,22.7117188 C19.530625,23.0439062 18.90625,23.9282812 18.90625,24.92 L18.90625,55.0798436 C18.90625,56.0715624 19.5304688,56.9559376 20.465,57.2881248 C26.2021875,59.3278124 28.4375,61.7528124 28.4375,65.9375 C28.4375,69.2542188 27.0329688,71.4657812 23.59375,73.2557812 Z" id="Shape"></path>
            <path d="M68.28125,28.125 C61.8026564,28.125 56.5625,33.5210938 56.5625,40 C56.5625,46.4785936 61.8023436,51.875 68.28125,51.875 C74.7598436,51.875 80,46.4789064 80,40 C80,33.5214062 74.7601564,28.125 68.28125,28.125 Z M68.28125,47.1875 C64.4698436,47.1875 61.25,43.8960936 61.25,40 C61.25,36.1039062 64.4698436,32.8125 68.28125,32.8125 C72.0926564,32.8125 75.3125,36.1039062 75.3125,40 C75.3125,43.8960936 72.0926564,47.1875 68.28125,47.1875 Z" id="Shape"></path>
            <path d="M40.15625,28.125 C33.6776562,28.125 28.4375,33.5210938 28.4375,40 C28.4375,46.4785936 33.6773438,51.875 40.15625,51.875 C46.6348436,51.875 51.875,46.4789064 51.875,40 C51.875,33.5214062 46.6351564,28.125 40.15625,28.125 Z M40.15625,47.1875 C36.3448438,47.1875 33.125,43.8960936 33.125,40 C33.125,36.1039062 36.3448438,32.8125 40.15625,32.8125 C43.9676564,32.8125 47.1875,36.1039062 47.1875,40 C47.1875,43.8960936 43.9676564,47.1875 40.15625,47.1875 Z" id="Shape"></path>
            <circle id="Oval" cx="40.15625" cy="40" r="4"></circle>
            <circle id="Oval" cx="68.28125" cy="40" r="4"></circle>
            <path d="M68.28125,4.6875 C66.44875,4.6875 53.5878124,4.6875 51.875,4.6875 L51.875,2.34375 C51.875,1.049375 50.8256252,0 49.53125,0 L40.15625,0 C38.861875,0 37.8125,1.049375 37.8125,2.34375 L37.8125,21.09375 C37.8125,22.388125 38.861875,23.4375 40.15625,23.4375 L49.53125,23.4375 C50.8256252,23.4375 51.875,22.388125 51.875,21.09375 L51.875,18.75 L68.28125,18.75 C72.1582812,18.75 75.3125,15.5957812 75.3125,11.71875 C75.3125,7.84171876 72.1582812,4.6875 68.28125,4.6875 Z M47.1875,18.75 L42.5,18.75 L42.5,4.6875 L47.1875,4.6875 C47.1875,6.11078124 47.1875,16.4579688 47.1875,18.75 Z M51.875,14.0625 L51.875,9.375 L55.5917188,9.375 L60.2792188,14.0625 L51.875,14.0625 Z M68.28125,14.0625 L66.9082812,14.0625 L62.2207812,9.375 L68.28125,9.375 C69.5735936,9.375 70.625,10.4264062 70.625,11.71875 C70.625,13.0110938 69.5735936,14.0625 68.28125,14.0625 Z" id="Shape"></path>
            <path d="M72.96875,56.5625 L63.59375,56.5625 C62.2993748,56.5625 61.25,57.6118748 61.25,58.90625 L61.25,61.25 C59.5376564,61.25 46.67625,61.25 44.84375,61.25 C40.9667188,61.25 37.8125,64.4042188 37.8125,68.28125 C37.8125,72.1582812 40.9667188,75.3125 44.84375,75.3125 L61.25,75.3125 L61.25,77.65625 C61.25,78.9506252 62.2993748,80 63.59375,80 L72.96875,80 C74.2631252,80 75.3125,78.9506252 75.3125,77.65625 L75.3125,58.90625 C75.3125,57.6118748 74.2631252,56.5625 72.96875,56.5625 Z M46.2167188,70.625 L44.84375,70.625 C43.5514064,70.625 42.5,69.5735936 42.5,68.28125 C42.5,66.9889064 43.5514064,65.9375 44.84375,65.9375 L50.9042188,65.9375 L46.2167188,70.625 Z M61.25,70.625 L52.8457812,70.625 L57.5332812,65.9375 L61.25,65.9375 L61.25,70.625 Z M70.625,75.3125 L65.9375,75.3125 C65.9375,73 65.9375,62.6757812 65.9375,61.25 L70.625,61.25 L70.625,75.3125 Z" id="Shape"></path>
        </g>
    </g>
</svg>