<?xml version="1.0" encoding="UTF-8"?>
<svg width="80px" height="80px" viewBox="0 0 80 80" version="1.1" xmlns="http://www.w3.org/2000/svg" xmlns:xlink="http://www.w3.org/1999/xlink">
    <!-- Generator: Sketch 46.1 (44463) - http://www.bohemiancoding.com/sketch -->
    <title>vattu</title>
    <desc>Created with Sketch.</desc>
    <defs></defs>
    <g id="Page-1" stroke="none" stroke-width="1" fill="none" fill-rule="evenodd">
        <g id="vattu" fill-rule="nonzero">
            <path d="M75.875,62 C74.6581252,62 73.576,62.4963636 72.8211248,63.2727272 L71.75,63.2727272 L71.75,55.6363636 L60.75,55.6363636 L60.75,54.6449092 C61.58875,53.946182 62.125,52.9445456 62.125,51.818182 C62.125,49.7092728 60.2783748,48 58,48 C55.7216252,48 53.875,49.7092728 53.875,51.818182 C53.875,52.9445456 54.41125,53.946182 55.25,54.6449092 L55.25,55.6363636 L44.25,55.6363636 L44.25,63.2727272 L43.1788748,63.2727272 C42.424,62.4963636 41.3418752,62 40.125,62 C37.846625,62 36,63.7092728 36,65.818182 C36,67.9270908 37.846625,69.6363636 40.125,69.6363636 C41.3418752,69.6363636 42.424,69.14 43.1788748,68.3636364 L44.25,68.3636364 L44.25,76 L71.75,76 L71.75,68.3636364 L72.8211252,68.3636364 C73.576,69.14 74.6581252,69.6363636 75.875,69.6363636 C78.1533748,69.6363636 80,67.9270908 80,65.818182 C80,63.7092728 78.1533748,62 75.875,62 Z" id="Shape" fill="#F6BF58"></path>
            <path d="M24.8965517,32.2580645 L23.8757931,32.2580645 C23.1564138,33.0451613 22.1251724,33.5483871 20.9655172,33.5483871 C18.7942759,33.5483871 17.0344828,31.8154839 17.0344828,29.6774194 C17.0344828,27.5393548 18.7942759,25.8064516 20.9655172,25.8064516 C22.1251724,25.8064516 23.1564138,26.3096774 23.8757931,27.0967742 L24.8965517,27.0967742 L24.8965517,19.3548387 L35.3793104,19.3548387 L35.3793104,18.3496774 C34.58,17.6412903 34.0689655,16.6258064 34.0689655,15.483871 C34.0689655,13.3458064 35.8287586,11.6129032 38,11.6129032 C40.1712412,11.6129032 41.9310344,13.3458064 41.9310344,15.483871 C41.9310344,16.6258064 41.42,17.6412903 40.6206896,18.3496774 L40.6206896,19.3548387 L51.1034484,19.3548387 L51.1034484,27.0967742 L52.1242068,27.0967742 C52.8435864,26.3096774 53.8748276,25.8064516 55.0344828,25.8064516 C57.205724,25.8064516 58.9655172,27.5393548 58.9655172,29.6774194 C58.9655172,31.8154839 57.205724,33.5483871 55.0344828,33.5483871 C53.8748276,33.5483871 52.8435864,33.0451613 52.1242068,32.2580645 L51.1034484,32.2580645 L51.1034484,40 L76,40 L76,0 L0,0 L0,40 L24.8965517,40 L24.8965517,32.2580645 Z" id="Shape" fill="#66CEDB"></path>
            <g id="Group" fill="#010133">
                <path d="M74.6666668,62.6666668 C73.7253332,62.6666668 72.8053332,62.9226668 72,63.3933332 L72,57.3333332 C72,56.596 71.4026668,56 70.6666668,56 L61.94,56 C62.4106668,55.1946668 62.6666668,54.2746668 62.6666668,53.3333332 C62.6666668,50.392 60.2746668,48 57.3333332,48 C54.392,48 52,50.392 52,53.3333332 C52,54.2746668 52.256,55.1946668 52.7266668,56 L44,56 C43.264,56 42.6666668,56.596 42.6666668,57.3333332 L42.6666668,63.3933332 C41.8613332,62.9226668 40.9413332,62.6666668 40,62.6666668 C37.0586667,62.6666668 34.6666667,65.0586668 34.6666667,68 C34.6666667,70.9413332 37.0586667,73.3333332 40,73.3333332 C40.9413332,73.3333332 41.8613332,73.0773332 42.6666668,72.6066668 L42.6666668,78.6666668 C42.6666668,79.404 43.264,80 44,80 L70.6666668,80 C71.4026668,80 72,79.404 72,78.6666668 L72,72.6066668 C72.8053332,73.0773332 73.7253332,73.3333332 74.6666668,73.3333332 C77.608,73.3333332 80,70.9413332 80,68 C80,65.0586668 77.608,62.6666668 74.6666668,62.6666668 Z M74.6666668,70.6666668 C73.9146668,70.6666668 73.2133332,70.3506668 72.6946668,69.7733332 C72.4426668,69.4933332 72.0826668,69.3333332 71.704,69.3333332 L70.6666668,69.3333332 C69.9306668,69.3333332 69.3333332,69.9293332 69.3333332,70.6666668 L69.3333332,77.3333332 L45.3333332,77.3333332 L45.3333332,70.6666668 C45.3333332,69.9293332 44.736,69.3333332 44,69.3333332 L42.9626668,69.3333332 C42.5853332,69.3333332 42.2253332,69.4933332 41.972,69.7733332 C41.4533332,70.3506668 40.752,70.6666668 40,70.6666668 C38.5293333,70.6666668 37.3333333,69.4706668 37.3333333,68 C37.3333333,66.5293332 38.5293333,65.3333332 40,65.3333332 C40.752,65.3333332 41.4533332,65.6493332 41.972,66.2266668 C42.224,66.5066668 42.584,66.6666668 42.9626668,66.6666668 L44,66.6666668 C44.736,66.6666668 45.3333332,66.0706668 45.3333332,65.3333332 L45.3333332,58.6666668 L54.6666668,58.6666668 C55.4026668,58.6666668 56,58.0706668 56,57.3333332 L56,56.296 C56,55.9186668 55.84,55.5586668 55.56,55.3066668 C54.984,54.7866668 54.6666668,54.0853332 54.6666668,53.3333332 C54.6666668,51.8626668 55.8626668,50.6666668 57.3333332,50.6666668 C58.804,50.6666668 60,51.8626668 60,53.3333332 C60,54.0853332 59.6826668,54.7866668 59.1066668,55.3053332 C58.8266668,55.5586668 58.6666668,55.9173332 58.6666668,56.296 L58.6666668,57.3333332 C58.6666668,58.0706668 59.264,58.6666668 60,58.6666668 L69.3333332,58.6666668 L69.3333332,65.3333332 C69.3333332,66.0706668 69.9306668,66.6666668 70.6666668,66.6666668 L71.704,66.6666668 C72.0813332,66.6666668 72.4413332,66.5066668 72.6946668,66.2266668 C73.2133332,65.6493332 73.9146668,65.3333332 74.6666668,65.3333332 C76.1373332,65.3333332 77.3333332,66.5293332 77.3333332,68 C77.3333332,69.4706668 76.1373332,70.6666668 74.6666668,70.6666668 Z" id="Shape"></path>
                <path d="M1.33333333,44 L26.6666667,44 C27.4026667,44 28,43.404 28,42.6666668 L28,34.6666667 C28,33.9293333 27.4026667,33.3333333 26.6666667,33.3333333 L25.6293333,33.3333333 C25.252,33.3333333 24.892,33.4933333 24.6386667,33.7733333 C24.12,34.3506667 23.4186667,34.6666667 22.6666667,34.6666667 C21.196,34.6666667 20,33.4706667 20,32 C20,30.5293333 21.196,29.3333333 22.6666667,29.3333333 C23.4186667,29.3333333 24.12,29.6493333 24.6386667,30.2266667 C24.8906667,30.5066667 25.2506667,30.6666667 25.6293333,30.6666667 L26.6666667,30.6666667 C27.4026667,30.6666667 28,30.0706667 28,29.3333333 L28,22.6666667 L37.3333333,22.6666667 C38.0693333,22.6666667 38.6666667,22.0706667 38.6666667,21.3333333 L38.6666667,20.296 C38.6666667,19.9186667 38.5066667,19.5586667 38.2266667,19.3066667 C37.6506667,18.7866667 37.3333333,18.0853333 37.3333333,17.3333333 C37.3333333,15.8626667 38.5293333,14.6666667 40,14.6666667 C41.4706668,14.6666667 42.6666668,15.8626667 42.6666668,17.3333333 C42.6666668,18.0853333 42.3493332,18.7866667 41.7733332,19.3053333 C41.4933332,19.5586667 41.3333332,19.9173333 41.3333332,20.296 L41.3333332,21.3333333 C41.3333332,22.0706667 41.9306668,22.6666667 42.6666668,22.6666667 L52,22.6666667 L52,29.3333333 C52,30.0706667 52.5973332,30.6666667 53.3333332,30.6666667 L54.3706668,30.6666667 C54.748,30.6666667 55.108,30.5066667 55.3613332,30.2266667 C55.88,29.6493333 56.5813332,29.3333333 57.3333332,29.3333333 C58.804,29.3333333 60,30.5293333 60,32 C60,33.4706667 58.804,34.6666667 57.3333332,34.6666667 C56.5813332,34.6666667 55.88,34.3506667 55.3613332,33.7733333 C55.1093332,33.4933333 54.7493332,33.3333333 54.3706668,33.3333333 L53.3333332,33.3333333 C52.5973332,33.3333333 52,33.9293333 52,34.6666667 L52,42.6666668 C52,43.404 52.5973332,44 53.3333332,44 L78.6666668,44 C79.4026668,44 80,43.404 80,42.6666668 L80,1.33333333 C80,0.596 79.4026668,0 78.6666668,0 L1.33333333,0 C0.597333332,0 0,0.596 0,1.33333333 L0,42.6666668 C0,43.404 0.597333332,44 1.33333333,44 Z M2.66666667,2.66666667 L77.3333332,2.66666667 L77.3333332,41.3333332 L54.6666668,41.3333332 L54.6666668,36.6066667 C55.472,37.0773333 56.392,37.3333333 57.3333332,37.3333333 C60.2746668,37.3333333 62.6666668,34.9413333 62.6666668,32 C62.6666668,29.0586667 60.2746668,26.6666667 57.3333332,26.6666667 C56.392,26.6666667 55.472,26.9226667 54.6666668,27.3933333 L54.6666668,21.3333333 C54.6666668,20.596 54.0693332,20 53.3333332,20 L44.6066668,20 C45.0773332,19.1946667 45.3333332,18.2746667 45.3333332,17.3333333 C45.3333332,14.392 42.9413332,12 40,12 C37.0586667,12 34.6666667,14.392 34.6666667,17.3333333 C34.6666667,18.2746667 34.9226667,19.1946667 35.3933333,20 L26.6666667,20 C25.9306667,20 25.3333333,20.596 25.3333333,21.3333333 L25.3333333,27.3933333 C24.528,26.9226667 23.608,26.6666667 22.6666667,26.6666667 C19.7253333,26.6666667 17.3333333,29.0586667 17.3333333,32 C17.3333333,34.9413333 19.7253333,37.3333333 22.6666667,37.3333333 C23.608,37.3333333 24.528,37.0773333 25.3333333,36.6066667 L25.3333333,41.3333332 L2.66666667,41.3333332 L2.66666667,2.66666667 Z" id="Shape"></path>
                <path d="M40,31.2186667 L43.0573332,34.276 L44.9426668,32.3906667 L39.6093333,27.0573333 C39.088,26.536 38.2453333,26.536 37.724,27.0573333 L32.3906667,32.3906667 L34.276,34.276 L37.3333333,31.2186667 L37.3333333,44 L40,44 L40,31.2186667 Z" id="Shape"></path>
                <rect id="Rectangle-path" x="37.3333333" y="46.6666668" width="4" height="4"></rect>
                <rect id="Rectangle-path" x="37.3333333" y="52" width="4" height="4"></rect>
                <rect id="Rectangle-path" x="37.3333333" y="57.3333332" width="4" height="4"></rect>
                <rect id="Rectangle-path" x="8" y="46.6666668" width="4" height="4"></rect>
                <rect id="Rectangle-path" x="8" y="52" width="4" height="4"></rect>
                <rect id="Rectangle-path" x="8" y="57.3333332" width="4" height="4"></rect>
                <rect id="Rectangle-path" x="8" y="62.6666668" width="4" height="4"></rect>
                <rect id="Rectangle-path" x="8" y="68" width="4" height="4"></rect>
                <rect id="Rectangle-path" x="13.3333333" y="68" width="4" height="4"></rect>
                <rect id="Rectangle-path" x="18.6666667" y="68" width="4" height="4"></rect>
                <rect id="Rectangle-path" x="24" y="68" width="4" height="4"></rect>
                <rect id="Rectangle-path" x="29.3333333" y="68" width="4" height="4"></rect>
            </g>
        </g>
    </g>
</svg>