<?xml version="1.0" encoding="UTF-8"?>
<svg width="80px" height="64px" viewBox="0 0 80 64" version="1.1" xmlns="http://www.w3.org/2000/svg" xmlns:xlink="http://www.w3.org/1999/xlink">
    <!-- Generator: Sketch 46.1 (44463) - http://www.bohemiancoding.com/sketch -->
    <title>worker</title>
    <desc>Created with Sketch.</desc>
    <defs></defs>
    <g id="Page-1" stroke="none" stroke-width="1" fill="none" fill-rule="evenodd">
        <g id="worker" fill-rule="nonzero" fill="#96A5C3">
            <path d="M40.6671607,41.2242536 L32.6808657,39.4301092 L32.6808657,36.8793624 C35.7671816,34.6279493 37.7872856,30.9707267 37.7872856,26.8385839 L37.7872856,21.3355631 C37.9986896,21.1239298 38.197777,20.8978038 38.368371,20.6449216 L39.8296329,20.6449216 L40.8509903,20.6449216 L42.8935214,20.6449216 L42.8935214,18.5806153 L40.8509903,18.5806153 L40.8509903,16.516123 C40.8509903,9.13032849 35.5739767,2.75197492 28.4619755,1.35118234 C28.1737306,0.564664896 27.4301398,0 26.5530885,0 L24.5105574,0 C23.6333224,0 22.8897315,0.564664896 22.6018543,1.35118234 C15.4896693,2.75197492 10.2128395,9.13032849 10.2128395,16.516123 L10.2128395,18.5806153 L8.17012452,18.5806153 L8.17012452,20.6451074 L10.2126557,20.6451074 L11.2340131,20.6451074 L12.6954588,20.6451074 C12.8669718,20.8979895 13.0651402,21.1250446 13.2765443,21.3366779 L13.2765443,26.8385839 C13.2765443,30.9707267 15.2966482,34.6279493 18.382964,36.8793624 L18.382964,39.4301092 L10.3966691,41.2242536 C4.2751421,42.599219 0,47.9855536 0,54.3235873 L0,64 L51.0638297,64 L51.0638297,54.3235873 C51.0636459,47.9855536 46.7886877,42.599219 40.6671607,41.2242536 Z M10.2124718,61.9355079 L2.0423473,61.9355079 L2.0423473,54.3235873 C2.0423473,49.1808446 5.37278889,44.7876438 10.2124718,43.4085907 L10.2124718,61.9355079 Z M33.174816,41.6556954 L29.360351,46.7973232 L26.575332,43.98236 L31.7920494,41.3459565 L33.174816,41.6556954 Z M25.5315473,39.2257225 C27.3555049,39.2257225 29.0814814,38.8097026 30.637967,38.0850586 L30.637967,39.6200031 L25.5315473,42.2006649 L20.4251275,39.6200031 L20.4251275,38.0850586 C21.9817969,38.8097026 23.7075896,39.2257225 25.5315473,39.2257225 Z M22.577221,36.7173395 C22.7426678,36.3724833 23.0847748,36.1288913 23.4892,36.1288913 L27.5742623,36.1288913 C27.9786875,36.1288913 28.3207944,36.3726691 28.486241,36.7173395 C27.550732,37.0032951 26.559155,37.1612304 25.5317311,37.1612304 C24.5043071,37.1612304 23.5127301,37.0032951 22.577221,36.7173395 Z M14.1894423,19.1514117 L13.9076314,18.5806153 L12.2551868,18.5806153 L12.2551868,16.516123 C12.2551868,10.2968195 16.5700361,4.8898605 22.4680263,3.47568988 L22.4680263,8.25815443 L24.5105574,8.25815443 L24.5105574,2.06449216 L26.5530885,2.06449216 L26.5530885,8.25796862 L28.5956197,8.25796862 L28.5956197,3.47568988 C34.4934261,4.8898605 38.8084591,10.2968195 38.8084591,16.516123 L38.8084591,18.5806153 L37.1560146,18.5806153 L36.8742037,19.1514117 C36.4177546,20.0722669 35.5015478,20.6451074 34.4823962,20.6451074 L16.5814335,20.6451074 C15.5609952,20.6451074 14.6449721,20.0731959 14.1894423,19.1514117 Z M15.3188916,26.8385839 L15.3188916,22.5319689 C15.7233168,22.6454964 16.146125,22.7095995 16.5812497,22.7095995 L34.4811094,22.7095995 C34.9162343,22.7095995 35.3390424,22.6445674 35.7434677,22.5319689 L35.7434677,26.8385839 C35.7434677,30.7590936 33.5702336,34.1747681 30.3776642,35.9213459 C29.9037515,34.8302922 28.8274289,34.0643992 27.5742623,34.0643992 L23.4892,34.0643992 C22.2360332,34.0643992 21.1597108,34.8302922 20.6857979,35.9213459 C17.4923094,34.1749539 15.3188916,30.7590936 15.3188916,26.8385839 Z M19.2714127,41.3450275 L24.4881303,43.981431 L21.7031111,46.7963942 L17.8886461,41.6547664 L19.2714127,41.3450275 Z M24.5105574,61.9353221 L12.2551868,61.9353221 L12.2551868,59.8708298 L24.5105574,59.8708298 L24.5105574,61.9353221 Z M24.5105574,57.8063377 L12.2551868,57.8063377 L12.2551868,42.921221 L15.6999704,42.1480816 L24.5105574,54.0210947 L24.5105574,57.8063377 Z M22.94102,48.4645618 L25.531915,45.846739 L28.1228099,48.4654909 L25.531915,51.9566026 L22.94102,48.4645618 Z M26.5529047,54.0210947 L35.3634917,42.1469668 L38.8082753,42.921221 L38.8082753,57.8063377 L26.5529047,57.8063377 L26.5529047,54.0210947 Z M38.8084591,61.9353221 L26.5530885,61.9353221 L26.5530885,59.8708298 L38.8084591,59.8708298 L38.8084591,61.9353221 Z M49.0211148,61.9353221 L40.8509903,61.9353221 L40.8509903,43.4084048 C45.6906732,44.7874581 49.0211148,49.1817735 49.0211148,54.3235873 L49.0211148,61.9353221 Z M15.3188916,16.516123 L35.7443868,16.516123 L35.7443868,18.5806153 L15.3188916,18.5806153 L15.3188916,16.516123 Z" id="Combined-Shape"></path>
            <path d="M79.0805784,25.389329 C79.6108311,25.4754474 80,25.9288355 80,26.4605264 L80,30.8026316 C80,31.3343223 79.6108311,31.7877104 79.0805054,31.873829 L74.9705718,32.5412829 C74.6764096,33.5508947 74.2681517,34.5238881 73.751137,35.4475264 L76.1327393,38.7467302 C76.4444548,39.1785526 76.3950132,39.7700198 76.0157913,40.1452501 L72.912899,43.215625 C72.5337501,43.5908553 71.9359176,43.6398486 71.4995014,43.3314145 L68.1651263,40.9748816 C67.2318085,41.486454 66.2484642,41.8904145 65.2279654,42.1814803 L64.5533377,46.2481514 C64.4663031,46.7728223 64.0080918,47.1578947 63.4707447,47.1578947 L59.0824468,47.1578947 C58.5450997,47.1578947 58.0868883,46.7728223 57.9998537,46.2481514 L57.3252261,42.1814803 C56.3048005,41.8904145 55.321383,41.486454 54.3880652,40.9748816 L51.0536901,43.3314145 C50.6172739,43.6398486 50.0195146,43.5908553 49.6402925,43.215625 L46.5373271,40.1452501 C46.1581783,39.7700198 46.1086635,39.1785526 46.420379,38.7467302 L48.8019814,35.4475264 C48.2849668,34.5238881 47.8766357,33.5508947 47.5825466,32.5412829 L43.472613,31.873829 C42.9423603,31.7877104 42.5531915,31.3343223 42.5531915,30.8026316 L42.5531915,26.4605264 C42.5531915,25.9288355 42.9423603,25.4754474 43.472613,25.3892566 L47.5825466,24.7218026 C47.8766357,23.712046 48.2849668,22.7390526 48.8020544,21.8154145 L46.420379,18.5162828 C46.1087367,18.0845329 46.1581783,17.4929934 46.5374003,17.1177632 L49.6402925,14.0475329 C50.0195146,13.6722303 50.6173471,13.6233816 51.0536901,13.9317434 L54.3880652,16.2882763 C55.321383,15.7767039 56.3047275,15.3727434 57.3252261,15.0816776 L57.9998537,11.0150066 C58.0868883,10.4903355 58.5450997,10.1052632 59.0824468,10.1052632 L63.4707447,10.1052632 C64.0080918,10.1052632 64.4663031,10.4903355 64.5533377,11.0150066 L65.2279654,15.0816776 C66.2484642,15.3727434 67.2318085,15.7767039 68.1651263,16.2882763 L71.4995014,13.9317434 C71.9359176,13.6233816 72.5336769,13.6723026 72.912899,14.0475329 L76.0157913,17.1178355 C76.3950132,17.4930659 76.444528,18.0845329 76.1328125,18.5163553 L73.751137,21.8154868 C74.2682247,22.7391249 74.6765558,23.7121908 74.9706449,24.721875 L79.0805784,25.389329 Z M77.8058511,29.8807303 L77.8058511,27.3824277 L73.9112367,26.7499276 C73.4725532,26.6787171 73.1206849,26.3525526 73.0201929,25.9241316 C72.722593,24.6552237 72.2156715,23.446671 71.5134708,22.3321251 C71.2788431,21.9596447 71.2939096,21.4840394 71.5517221,21.1269013 L73.8070878,18.0026842 L72.0184906,16.2329145 L68.860891,18.464467 C68.4999534,18.7195658 68.0193617,18.7344737 67.642919,18.5023158 C66.5167353,17.8077238 65.295399,17.3061381 64.0128457,17.0115987 C63.5797939,16.9121645 63.2502327,16.564 63.1782647,16.1300066 L62.5390358,12.2763158 L60.0141557,12.2763158 L59.3749268,16.1300066 C59.3028856,16.564 58.9733245,16.9121645 58.5403457,17.0115987 C57.2577925,17.3061381 56.0364562,17.8076513 54.9102725,18.5023158 C54.533903,18.734546 54.0532381,18.7195658 53.6923005,18.464467 L50.5347009,16.2329145 L48.7461037,18.0026842 L51.0014694,21.1269013 C51.2592087,21.4840394 51.2743483,21.9596447 51.0397207,22.3321251 C50.33752,23.446671 49.8305984,24.6552237 49.5329986,25.9241316 C49.4325066,26.352625 49.0806383,26.6787171 48.6419548,26.7499276 L44.7473403,27.3824277 L44.7473403,29.8807303 L48.6419548,30.5132302 C49.0806383,30.5844407 49.4325066,30.9106053 49.5329986,31.3390263 C49.8305984,32.6078618 50.3374468,33.8163421 51.0395744,34.9309606 C51.2742021,35.3033685 51.2591357,35.7789738 51.0013231,36.1361119 L48.7460306,39.260329 L50.5348471,41.0302435 L53.6923737,38.7986908 C54.0533111,38.5435921 54.533976,38.5286843 54.9103457,38.760842 C56.0365292,39.4554342 57.2578657,39.9570197 58.540419,40.2515593 C58.9734708,40.3509935 59.303032,40.699158 59.375,41.1331513 L60.0142287,44.9867698 L62.539109,44.9867698 L63.1783377,41.1331513 C63.250379,40.699158 63.5799402,40.3509935 64.012919,40.2515593 C65.295472,39.9570197 66.5168085,39.4555065 67.642992,38.760842 C68.0193617,38.5286118 68.5000266,38.5435921 68.8609642,38.7986908 L72.0184906,41.0302435 L73.8071609,39.260329 L71.5518683,36.1361119 C71.294129,35.7789738 71.2789894,35.3033685 71.513617,34.9309606 C72.2156715,33.8163421 72.722593,32.6078618 73.0201929,31.3390263 C73.1206849,30.9105328 73.4725532,30.5844407 73.9112367,30.5132302 L77.8058511,29.8807303 Z M61.2765958,18.8618422 C66.7209376,18.8618422 71.1502659,23.2445461 71.1502659,28.631579 C71.1502659,34.0186119 66.7209376,38.4013158 61.2765958,38.4013158 C55.8322539,38.4013158 51.4029256,34.0186119 51.4029256,28.631579 C51.4029256,23.2445461 55.8322539,18.8618422 61.2765958,18.8618422 Z M61.2765958,36.2302632 C65.5110838,36.2302632 68.956117,32.8214934 68.956117,28.631579 C68.956117,24.4416645 65.5110838,21.0328948 61.2765958,21.0328948 C57.0421077,21.0328948 53.5970744,24.4416645 53.5970744,28.631579 C53.5970744,32.8214934 57.0421077,36.2302632 61.2765958,36.2302632 Z M64.2464494,30.0350921 C64.6748936,30.4590263 64.6748936,31.1463092 64.2464494,31.5702435 C63.8180054,31.9941776 63.123411,31.9941776 62.6949668,31.5702435 L60.5008177,29.3991908 C60.3048803,29.2052435 60.1805452,28.9306776 60.1796675,28.6347632 C60.1796675,28.6336777 60.1795212,28.6326644 60.1795212,28.631579 L60.1795212,24.2894737 C60.1795212,23.6899736 60.6707181,23.2039474 61.2765958,23.2039474 C61.8824734,23.2039474 62.3736703,23.6899736 62.3736703,24.2894737 L62.3736703,28.1819539 L64.2464494,30.0350921 Z" id="Combined-Shape"></path>
        </g>
    </g>
</svg>