<?xml version="1.0" standalone="no"?>
<!DOCTYPE svg PUBLIC "-//W3C//DTD SVG 1.1//EN" "http://www.w3.org/Graphics/SVG/1.1/DTD/svg11.dtd" >
<svg xmlns="http://www.w3.org/2000/svg">
<metadata>Generated by IcoMoon</metadata>
<defs>
<font id="facilio-icon" horiz-adv-x="1024">
<font-face units-per-em="1024" ascent="960" descent="-64" />
<missing-glyph horiz-adv-x="1024" />
<glyph unicode="&#x20;" horiz-adv-x="512" d="" />
<glyph unicode="&#xe900;" glyph-name="dot" horiz-adv-x="205" d="M102.4 345.6c-56.554 0-102.4 45.846-102.4 102.4s45.846 102.4 102.4 102.4c56.554 0 102.4-45.846 102.4-102.4s-45.846-102.4-102.4-102.4zM102.4-64c-56.554 0-102.4 45.846-102.4 102.4s45.846 102.4 102.4 102.4c56.554 0 102.4-45.846 102.4-102.4s-45.846-102.4-102.4-102.4zM102.4 755.2c-56.554 0-102.4 45.846-102.4 102.4s45.846 102.4 102.4 102.4c56.554 0 102.4-45.846 102.4-102.4s-45.846-102.4-102.4-102.4z" />
<glyph unicode="&#xe901;" glyph-name="add" d="M36.2 411.559c-20.169 0-36.2 16.543-36.2 36.702s16.031 36.181 36.2 36.181h439.062v438.857c0.033 20.158 16.585 36.702 36.754 36.702s36.2-16.543 36.2-36.702v-438.857h439.062c20.169 0 36.722-16.022 36.722-36.181s-16.552-36.702-36.722-36.702h-439.062v-438.857c0-20.158-16.031-36.702-36.2-36.702s-36.722 16.543-36.722 36.702v438.857h-439.095z" />
<glyph unicode="&#xe902;" glyph-name="arrow-back" horiz-adv-x="1256" d="M485.861 719.58c11.514 11.734 29.642 11.734 41.156 0 11.125-11.338 11.125-30.207 0-41.518l-208.685-212.666h688.632c16.053 0 29.227-13.003 29.227-29.362s-13.174-29.784-29.227-29.784h-688.632l208.685-212.27c11.125-11.734 11.125-30.63 0-41.941-11.514-11.734-29.642-11.734-41.156 0l-258.088 263.012c-11.125 11.338-11.125 30.207 0 41.518l258.088 263.012z" />
<glyph unicode="&#xe903;" glyph-name="arrow-down" horiz-adv-x="1638" d="M14.848 828.198l9.216-11.206 696.32-835.102c23.552-28.281 58.88-45.891 98.304-45.891s74.752 18.143 98.304 45.891l707.584 847.375c8.704 13.34 13.824 29.348 13.824 46.424 0 46.424-37.888 84.311-84.992 84.311v0h-1468.416c-47.104 0-84.992-37.886-84.992-84.311 0-17.609 5.632-34.151 14.848-47.491z" />
<glyph unicode="&#xe904;" glyph-name="arrow-lineD" horiz-adv-x="1943" d="M1923.094 940.213c-26.779 26.383-70.296 26.383-97.075 0l-853.593-842.615-855.266 842.615c-26.779 26.383-70.296 26.383-97.075 0s-26.779-69.256 0-95.639l902.13-888.786c13.39-13.192 30.127-19.787 48.538-19.787 16.737 0 35.148 6.596 48.538 19.787l902.13 888.786c28.453 26.383 28.453 69.256 1.674 95.639z" />
<glyph unicode="&#xe905;" glyph-name="arrow-lineL" horiz-adv-x="614" d="M22.070 397.466l462.7-440.166c29.433-28.014 77.154-28.014 106.573 0 29.421 27.989 29.421 73.385 0 101.373l-409.418 389.479 409.406 389.466c29.421 28.001 29.421 73.392 0 101.382-29.421 28.001-77.14 28.001-106.573 0l-462.7-440.172c-14.711-14.001-22.058-32.333-22.058-50.673 0-18.349 7.361-36.694 22.070-50.689z" />
<glyph unicode="&#xe906;" glyph-name="arrow-lineR" horiz-adv-x="614" d="M591.34 397.466l-462.7-440.166c-29.433-28.014-77.154-28.014-106.573 0-29.421 27.989-29.421 73.385 0 101.373l409.418 389.479-409.406 389.466c-29.421 28.001-29.421 73.392 0 101.382 29.421 28.001 77.14 28.001 106.573 0l462.7-440.172c14.711-14.001 22.058-32.333 22.058-50.673 0-18.349-7.361-36.694-22.070-50.689z" />
<glyph unicode="&#xe907;" glyph-name="arrow-right" horiz-adv-x="640" d="M82.376-54.72l7.004 5.76 521.939 435.2c17.676 14.72 28.682 36.8 28.682 61.44s-11.339 46.72-28.682 61.44l-529.609 442.24c-8.338 5.44-18.343 8.64-29.015 8.64-29.015 0-52.694-23.68-52.694-53.12v0-917.76c0-29.44 23.679-53.12 52.694-53.12 11.006 0 21.344 3.52 29.682 9.28z" />
<glyph unicode="&#xe908;" glyph-name="attach" horiz-adv-x="898" d="M623.137 660.721l-40.637 42.47-337.851-353.061c-41.805-43.686-41.805-114.77 0-158.46 20.227-21.142 47.151-32.782 75.816-32.782s55.59 11.642 75.818 32.782l453.737 474.187c64.302 67.204 64.302 176.544 0 243.744s-168.931 67.2-233.235 0l-551.682-576.535c-86.804-90.714-86.804-238.316 0-329.031 43.403-45.356 100.414-68.034 157.426-68.034s114.023 22.676 157.422 68.034l435.783 455.415-40.637 42.47-435.783-455.415c-64.397-67.294-169.179-67.294-233.572 0-64.395 67.298-64.395 176.798 0 244.094l551.679 576.531c41.895 43.78 110.066 43.78 151.96 0 41.895-43.782 41.893-115.022 0-158.806l-453.74-474.187c-9.374-9.796-21.867-15.192-35.177-15.192s-25.805 5.396-35.175 15.192c-19.396 20.272-19.396 53.256 0 73.526l337.849 353.059z" />
<glyph unicode="&#xe909;" glyph-name="baocaocv" horiz-adv-x="836" d="M826.594 758.72l-192.904 192c-6.066 5.99-14.281 9.328-22.827 9.28h-514.411c-53.27 0-96.452-42.98-96.452-96v-832c0-53.020 43.182-96 96.452-96h643.014c53.27 0 96.452 42.98 96.452 96v704c0.050 8.506-3.305 16.68-9.324 22.72zM771.616 32c0-17.674-14.393-32-32.151-32h-643.014c-17.757 0-32.151 14.326-32.151 32v832c0 17.674 14.393 32 32.151 32h482.26v-128c0-35.346 28.789-64 64.301-64h128.603v-672zM504.581 468.48l39.811 39.014-44.199 43.315-40.438-38.4c-9.802 5.676-20.348 10.017-31.347 12.902v66.048h-62.694v-65.741c-10.999-2.886-21.545-7.227-31.347-12.902l-39.811 39.014-44.199-43.315 39.184-39.936c-5.791-9.606-10.221-19.941-13.166-30.72h-67.396v-61.44h67.082c2.945-10.779 7.374-21.112 13.166-30.72l-39.811-39.014 44.199-43.315 40.751 38.4c9.802-5.676 20.348-10.017 31.347-12.902v-66.048h62.694v65.741c10.999 2.886 21.545 7.227 31.347 12.902l39.811-39.014 44.199 43.315-39.184 39.936c5.791 9.608 10.221 19.941 13.166 30.72h67.396v61.44h-67.082c-3.045 10.794-7.578 21.13-13.479 30.72zM397.061 345.6c-34.625 0-62.694 27.508-62.694 61.44s28.069 61.44 62.694 61.44c34.625 0 62.694-27.508 62.694-61.44s-28.069-61.44-62.694-61.44z" />
<glyph unicode="&#xe90a;" glyph-name="baotriboitron" horiz-adv-x="839" d="M737.612 619.24c-48.944 87.506-97.058 160.29-99.077 163.35l-24.671 37.242-24.691-37.242c-1.663-2.52-34.332-51.942-73.021-117.946-0.812 1.44-1.604 2.88-2.415 4.32-76.030 135.988-153.131 252.614-153.903 253.774l-24.667 37.262-24.691-37.262c-0.772-1.16-77.871-117.786-153.903-253.774-103.888-185.792-156.574-318.5-156.574-394.404 0-186.692 150.357-338.56 335.168-338.56 135.568 0 252.584 81.724 305.31 198.972 111.827 13.32 198.867 109.686 198.867 226.174 0 51.242-33.283 135.666-101.732 258.094zM335.168-3.996c-152.062 0-275.768 124.968-275.768 278.556 0 120.728 180.69 428.186 275.768 576.834 40.173-62.844 95.692-154.088 146.378-247.594-62.666-114.126-93.158-193.592-93.158-242.654 0-112.126 80.603-205.592 186.374-224.334-47.52-84.046-137.132-140.808-239.595-140.808zM662.275 200.656c-15.324-4.74-31.58-7.28-48.409-7.28-4.95 0-9.86 0.22-14.69 0.66-84.723 7.54-151.387 79.604-151.387 167.11 0 38.242 29.898 107.686 67.2 179.090 11.028 21.122 22.711 42.422 34.471 63.124 22.592 39.802 45.42 77.404 64.349 107.466 18.612-29.602 45.42-73.444 72.090-121.108 81.811-146.348 94.048-206.032 94.048-228.574-0.002-75.504-49.641-139.508-117.672-160.488z" />
<glyph unicode="&#xe90b;" glyph-name="baotridinhky" horiz-adv-x="931" d="M737.004 825.4c120.016-87.323 191.817-228.463 191.817-377.142 0-256.942-208.307-465.93-464.411-465.93v-40.416c0-4.398-4.801-6.91-8.349-4.398l-109.163 75.177c-3.131 2.094-3.131 6.701 0 8.795l109.163 75.177c3.548 2.513 8.349 0 8.349-4.398v-40.416c217.908 0 395.115 177.787 395.115 396.407 0 126.482-60.947 246.681-163.222 321.021l40.701 56.121zM738.257 496.003c10.019-1.675 17.324-10.47 17.324-20.522v-54.027c0-10.052-7.305-18.847-17.324-20.522l-54.268-9.214c-5.218-20.312-13.358-39.997-24.212-58.634l31.935-44.604c5.844-8.376 4.801-19.894-2.296-27.013l-38.405-38.531c-7.305-7.329-18.576-8.167-26.925-2.303l-44.667 31.83c-17.95-10.68-37.153-18.637-56.982-23.872l-9.184-54.655c-1.67-10.052-10.436-17.381-20.455-17.381h-53.851c-10.019 0-18.785 7.329-20.455 17.381l-8.975 53.818c-20.038 5.235-39.866 12.983-58.443 23.872l-45.084-32.249c-8.349-5.863-19.829-4.816-26.925 2.303l-38.405 38.531c-7.305 7.329-8.14 18.637-2.296 26.804l31.309 44.604c-11.062 18.428-19.203 38.112-24.629 58.425l-54.477 9.214c-10.019 1.675-17.324 10.47-17.324 20.522v54.027c0 10.052 7.305 18.847 17.324 20.522l53.851 8.586c5.218 20.103 12.941 39.997 23.795 58.634l-32.143 45.232c-5.844 8.376-4.801 19.894 2.296 27.013l38.405 38.531c7.305 7.329 18.576 8.167 26.925 2.303l44.458-31.62c18.785 11.517 38.823 19.894 59.695 25.129l9.184 54.446c1.67 10.052 10.436 17.381 20.455 17.381h53.851c10.019 0 18.785-7.329 20.455-17.381l9.184-54.446c20.246-5.235 39.866-13.402 58.443-24.291l44.667 32.039c8.14 5.863 19.411 4.816 26.717-1.675l38.405-38.531c7.305-7.329 8.14-18.637 2.296-27.013l-31.726-44.813c10.854-18.428 18.994-38.112 24.212-58.634l54.268-9.214zM594.45 321.251c70.579 71.109 70.579 186.137-0.298 257.246-70.877 70.81-185.53 70.81-256.407-0.299s-70.579-186.436 0.298-257.246c70.877-70.81 185.53-70.81 256.407 0.299zM581.923 884.034c3.131-2.303 3.131-6.91 0-9.004l-109.163-75.177c-3.548-2.513-8.349 0-8.349 4.398v40.416c-217.908 0-395.115-177.787-395.115-396.407 0-126.482 61.156-246.472 163.222-321.021l-40.701-56.121c-120.016 87.323-191.817 228.463-191.817 377.142 0 256.942 208.307 465.93 464.411 465.93v40.416c0 4.398 4.801 6.91 8.349 4.398l109.163-74.968z" />
<glyph unicode="&#xe90c;" glyph-name="baotrisuachua" d="M980.082 191.355c-91.648 91.648-85.638 85.842-88.218 87.746l-242.594 179.112 94.11 94.102c75.664-26.962 161.33-8.322 218.984 49.332 62.812 62.812 79.3 158.842 41.028 238.956-8.92 18.666-33.658 22.894-48.268 8.28l-77.582-77.582c-11.692-11.692-30.714-11.694-42.414 0-11.722 11.722-11.722 30.69 0 42.412l77.584 77.584c14.628 14.626 10.374 39.358-8.28 48.266-80.114 38.272-176.142 21.784-238.956-41.026-57.668-57.668-76.286-143.338-49.332-218.982l-108.536-108.526c-22.098 17.188 7.062-12.17-201.068 208.522l21.818 21.818c13.8 13.798 10.924 36.902-5.776 46.922l-160.628 96.378c-42.106 25.264-95.76 18.66-130.482-16.062-34.72-34.72-41.326-88.378-16.062-130.482l96.378-160.63c10.036-16.732 33.15-19.548 46.922-5.776l20.576 20.576c207.052-219.55 179.8-189.728 196.168-210.774 0.388-0.498 0.82-0.938 1.232-1.406l-96.242-96.234c-75.64 26.954-161.316 8.336-218.98-49.332-62.812-62.812-79.3-158.84-41.026-238.956 8.922-18.668 33.654-22.892 48.268-8.28l77.582 77.584c11.698 11.694 30.72 11.69 42.414 0 11.722-11.722 11.722-30.69 0-42.412l-77.586-77.584c-14.628-14.626-10.372-39.358 8.28-48.268 28.796-13.756 59.64-20.438 90.268-20.438 54.58 0.002 108.452 21.23 148.688 61.464 57.668 57.668 76.286 143.338 49.332 218.984l82.192 82.186 191.368-232.56c1.456-1.764-3.348 3.152 82.242-82.438 31.158-31.158 72.582-47.31 113.316-47.31 29.888 0 59.406 8.704 84.2 26.558 75.662 54.494 84.582 162.78 19.080 228.276zM201.736 715.913c-11.626 12.326-31.116 12.542-43.026 0.63l-15.254-15.252-76.614 127.694c-11.076 18.46-8.182 41.986 7.042 57.21 15.224 15.226 38.75 18.118 57.208 7.042l127.694-76.616-15.254-15.25c-11.47-11.47-11.742-29.982-0.612-41.782 239.144-253.578 201.526-215.42 221.942-231.3l-45.514-45.51c-15.73 20.228 20.794-19.662-217.612 233.134zM351.11 244.897c-8.988-8.988-11.334-22.664-5.854-34.134 27.338-57.224 15.554-125.818-29.316-170.688-28.748-28.748-67.228-43.916-106.224-43.912-7.014 0-14.042 0.49-21.036 1.482l42.432 42.432c35.162 35.16 35.168 92.074 0 127.238-35.078 35.080-92.16 35.078-127.238 0l-42.432-42.432c-6.496 45.87 8.516 93.34 42.432 127.256 44.872 44.874 113.464 56.652 170.688 29.318 11.468-5.478 25.142-3.136 34.134 5.854l364.020 363.994c8.988 8.988 11.334 22.664 5.856 34.134-27.338 57.222-15.554 125.818 29.316 170.688 33.922 33.92 81.388 48.93 127.256 42.432l-42.432-42.432c-16.994-16.992-26.354-39.588-26.354-63.62s9.36-46.624 26.354-63.62c35.078-35.080 92.16-35.078 127.238 0l42.432 42.432c6.496-45.87-8.516-93.34-42.432-127.256-44.872-44.872-113.466-56.654-170.69-29.318-11.464 5.478-25.142 3.134-34.132-5.854l-364.018-363.994zM532.362 341.313l74.018 74.012 75.438-55.696-90.13-90.13c-61.28 74.468-57.456 69.98-59.326 71.814zM925.946 11.749c-34.98-25.192-86.592-18.966-120.052 14.494l-79.262 79.26-96.656 117.462 100.636 100.636 123.82-91.418 83.236-83.238c38.046-38.046 35.602-103.112-11.722-137.196zM843.542 111.6l-119.962 119.962c-11.71 11.712-30.7 11.712-42.412 0s-11.712-30.7 0-42.412l119.962-119.962c11.71-11.71 30.7-11.712 42.412 0s11.712 30.7 0 42.412z" />
<glyph unicode="&#xe90d;" glyph-name="buildings" horiz-adv-x="1280" d="M1257.93-20.005h-53.613c1.25 4.71 2.118 9.552 2.118 14.627v716.72c0 32.179-26.482 58.507-58.85 58.507h-103.945c0.545 2.983 0.94 6.010 0.94 9.141v20.537c0 32.179-26.467 58.507-58.85 58.507h-176.553c-32.353 0-58.85-26.328-58.85-58.507v-20.537c0-3.129 0.398-6.159 0.94-9.141h-148.052c-5.105 0-9.99-0.862-14.713-2.093v133.736c0 32.179-26.482 58.507-58.85 58.507h-397.238c-32.368 0-58.85-26.328-58.85-58.507v-906.869c0-5.075 0.867-9.917 2.117-14.627h-53.612c-12.197 0-22.070-9.815-22.070-21.941s9.873-21.941 22.070-21.941h1235.86c12.197 0 22.070 9.815 22.070 21.941 0 12.124-9.873 21.939-22.070 21.939zM537.49 702.854v-693.614c0-7.671-6.52-14.155-14.238-14.155h-384.434c-7.715 0-14.238 6.482-14.238 14.155v877.635c0 7.671 6.52 14.155 14.238 14.155h384.436c7.715 0 14.238-6.482 14.238-14.155v-184.021h-0.002zM794.467 799.528c0 7.926 6.753 14.627 14.713 14.627h176.553c7.99 0 14.712-6.698 14.712-14.627v-20.537c0-3.482-1.458-6.596-3.575-9.141h-198.812c-2.118 2.545-3.59 5.662-3.59 9.141v20.537zM1149.624 10.449c0-7.576-6.44-13.981-14.063-13.981h-520.32c-7.62 0-14.063 6.402-14.063 13.981v685.062c0 7.576 6.44 13.981 14.063 13.981h520.32c7.62 0 14.063-6.402 14.063-13.981v-685.062zM960 384h128v-96h-128v96zM320 640h128v-96h-128v96zM320 256h128v-96h-128v96zM768 384h128v-96h-128v96zM960 576h128v-96h-128v96zM320 832h128v-96h-128v96zM320 448h128v-96h-128v96zM768 576h128v-96h-128v96z" />
<glyph unicode="&#xe90e;" glyph-name="calendar" d="M938.688 864h-138.688v64c0 17.696-14.304 32-32 32s-32-14.304-32-32v-64h-192v64c0 17.696-14.336 32-32 32s-32-14.304-32-32v-64h-192v64c0 17.696-14.336 32-32 32s-32-14.304-32-32v-64h-138.656c-47.136 0-85.344-38.176-85.344-85.312v-757.344c0-47.136 38.208-85.344 85.344-85.344h853.344c47.136 0 85.312 38.208 85.312 85.344v757.344c0 47.136-38.176 85.312-85.312 85.312zM960 21.344c0-11.776-9.568-21.344-21.312-21.344h-853.344c-11.775 0-21.344 9.568-21.344 21.344v757.344c0 11.744 9.568 21.312 21.344 21.312h138.656v-64c0-17.696 14.336-32 32-32s32 14.304 32 32v64h192v-64c0-17.696 14.336-32 32-32s32 14.304 32 32v64h192v-64c0-17.696 14.304-32 32-32s32 14.304 32 32v64h138.688c11.744 0 21.312-9.568 21.312-21.312v-757.344zM224 576v-96h128v96h-128zM224 416v-96h128v96h-128zM224 256v-96h128v96h-128zM448 256v-96h128v96h-128zM448 416v-96h128v96h-128zM448 576v-96h128v96h-128zM672 256v-96h128v96h-128zM672 416v-96h128v96h-128zM672 576v-96h128v96h-128z" />
<glyph unicode="&#xe90f;" glyph-name="capnhatdulieu" d="M1024 630c0 11.974-2.322 23.616-6.9 34.602-0.004 0.008-0.008 0.018-0.012 0.026l-100.010 239.992c-14.020 33.642-46.63 55.38-83.076 55.38h-644.004c-36.446 0-69.056-21.738-83.076-55.38l-100.022-240.016c-4.578-10.988-6.9-22.63-6.9-34.604v-124c0-23.034 8.708-44.064 22.99-60-14.282-15.936-22.99-36.966-22.99-60v-120c0-23.034 8.708-44.064 22.99-60-14.282-15.936-22.99-36.966-22.99-60v-120c0-49.626 40.374-90 90-90h844c49.626 0 90 40.374 90 90v120c0 23.034-8.708 44.064-22.99 60 14.284 15.936 22.99 36.966 22.99 60v120c0 23.034-8.708 44.064-22.99 60 14.284 15.936 22.99 36.966 22.99 60v124zM162.306 881.54c4.674 11.214 15.544 18.46 27.692 18.46h644.004c12.148 0 23.018-7.246 27.692-18.46l67.32-161.54h-834.028l67.32 161.54zM964 26c0-16.542-13.458-30-30-30h-844c-16.542 0-30 13.458-30 30v120c0 16.542 13.458 30 30 30h844c16.542 0 30-13.458 30-30v-120zM964 266c0-16.542-13.458-30-30-30h-844c-16.542 0-30 13.458-30 30v120c0 16.542 13.458 30 30 30h844c16.542 0 30-13.458 30-30v-120zM964 506c0-16.542-13.458-30-30-30h-844c-16.542 0-30 13.458-30 30v124c0 16.684 13.472 30 30 30h844c16.58 0 30-13.368 30-30v-124zM891.083 140.8c16.853 0 30.517-11.462 30.517-25.6s-13.663-25.6-30.517-25.6h-553.367c-16.853 0-30.517 11.462-30.517 25.6s13.663 25.6 30.517 25.6h553.367zM891.083 601.6h-553.367c-16.853 0-30.517-11.462-30.517-25.6s13.663-25.6 30.517-25.6h553.367c16.853 0 30.517 11.462 30.517 25.6s-13.663 25.6-30.517 25.6zM128 601.6c-14.138 0-25.6-10.746-25.6-24s11.462-27.2 25.6-27.2c14.138 0 25.6 13.946 25.6 27.2s-11.462 24-25.6 24zM891.083 345.6c16.853 0 30.517-11.462 30.517-25.6s-13.663-25.6-30.517-25.6h-553.367c-16.853 0-30.517 11.462-30.517 25.6s13.663 25.6 30.517 25.6h553.367zM128 294.4c-14.138 0-25.6 11.462-25.6 25.6s11.462 25.6 25.6 25.6c14.138 0 25.6-11.462 25.6-25.6s-11.462-25.6-25.6-25.6zM128 89.6c-14.138 0-25.6 11.462-25.6 25.6s11.462 25.6 25.6 25.6c14.138 0 25.6-11.462 25.6-25.6s-11.462-25.6-25.6-25.6z" />
<glyph unicode="&#xe910;" glyph-name="check" horiz-adv-x="1365" d="M477.864-64c-18.108 0-35.465 7.698-48.265 21.413l-409.605 438.879c-26.658 28.563-26.658 74.862 0 103.425s69.889 28.563 96.53 0l361.34-387.149 770.945 826.010c26.658 28.563 69.889 28.563 96.53 0 26.658-28.563 26.658-74.881 0-103.443l-819.21-877.722c-12.8-13.714-30.157-21.413-48.265-21.413z" />
<glyph unicode="&#xe911;" glyph-name="clock" d="M510.017 960c-281.223 0-510.017-228.794-510.017-510.017 0-281.228 228.79-510.026 510.013-510.026 281.228 0 510.017 228.799 510.017 510.026 0.005 281.223-228.785 510.017-510.013 510.017zM510.017 9.775c-242.725 0-440.194 197.478-440.194 440.208-0.005 242.725 197.469 440.199 440.194 440.199s440.199-197.474 440.199-440.199c0-242.735-197.474-440.208-440.199-440.208zM773.171 456.792h-242.274v264.667c0 19.279-15.625 34.909-34.909 34.909-19.279 0-34.909-15.63-34.909-34.909v-299.576c0-19.279 15.63-34.909 34.909-34.909h277.183c19.284 0 34.909 15.63 34.909 34.909s-15.63 34.909-34.909 34.909z" />
<glyph unicode="&#xe912;" glyph-name="close" d="M463.030 447.843l-453.266-456.432c-12.592-12.68-12.592-33.224 0-45.904 6.288-6.348 14.545-9.506 22.785-9.506 8.256 0 16.497 3.158 22.785 9.506l456.674 459.864 456.674-459.864c6.304-6.348 14.545-9.506 22.785-9.506s16.497 3.158 22.785 9.506c12.592 12.68 12.592 33.224 0 45.904l-453.25 456.432 453.554 456.755c12.592 12.68 12.592 33.224 0 45.904-12.593 12.664-32.993 12.664-45.57 0l-456.962-460.187-457.010 460.17c-12.593 12.664-32.977 12.664-45.57 0-12.592-12.68-12.592-33.224 0-45.904l453.586-456.738z" />
<glyph unicode="&#xe913;" glyph-name="CongViec" d="M533.582 334.58l-27.864 61.858c26.563 19.498 49.377 43.755 67.204 71.44l63.446-24.041c12.133-4.599 25.689 1.513 30.283 13.641l23.317 61.548c2.208 5.825 2.010 12.288-0.55 17.967s-7.267 10.108-13.096 12.316l-63.446 24.041c4.998 32.552 3.983 65.827-2.992 98.036l61.858 27.864c5.679 2.56 10.108 7.267 12.316 13.096 2.208 5.825 2.010 12.288-0.55 17.967l-27.033 60.007c-5.327 11.828-19.24 17.089-31.058 11.767l-61.858-27.864c-19.498 26.563-43.755 49.377-71.44 67.204l24.041 63.446c4.594 12.128-1.513 25.689-13.641 30.283l-61.543 23.322c-5.82 2.203-12.283 2.010-17.967-0.55-5.679-2.56-10.108-7.267-12.316-13.096l-24.036-63.441c-32.585 5.026-65.916 3.988-98.041-2.987l-27.859 61.853c-2.56 5.679-7.267 10.108-13.096 12.316-5.82 2.203-12.288 2.010-17.967-0.55l-60.012-27.033c-11.828-5.327-17.093-19.231-11.767-31.058l27.864-61.858c-26.563-19.498-49.377-43.755-67.204-71.44l-63.446 24.041c-5.82 2.203-12.283 2.006-17.967-0.55-5.679-2.56-10.108-7.267-12.316-13.096l-23.317-61.543c-4.594-12.128 1.513-25.689 13.641-30.283l63.446-24.041c-4.998-32.547-3.983-65.832 2.992-98.036l-61.863-27.864c-5.679-2.56-10.108-7.267-12.316-13.096-2.208-5.825-2.010-12.288 0.55-17.967l27.033-60.007c2.555-5.679 7.267-10.108 13.091-12.316 5.829-2.208 12.288-2.015 17.967 0.55l61.858 27.864c19.498-26.568 43.75-49.377 71.44-67.204l-24.041-63.446c-4.594-12.128 1.513-25.689 13.641-30.283l61.548-23.317c2.682-1.015 5.505-1.522 8.319-1.522 3.293 0 6.586 0.69 9.648 2.071 5.679 2.56 10.108 7.267 12.316 13.096l24.036 63.441c32.585-5.021 65.921-3.988 98.041 2.987l27.859-61.853c2.56-5.679 7.267-10.108 13.096-12.316 5.825-2.208 12.293-2.015 17.967 0.55l60.007 27.028c11.832 5.327 17.103 19.231 11.776 31.058zM494.66 557.835c-23.312-61.534-83.169-102.874-148.945-102.874-19.24 0-38.212 3.495-56.39 10.381-39.776 15.069-71.304 44.727-88.773 83.512-17.469 38.78-18.789 82.047-3.72 121.823 23.312 61.534 83.169 102.874 148.945 102.874 19.24 0 38.212-3.495 56.39-10.381 39.776-15.069 71.304-44.727 88.773-83.508 17.474-38.785 18.794-82.052 3.72-121.828zM1016.849 237.126c-4.209 4.589-10.076 7.318-16.295 7.586l-44.239 1.898c-4.073 20.879-11.428 41.035-21.762 59.641l32.622 29.94c9.559 8.77 10.193 23.627 1.423 33.181l-32.392 35.295c-4.209 4.589-10.076 7.318-16.299 7.586-6.21 0.23-12.297-1.954-16.887-6.163l-32.618-29.94c-17.657 11.889-37.108 20.94-57.56 26.784l1.898 44.239c0.554 12.96-9.503 23.914-22.462 24.468l-47.86 2.053c-12.894 0.489-23.914-9.503-24.468-22.458l-1.898-44.239c-20.875-4.073-41.030-11.428-59.641-21.758l-29.94 32.622c-4.209 4.589-10.076 7.318-16.295 7.586-6.219 0.254-12.297-1.954-16.887-6.163l-35.295-32.392c-9.559-8.77-10.193-23.627-1.423-33.181l29.94-32.622c-11.889-17.657-20.94-37.104-26.784-57.56l-44.234 1.898c-12.903 0.521-23.918-9.498-24.473-22.458l-2.053-47.86c-0.268-6.224 1.949-12.297 6.163-16.887 4.209-4.589 10.076-7.318 16.299-7.586l44.234-1.893c4.073-20.879 11.428-41.035 21.758-59.646l-32.618-29.94c-4.589-4.209-7.318-10.076-7.586-16.295-0.268-6.224 1.949-12.297 6.163-16.887l32.392-35.295c4.209-4.589 10.076-7.318 16.299-7.586 6.196-0.249 12.297 1.954 16.887 6.163l32.618 29.94c17.657-11.889 37.108-20.94 57.56-26.784l-1.898-44.239c-0.554-12.96 9.498-23.914 22.458-24.468l47.86-2.053c0.338-0.014 0.672-0.019 1.005-0.019 5.872 0 11.541 2.198 15.881 6.182 4.589 4.209 7.318 10.076 7.586 16.295l1.898 44.239c20.875 4.073 41.030 11.428 59.641 21.758l29.94-32.622c4.209-4.589 10.076-7.318 16.295-7.586 6.247-0.272 12.302 1.954 16.887 6.163l35.295 32.392c9.559 8.77 10.193 23.627 1.423 33.181l-29.94 32.622c11.889 17.657 20.94 37.104 26.784 57.56l44.234-1.898c12.946-0.498 23.914 9.498 24.473 22.458l2.053 47.86c0.268 6.224-1.949 12.297-6.163 16.887zM752.295 98.257c-60.331 2.583-107.313 53.774-104.725 114.106 2.518 58.781 50.538 104.828 109.319 104.828 1.588 0 3.185-0.033 4.786-0.103 60.331-2.588 107.313-53.774 104.725-114.106-2.588-60.374-53.281-107.28-114.106-104.725z" />
<glyph unicode="&#xe914;" glyph-name="congviectrongyeu" horiz-adv-x="1078" d="M1073.904 578.246c-9.331 26.393-33.281 45.717-62.116 49.912l-280.464 40.894-121.907 248.204c-12.834 26.062-40.288 42.744-70.47 42.744s-57.636-16.681-70.47-42.744l-121.907-248.204-280.497-40.894c-28.801-4.195-52.751-23.519-62.048-49.912-9.263-26.459-2.257-55.593 18.089-75.479l205.548-201.233-47.665-279.156c-4.851-28.11 7.579-56.32 31.934-72.77 13.373-9.018 29.104-13.609 44.835-13.609 12.935 0 25.904 3.105 37.66 9.282l244.521 129.090 244.555-129.090c11.756-6.177 24.725-9.282 37.626-9.282 15.731 0 31.462 4.591 44.869 13.609 24.354 16.45 36.717 44.66 31.9 72.77l-47.698 279.156 205.615 201.233c20.312 19.918 27.285 49.053 18.089 75.479zM794.552 353.429c-17.247-16.846-25.062-40.597-21.121-63.884l47.698-279.156-244.555 129.024c-11.722 6.21-24.658 9.282-37.66 9.282-12.935 0-25.904-3.105-37.626-9.282l-244.555-129.024 47.698 279.156c3.975 23.288-3.84 47.038-21.087 63.884l-205.548 201.233 280.464 40.96c25.635 3.733 47.698 19.456 58.713 41.885l121.974 248.138 121.941-248.171c11.049-22.429 33.079-38.119 58.68-41.885l280.531-40.96-205.548-201.199z" />
<glyph unicode="&#xe915;" glyph-name="danhmucthietbi" horiz-adv-x="683" d="M654.429 861.062h-227.302v12.368c0 47.734-39.219 86.57-87.424 86.57s-87.424-38.836-87.424-86.57v-12.368h-227.302c-13.793 0-24.978-11.074-24.978-24.734v-875.594c0-13.66 11.185-24.734 24.978-24.734h629.451c13.793 0 24.978 11.074 24.978 24.734v875.594c0 13.662-11.185 24.734-24.978 24.734zM302.236 873.43c0 20.458 16.808 37.102 37.468 37.102s37.468-16.644 37.468-37.102v-12.368h-74.934v12.368h-0.002zM214.812 811.594h249.783v-61.836h-249.783v61.836zM629.451-14.532h-579.495v826.126h114.9v-86.57c0-13.66 11.185-24.734 24.978-24.734h299.739c13.793 0 24.978 11.074 24.978 24.734v86.57h114.9v-826.126zM278.954 578.65l-95.365-94.434-41.037 40.636c-9.757 9.658-25.568 9.658-35.327 0-9.753-9.658-9.753-25.32 0-34.982l58.699-58.126c4.878-4.83 11.27-7.244 17.662-7.244s12.783 2.414 17.662 7.244l113.026 111.922c9.753 9.658 9.753 25.32 0 34.982s-25.566 9.662-35.321 0.002zM342.202 480.154c0-13.66 11.185-24.734 24.978-24.734h182.341c13.793 0 24.978 11.074 24.978 24.734s-11.185 24.734-24.978 24.734h-182.341c-13.793 0-24.978-11.072-24.978-24.734zM278.954 417.258l-95.365-94.432-41.037 40.636c-9.757 9.658-25.568 9.658-35.327 0-9.753-9.658-9.753-25.32 0-34.982l58.699-58.126c4.878-4.83 11.27-7.244 17.662-7.244s12.783 2.414 17.662 7.244l113.026 111.922c9.753 9.658 9.753 25.32 0 34.982-9.753 9.66-25.566 9.66-35.321 0zM549.52 344.116h-182.341c-13.793 0-24.978-11.074-24.978-24.734s11.185-24.734 24.978-24.734h182.341c13.793 0 24.978 11.074 24.978 24.734s-11.185 24.734-24.978 24.734zM278.954 255.866l-95.365-94.434-41.037 40.636c-9.757 9.658-25.568 9.658-35.327 0-9.753-9.658-9.753-25.32 0-34.982l58.699-58.126c4.878-4.83 11.27-7.244 17.662-7.244s12.783 2.414 17.662 7.244l113.026 111.922c9.753 9.658 9.753 25.32 0 34.982-9.753 9.664-25.566 9.664-35.321 0.002zM549.52 180.87h-182.341c-13.793 0-24.978-11.074-24.978-24.734s11.185-24.734 24.978-24.734h182.341c13.793 0 24.978 11.074 24.978 24.734s-11.185 24.734-24.978 24.734z" />
<glyph unicode="&#xe916;" glyph-name="delete" horiz-adv-x="819" d="M703.474 837.316h-157.688c-7.866 68.948-65.901 122.684-136.187 122.684-70.285 0-128.311-53.733-136.177-122.684h-157.697c-63.815 0-115.726-52.487-115.726-116.991v-6.003c0-49.293 30.364-91.484 73.139-108.675v-552.657c0-64.506 51.917-116.991 115.728-116.991h441.469c63.813 0 115.726 52.49 115.726 116.991v552.655c42.772 17.193 73.139 59.384 73.139 108.675v6.003c0 64.506-51.915 116.993-115.726 116.993zM409.599 904.518c39.975 0 73.342-28.963 80.726-67.201h-161.436c7.381 38.241 40.75 67.201 80.711 67.201zM691.173 52.991c0-33.915-27.298-61.511-60.839-61.511h-441.469c-33.541 0-60.839 27.598-60.839 61.511v544.341h563.148v-544.341zM764.312 714.323c0-33.915-27.298-61.511-60.84-61.511h-587.746c-33.541 0-60.839 27.596-60.839 61.511v6.003c0 33.915 27.298 61.511 60.839 61.511h587.748c33.541 0 60.839-27.596 60.839-61.511v-6.003h-0.002zM262.461 62.434c-15.157 0-27.445 12.419-27.443 27.738v312.348c0 15.317 12.289 27.742 27.443 27.742s27.443-12.426 27.443-27.742v-312.348c0-15.315-12.286-27.738-27.443-27.738zM409.599 62.434c-15.157 0-27.443 12.419-27.443 27.738v312.348c0 15.317 12.289 27.742 27.443 27.742s27.445-12.426 27.445-27.742v-312.348c0-15.315-12.289-27.738-27.445-27.738zM556.737 62.434c-15.155 0-27.447 12.419-27.445 27.738v312.348c0 15.317 12.286 27.742 27.445 27.742 15.153 0 27.441-12.426 27.441-27.742v-312.348c0-15.315-12.286-27.738-27.441-27.738z" />
<glyph unicode="&#xe917;" glyph-name="edit" d="M969.421 907.314c-33.866 33.866-79.052 52.686-127.114 52.686-48.106 0-93.292-18.82-127.16-52.686l-659.91-659.912c-3.369-3.727-5.839-8.355-6.692-12.981l-47.658-268.465c-1.707-7.951 0.853-15.9 6.692-21.335 4.626-4.626 10.87-7.096 17.159-7.096 1.257 0 2.919 0 4.178 0.404l268.061 47.702c5.030 0.853 9.612 3.323 12.981 6.648l659.464 660.362c34.316 33.868 52.686 79.053 52.686 127.159s-18.371 93.196-52.688 127.514zM86.006 165.607l142.251-142.655-173.423-31.083 31.172 173.737zM283.459 34.812c-1.034 1.976-2.022 3.953-3.638 5.57l-176.072 176.477c-1.707 1.707-3.773 2.785-5.749 3.863l598.51 599.319c1.123-2.066 2.201-4.222 3.998-5.975l176.029-176.477c1.617-1.618 3.594-2.606 5.57-3.727l-598.648-599.050zM935.105 686.909l-20.392-20.436c-1.078 2.022-2.156 4.042-3.863 5.75l-176.028 176.072c-1.797 1.797-3.907 2.875-6.019 3.998l20.618 20.661c24.703 24.66 57.718 38.448 92.841 38.448s68.184-13.79 92.797-38.448c25.108-25.108 38.448-58.121 38.448-93.246 0.092-35.083-13.292-68.096-38.402-92.8z" />
<glyph unicode="&#xe918;" d="M882.909-64h-850.838c-16.693 0-30.224 13.32-30.224 29.752v480.416c0 16.432 13.531 29.752 30.224 29.752s30.224-13.32 30.224-29.752v-450.664h790.392v65.666c0 16.432 13.533 29.752 30.224 29.752s30.224-13.32 30.224-29.752v-95.418c-0.002-16.432-13.535-29.752-30.226-29.752z" />
<glyph unicode="&#xe919;" d="M32.071 605.756v9.58l316.538 314.912v-324.492z" />
<glyph unicode="&#xe91a;" d="M390.408 521.13h601.521v-327.3h-601.521v327.3z" />
<glyph unicode="&#xe91b;" d="M991.929 550.882h-78.795v379.366c0 16.432-13.533 29.752-30.224 29.752h-534.3c-0.372 0-0.738-0.042-1.109-0.054-0.339-0.012-0.675-0.026-1.012-0.050-1.306-0.092-2.605-0.236-3.879-0.49-0.026-0.006-0.055-0.014-0.085-0.020-1.254-0.252-2.479-0.61-3.688-1.018-0.315-0.108-0.628-0.218-0.941-0.334-1.189-0.444-2.355-0.938-3.476-1.524-0.039-0.020-0.085-0.036-0.124-0.060-1.154-0.61-2.251-1.32-3.322-2.080-0.274-0.196-0.545-0.392-0.813-0.598-1.061-0.804-2.089-1.654-3.042-2.6l-316.534-314.908c-0.711-0.706-1.378-1.442-2.007-2.208-0.421-0.508-0.788-1.042-1.17-1.568-0.187-0.262-0.396-0.512-0.575-0.776-0.435-0.648-0.823-1.32-1.203-1.996-0.093-0.166-0.203-0.324-0.291-0.49-0.372-0.694-0.695-1.402-1.006-2.112-0.075-0.172-0.167-0.336-0.236-0.512-0.284-0.682-0.52-1.378-0.75-2.076-0.073-0.224-0.163-0.438-0.23-0.66-0.193-0.642-0.345-1.292-0.492-1.942-0.067-0.294-0.154-0.586-0.215-0.884-0.118-0.6-0.193-1.208-0.272-1.814-0.049-0.354-0.116-0.702-0.15-1.060-0.057-0.606-0.069-1.214-0.091-1.824-0.012-0.334-0.049-0.664-0.049-0.996v-9.584c0-16.432 13.531-29.752 30.224-29.752h316.538c16.693 0 30.224 13.32 30.224 29.752v294.734h473.854v-349.614h-462.277c-16.693 0-30.224-13.32-30.224-29.752v-327.288c0-16.432 13.531-29.752 30.224-29.752h601.517c16.691 0 30.224 13.32 30.224 29.752v327.288c0 16.432-13.533 29.752-30.224 29.752zM94.864 635.508l223.521 222.372v-222.372h-223.521zM961.705 223.594h-541.068v267.784h541.070v-267.784h-0.002z" />
<glyph unicode="&#xe91c;" d="M511.374 332.25l-32.656-54.604c-1.566-2.422-4.697-3.522-8.275-3.522-9.618 0-23.263 7.486-23.263 16.952 0 1.982 0.67 3.962 2.015 6.164l38.697 58.786-37.13 58.566c-1.566 2.422-2.237 4.624-2.237 6.826 0 9.246 12.749 16.296 22.593 16.296 4.921 0 8.275-1.762 10.512-5.724l29.749-51.080 29.747 51.080c2.237 3.962 5.595 5.724 10.514 5.724 9.842 0 22.593-7.046 22.593-16.296 0-2.202-0.675-4.404-2.237-6.826l-37.13-58.566 38.697-58.786c1.341-2.202 2.013-4.184 2.013-6.164 0-9.468-13.643-16.952-23.261-16.952-3.578 0-6.934 1.1-8.275 3.522l-32.664 54.604zM604.637 275.446c-7.607 0-15.212 3.522-15.212 10.568v140.034c0 7.266 8.726 10.348 17.445 10.348 8.726 0 17.445-3.082 17.445-10.348v-120.658h50.997c6.713 0 10.067-7.488 10.067-14.974s-3.354-14.972-10.067-14.972l-70.674 0.002zM766.566 318.6c0 26.642-70.906 22.020-70.906 73.54 0 33.028 29.302 45.576 57.259 45.576 11.857 0 44.514-2.202 44.514-19.378 0-5.944-4.025-18.054-13.871-18.054-8.052 0-12.302 8.366-30.645 8.366-15.88 0-22.365-6.384-22.365-13.21 0-22.020 70.906-17.836 70.906-73.32 0-31.706-23.487-48.88-55.92-48.88-29.3 0-53.904 14.090-53.904 28.624 0 7.488 6.713 18.496 15.21 18.496 10.514 0 17.221-16.296 38.024-16.296 10.293 0.002 21.699 3.966 21.699 14.536zM872.58 332.25l-32.656-54.604c-1.569-2.422-4.699-3.522-8.275-3.522-9.62 0-23.261 7.486-23.261 16.952 0 1.982 0.67 3.962 2.013 6.164l38.697 58.786-37.13 58.566c-1.566 2.422-2.237 4.624-2.237 6.826 0 9.246 12.751 16.296 22.593 16.296 4.921 0 8.275-1.762 10.514-5.724l29.749-51.080 29.749 51.080c2.233 3.962 5.591 5.724 10.512 5.724 9.844 0 22.593-7.046 22.593-16.296 0-2.202-0.67-4.404-2.237-6.826l-37.128-58.566 38.697-58.786c1.341-2.202 2.013-4.184 2.013-6.164 0-9.468-13.647-16.952-23.261-16.952-3.582 0-6.936 1.1-8.275 3.522l-32.668 54.604z" />
<glyph unicode="&#xe91d;" horiz-adv-x="1202" d="M767.747 69.565h-739.859c-14.516 0-26.282 11.583-26.282 25.871v417.753c0 14.289 11.766 25.871 26.282 25.871s26.282-11.583 26.282-25.871v-391.882h687.297v57.101c0 14.289 11.768 25.871 26.282 25.871s26.282-11.583 26.282-25.871v-82.972c-0.002-14.289-11.77-25.871-26.284-25.871z" />
<glyph unicode="&#xe91e;" horiz-adv-x="1202" d="M27.888 651.962v8.33l275.25 273.837v-282.167z" />
<glyph unicode="&#xe91f;" horiz-adv-x="1202" d="M339.485 578.374h523.062v-284.609h-523.062v284.609z" />
<glyph unicode="&#xe920;" horiz-adv-x="1202" d="M862.547 604.245h-68.518v329.883c0 14.289-11.768 25.871-26.282 25.871h-464.609c-0.323 0-0.641-0.037-0.965-0.047-0.295-0.010-0.587-0.023-0.88-0.043-1.136-0.080-2.265-0.205-3.373-0.426-0.023-0.005-0.048-0.012-0.074-0.017-1.090-0.219-2.155-0.53-3.207-0.885-0.274-0.094-0.546-0.19-0.818-0.29-1.034-0.386-2.048-0.816-3.023-1.325-0.034-0.017-0.074-0.031-0.108-0.052-1.004-0.53-1.958-1.148-2.889-1.809-0.239-0.17-0.473-0.341-0.707-0.52-0.922-0.699-1.816-1.438-2.645-2.261l-275.247-273.833c-0.618-0.614-1.198-1.254-1.746-1.92-0.366-0.442-0.685-0.906-1.018-1.363-0.163-0.228-0.345-0.445-0.5-0.675-0.378-0.563-0.716-1.148-1.046-1.736-0.081-0.144-0.177-0.282-0.253-0.426-0.323-0.603-0.604-1.219-0.875-1.837-0.065-0.15-0.145-0.292-0.205-0.445-0.247-0.593-0.452-1.198-0.652-1.805-0.064-0.195-0.141-0.381-0.2-0.574-0.168-0.558-0.3-1.123-0.428-1.689-0.058-0.256-0.134-0.51-0.187-0.769-0.102-0.522-0.168-1.050-0.237-1.577-0.042-0.308-0.101-0.61-0.131-0.922-0.049-0.527-0.060-1.056-0.080-1.586-0.011-0.29-0.042-0.577-0.042-0.866v-8.334c0-14.289 11.766-25.871 26.282-25.871h275.25c14.516 0 26.282 11.583 26.282 25.871v256.29h412.047v-304.012h-401.98c-14.516 0-26.282-11.583-26.282-25.871v-284.598c0-14.289 11.766-25.871 26.282-25.871h523.058c14.514 0 26.282 11.583 26.282 25.871v284.598c0 14.289-11.768 25.871-26.282 25.871zM82.491 677.833l194.366 193.367v-193.367h-194.366zM836.265 319.647h-470.494v232.856h470.496v-232.856h-0.002z" />
<glyph unicode="&#xe921;" horiz-adv-x="1202" d="M444.673 414.13l-28.397-47.482c-1.362-2.106-4.085-3.063-7.196-3.063-8.364 0-20.229 6.51-20.229 14.741 0 1.723 0.583 3.445 1.753 5.36l33.649 51.118-32.287 50.927c-1.362 2.106-1.945 4.021-1.945 5.936 0 8.040 11.086 14.17 19.646 14.17 4.279 0 7.196-1.532 9.141-4.977l25.869-44.417 25.867 44.417c1.945 3.445 4.866 4.977 9.143 4.977 8.558 0 19.646-6.127 19.646-14.17 0-1.915-0.587-3.83-1.945-5.936l-32.287-50.927 33.649-51.118c1.166-1.915 1.751-3.638 1.751-5.36 0-8.233-11.864-14.741-20.227-14.741-3.111 0-6.030 0.957-7.196 3.063l-28.404 47.482zM525.772 364.736c-6.615 0-13.228 3.063-13.228 9.19v121.769c0 6.318 7.588 8.998 15.169 8.998 7.588 0 15.169-2.68 15.169-8.998v-104.92h44.345c5.837 0 8.754-6.511 8.754-13.021s-2.917-13.019-8.754-13.019l-61.456 0.002zM666.579 402.261c0 23.167-61.657 19.148-61.657 63.948 0 28.72 25.48 39.631 49.79 39.631 10.311 0 38.707-1.915 38.707-16.85 0-5.169-3.5-15.699-12.062-15.699-7.002 0-10.698 7.275-26.648 7.275-13.809 0-19.448-5.551-19.448-11.487 0-19.148 61.657-15.51 61.657-63.757 0-27.57-20.423-42.504-48.626-42.504-25.478 0-46.873 12.252-46.873 24.89 0 6.511 5.837 16.083 13.226 16.083 9.143 0 14.975-14.17 33.064-14.17 8.95 0.002 18.869 3.449 18.869 12.64zM758.765 414.13l-28.397-47.482c-1.364-2.106-4.086-3.063-7.196-3.063-8.365 0-20.227 6.51-20.227 14.741 0 1.723 0.583 3.445 1.751 5.36l33.649 51.118-32.287 50.927c-1.362 2.106-1.945 4.021-1.945 5.936 0 8.040 11.088 14.17 19.646 14.17 4.279 0 7.196-1.532 9.143-4.977l25.869-44.417 25.869 44.417c1.942 3.445 4.862 4.977 9.141 4.977 8.56 0 19.646-6.127 19.646-14.17 0-1.915-0.583-3.83-1.945-5.936l-32.285-50.927 33.649-51.118c1.166-1.915 1.751-3.638 1.751-5.36 0-8.233-11.867-14.741-20.227-14.741-3.115 0-6.032 0.957-7.196 3.063l-28.407 47.482z" />
<glyph unicode="&#xe922;" horiz-adv-x="1202" d="M1007.056-57.058c4.662-4.512 10.937-6.942 17.033-6.942s12.372 2.256 17.033 6.942l153.837 148.904c9.503 9.198 9.503 23.95 0 33.148s-24.743 9.198-34.246 0l-112.419-108.988v475.348c0 13.016-10.758 23.429-24.205 23.429s-24.205-10.413-24.205-23.429v-475.348l-112.599 108.988c-9.503 9.198-24.743 9.198-34.246 0s-9.503-23.95 0-33.148l154.016-148.904z" />
<glyph unicode="&#xe923;" glyph-name="eye" horiz-adv-x="1388" d="M1136.254 520.921c-68.913 55.539-139.208 99.863-208.929 131.741-88.233 40.339-175.854 60.794-260.424 60.794-84.599 0-172.237-20.454-260.476-60.794-69.73-31.878-140.022-76.202-208.926-131.741-116.785-94.134-188.61-187.086-191.612-190.999-8.071-10.52-7.817-25.151 0.612-35.394 3.005-3.647 74.92-90.367 191.78-178.133 156.118-117.251 318.166-179.229 468.623-179.229 150.406 0 312.433 61.978 468.574 179.229 116.871 87.764 188.818 174.48 191.823 178.13 8.438 10.243 8.692 24.879 0.615 35.402-3.002 3.91-74.859 96.86-191.659 190.993zM666.901-5.626c-173.588 0-331.092 90.701-432.653 166.789-81.501 61.062-141.145 122.837-167.699 152.093 61.693 72.95 309.766 342.991 600.352 342.991 173.092 0 330.405-97.274 431.891-178.877 82.197-66.091 142.193-132.968 168.453-164.083-62.744-68.948-310.297-318.913-600.343-318.913zM666.081 628.736c-168.265 0-305.158-135.626-305.158-302.335s136.893-302.332 305.158-302.332c168.239 0 305.112 135.626 305.112 302.335s-136.873 302.332-305.112 302.332zM666.081 81.276c-136.431 0-247.426 109.963-247.426 245.128s110.994 245.128 247.426 245.128c136.405 0 247.379-109.963 247.379-245.128s-110.974-245.128-247.379-245.128zM652.898 420.195c-47.329 0-85.834-38.174-85.834-85.098 0-46.921 38.505-85.098 85.834-85.098 47.352 0 85.88 38.174 85.88 85.098s-38.528 85.098-85.88 85.098zM652.898 307.209c-15.495 0-28.101 12.511-28.101 27.891 0 15.377 12.606 27.891 28.101 27.891 15.519 0 28.148-12.511 28.148-27.891s-12.629-27.891-28.148-27.891zM1356.727 786.738c-0.095 0-0.191 0-0.289-0.003l-146.555-1.413-1.481 145.193c-0.159 15.698-13.051 28.314-28.858 28.314-0.098 0-0.196 0-0.297 0-15.94-0.16-28.734-13.095-28.569-28.892l1.481-145.173-146.532-1.413c-15.94-0.154-28.739-13.083-28.584-28.881 0.156-15.703 13.048-28.326 28.861-28.326 0.095 0 0.191 0 0.289 0.003l146.555 1.413 1.481-145.193c0.159-15.698 13.053-28.314 28.858-28.314 0.098 0 0.196 0 0.3 0.003 15.94 0.16 28.734 13.095 28.569 28.892l-1.481 145.171 146.532 1.413c15.94 0.154 28.739 13.083 28.584 28.881-0.159 15.703-13.053 28.326-28.864 28.326z" />
<glyph unicode="&#xe924;" glyph-name="eye2" horiz-adv-x="1707" d="M1702.57 468.977c-2.069 5.085-52.131 125.87-182.573 245.848-119.168 109.615-331.57 240.283-666.663 240.283-336.995 0-549.311-130.703-668.088-240.353-130.080-120.089-179.263-241.038-181.292-246.129-5.223-13.107-5.275-27.759-0.138-40.901 1.994-5.097 50.281-126.209 180.016-246.415 118.369-109.679 330.605-240.418 669.502-240.418 331.294 0 543.852 130.592 663.824 240.148 131.149 119.755 182.981 240.225 185.119 245.292 5.752 13.587 5.85 28.97 0.293 42.645zM260.304 258.724c-83.385 76.11-128.598 153.266-146.819 189.089 18.48 35.846 64.261 113.12 148.049 189.346 61.986 56.39 131.827 101.435 209.144 135.010-71.979-87.953-115.347-200.997-115.347-324.169 0-123.641 43.701-237.071 116.174-325.17-78.311 33.657-148.859 78.983-211.201 135.894zM853.333 50.536c-215.23 0-390.327 178.305-390.327 397.464s175.097 397.464 390.327 397.464c215.23 0 390.327-178.305 390.327-397.464s-175.097-397.464-390.327-397.464zM1239.77 128.518c69.709 87.268 111.565 198.48 111.565 319.482 0 122.669-43.006 235.298-114.456 323.098 76.294-33.488 145.429-78.204 207.018-134.056 83.558-75.77 129.845-152.57 148.825-188.714-31.323-58.163-134.97-221.459-352.952-319.81zM853.333 683.737c-127.649 0-231.503-105.753-231.503-235.737s103.854-235.737 231.503-235.737c127.649 0 231.503 105.753 231.503 235.737s-103.854 235.737-231.503 235.737zM853.333 321.908c-68.284 0-123.828 56.56-123.828 126.092s55.55 126.092 123.828 126.092c68.278 0 123.828-56.56 123.828-126.092s-55.544-126.092-123.828-126.092z" />
<glyph unicode="&#xe925;" glyph-name="factory" horiz-adv-x="1064" d="M115.641 168.727h323.794v-23.273h-323.794v23.273zM508.82 168.727h23.128v-93.091h-23.128v93.091zM624.461 168.727h23.128v-93.091h-23.128v93.091zM716.973 168.727h23.128v-93.091h-23.128v93.091zM809.486 168.727h23.128v-93.091h-23.128v93.091zM925.127 168.727h23.128v-93.091h-23.128v93.091zM1046.924-30.562v505.616l-234.128-120.27-32.727 605.216h-163.672l-33.615-552.586-102.89-52.854-32.571 451.733h-163.023l-33.75-398.759-233.577-119.986v-318.107h-16.97v-33.44h1063.896v33.44l-16.972-0.002zM649.897 936.727h111.283l2.050-23.273h-115.641l2.308 23.273zM649.738 866.909h111.581l1.911-23.273h-115.641l2.149 23.273zM646.309 797.091h116.043l24.006-454.288-65.516-34.439v171.864l-96.381-50.663 21.848 367.527zM303.813 773.818h109.812l2.682-23.273h-115.641l3.147 23.273zM303.533 704h110.334l2.441-23.273h-115.641l2.866 23.273zM295.208 634.182h122.992l21.235-292.324-65.693-33.494v167.629l-96.204-49.050 17.67 207.24zM115.639-17.455h-69.382v23.273h69.385v-23.273h-0.002zM416.307-17.455h-277.538v116.364h277.538v-116.364zM994.512-17.455h-555.076v23.273h555.076v-23.273zM1017.638 52.364h-569.72v82.981h-334.017v-82.981h-67.644v222.65l301.946 149.714v-165.961l334.717 165.961v-165.961l334.72 165.961v-372.364h-0.002z" />
<glyph unicode="&#xe926;" glyph-name="file" horiz-adv-x="834" d="M829.72 622.675c0 8.381-3.467 16.388-9.571 22.071l-318.701 296.888c-4.49 10.795-15.024 18.367-27.321 18.367-0.652 0-1.26-1.050-1.912-1.095-0.681 0.060-1.363-0.69-2.059-0.69h-327.887c-89.076 0-142.267-42.192-142.267-115.87v-752.498c0-82.39 63.829-151.195 142.282-151.195h543.422c78.068 0 144.015 70.215 144.015 151.195v532.827zM503.759 857.954l228.469-214.603h-228.469v214.603zM685.689-1.373h-543.407c-45.012 0-83.017 42.747-83.017 91.221v752.498c0 15.788 0 55.896 83.017 55.896h302.211v-283.094c0-16.553 13.275-31.771 29.633-31.771h296.328v-493.528c0-48.474-38.834-91.221-84.765-91.221z" />
<glyph unicode="&#xe927;" glyph-name="File3" d="M997.684 89.655l-180.026 180.013c16.905 35.252 26.384 74.71 26.384 116.346 0 64.142-22.499 123.122-60.002 169.491v250.499c0 16.568-13.433 30-30.002 30h-30.002v93.996c0 16.568-13.433 30-30.002 30h-664.032c-16.569 0-30.002-13.432-30.002-30v-843.981c0-16.568 13.433-30 30.002-30h90.004v-30c0-16.568 13.433-30 30.002-30h604.028c16.569 0 30.002 13.432 30.002 30v22.73l86.37-86.364c35.18-35.18 92.092-35.182 127.276 0 35.088 35.088 35.088 92.182 0 127.27zM784.038 386.014c0-115.752-94.214-209.995-210.010-209.995-115.8 0-210.010 94.204-210.010 209.995s94.21 209.995 210.010 209.995c115.8 0 210.010-94.206 210.010-209.995zM129.029 647.453c-5.548-5.426-9.023-13.244-9.023-21.446v-509.988h-60.002v783.983h604.028v-63.998h-330.016c-7.731 0-15.397-3.096-20.979-8.554l-184.008-179.997zM304.014 734.689v-78.682h-80.435l80.435 78.682zM724.034 56.021h-544.024v539.988h154.006c16.569 0 30.002 13.432 30.002 30v149.995h360.016v-165.607c-42.935 28.792-94.54 45.612-150.008 45.612-148.886 0-270.012-121.12-270.012-269.993s121.128-269.993 270.012-269.993c41.639 0 81.099 9.48 116.354 26.382l33.654-33.652v-52.732zM955.253 4.815c-11.733-11.73-30.686-11.732-42.421 0l-170.361 170.349c15.657 12.528 29.89 26.76 42.421 42.416l170.361-170.349c11.695-11.694 11.695-30.722 0-42.416z" />
<glyph unicode="&#xe928;" glyph-name="File4" horiz-adv-x="853" d="M728.137 960h-453.325c-69.043 0-125.213-55.959-125.213-124.728v-24.312h-24.403c-69.027 0-125.196-55.943-125.196-124.728v-625.504c0-68.769 56.169-124.728 125.196-124.728h453.341c69.027 0 125.196 55.959 125.196 124.728v24.312h24.403c69.027 0 125.196 55.943 125.196 124.728v625.504c0 68.769-56.169 124.728-125.196 124.728zM571.816-19.335h-439.897c-49.427 0-89.657 40.063-89.657 89.321v606.97c0 49.243 40.213 89.321 89.657 89.321h303.009v-139.721c0-66.729 54.504-121.029 121.484-121.029h105.061v-435.525c-0.016-49.258-40.229-89.337-89.657-89.337zM478.451 727.88l153.097-176.217h-75.017c-43.045 0-78.080 34.89-78.080 77.788v98.429zM810.377 219.724c0-49.132-40.123-89.121-89.456-89.121h-23.626v395.192c0 3.796-1.381 7.482-3.874 10.345l-226.036 260.166c-3.001 3.48-7.399 5.473-12.004 5.473h-262.825v23.538c0 49.148 40.139 89.121 89.471 89.121h438.894c49.316 0 89.456-39.973 89.456-89.121v-605.592z" />
<glyph unicode="&#xe929;" glyph-name="File-plus" d="M768 510.112v271.2l-178.752 178.688h-589.248v-1024h768v1.888c143.968 16 255.936 137.888 256 286.112-0.064 148.288-112.032 270.208-256 286.112zM575.936 882.784l114.816-114.784h-114.816c0 0 0 114.784 0 114.784zM64 0v896.064h448v-192.032h192v-193.92c-144.032-15.936-256-137.856-256-286.112 0-90.528 41.856-171.264 107.2-224h-491.2zM736 3.744c-121.632 0.288-220.032 98.688-220.32 220.256 0.288 121.632 98.688 220.032 220.32 220.32 121.568-0.288 219.968-98.688 220.256-220.32-0.288-121.568-98.688-219.968-220.256-220.256zM768.064 256v128h-64.064v-128h-128v-64h128v-128h64.064v128h127.936v64z" />
<glyph unicode="&#xe92a;" d="M1024 448c0-282.77-229.23-512-512-512s-512 229.23-512 512c0 282.77 229.23 512 512 512s512-229.23 512-512z" />
<glyph unicode="&#xe92b;" d="M744.452 665.002l-350.624-387.536-110.56 122.192c-11.84 13.12-32.096 14.096-45.184 2.272-13.088-11.856-14.128-32.096-2.256-45.2l128.768-142.304c5.888-8.576 15.664-13.6 26.032-13.6 1.168 0 2.336 0.48 3.52 0.624 0.816-0.064 1.6-0.512 2.4-0.512 9.472 0 18.656 4.256 24.88 11.6l370.464 409.52c11.872 13.12 10.848 33.36-2.256 45.216-13.088 11.856-33.328 10.88-45.184-2.272z" />
<glyph unicode="&#xe92c;" glyph-name="foward" horiz-adv-x="1223" d="M1210.304 517.21l-539.936 433.006c-10.022 8.046-24.053 9.752-35.829 4.389s-19.292-17.067-19.292-29.745v-228.206c-262.076-9.265-442.222-99.23-535.928-267.703-80.677-145.31-79.926-317.44-79.174-431.299 0-9.265 0-18.042 0-26.331 0-14.872 10.273-28.038 25.306-31.939 2.756-0.731 5.763-0.975 8.519-0.975 12.026 0 23.301 6.095 29.314 16.579 182.902 313.783 333.483 328.899 551.712 329.63v-227.474c0-12.678 7.517-24.381 19.543-29.745s25.807-3.657 36.079 4.389l539.686 434.469c7.767 6.339 12.277 15.604 12.277 25.356s-4.51 19.261-12.277 25.6zM682.895 127.115v190.415c0 8.777-3.508 17.067-10.022 23.162-6.264 6.095-15.033 9.752-23.802 9.752-136.3 0-240.779-3.657-342.252-49.737-87.693-39.741-163.609-107.276-238.524-213.333 3.007 96.792 16.035 212.358 70.405 310.126 86.189 155.063 253.056 231.863 510.371 234.057 18.541 0.244 33.574 14.872 33.574 32.914v190.659l452.745-363.52-452.494-364.495z" />
<glyph unicode="&#xe92d;" glyph-name="gear" d="M39.385 553.901c-20.13 0-35.884-15.754-35.884-35.884v-140.034c0-20.13 15.754-35.884 35.884-35.884h65.641c9.627-37.634 24.506-73.518 44.636-106.776l-45.511-45.511c-14.003-14.003-14.003-36.759 0-50.762l98.899-98.899c14.003-14.003 36.759-14.003 50.762 0l46.386 46.386c33.258-19.255 69.142-34.133 106.776-43.761v-65.641c0-20.13 15.754-35.884 35.884-35.884h140.034c20.13 0 35.884 15.754 35.884 35.884v66.516c37.634 9.627 72.643 24.506 105.901 43.761l47.262-47.262c14.003-14.003 36.759-14.003 50.762 0l98.899 98.899c14.003 14.003 14.003 36.759 0 50.762l-47.262 47.262c19.255 33.258 34.133 68.267 43.761 105.901h66.516c20.13 0 35.884 15.754 35.884 35.884v140.034c0 20.13-15.754 35.884-35.884 35.884h-66.516c-9.627 37.634-24.506 72.643-43.761 105.901l47.262 47.262c14.003 14.003 14.003 36.759 0 50.762l-99.774 98.024c-14.003 14.003-36.759 14.003-50.762 0l-46.386-46.386c-33.258 19.255-69.142 34.133-106.776 44.636v65.641c0 20.13-15.754 35.884-35.884 35.884h-140.034c-20.13 0-35.884-15.754-35.884-35.884v-65.641c-37.634-9.627-73.518-24.506-106.776-43.761l-46.386 46.386c-14.003 14.003-36.759 14.003-50.762 0l-98.899-99.774c-14.003-14.003-14.003-36.759 0-50.762l45.511-45.511c-20.13-33.258-35.009-69.142-44.636-107.651h-64.766zM168.916 511.891c8.752 49.012 28.007 93.648 55.138 133.908 9.627 14.003 7.877 33.258-4.376 45.511l-40.26 41.135 48.137 48.137 41.135-41.135c12.253-12.253 31.508-14.003 45.511-4.376 40.26 28.007 85.771 46.386 133.908 55.138 16.629 3.501 29.757 17.504 29.757 35.009v58.639h68.267v-58.639c0-17.504 12.253-32.383 28.882-35.009 48.137-8.752 92.773-28.007 133.032-55.138 14.003-9.627 33.258-7.877 45.511 4.376l42.010 42.010 48.137-48.137-42.010-42.010c-12.253-12.253-14.003-31.508-4.376-45.511 27.132-40.26 45.511-84.896 55.138-133.032 3.501-16.629 18.379-29.757 35.009-29.757h59.515v-68.267h-59.515c-17.504 0-32.383-12.253-35.009-28.882-8.752-48.137-27.132-92.773-55.138-133.032-9.627-14.003-7.877-33.258 4.376-45.511l42.010-42.010-48.137-48.137-42.010 42.010c-12.253 12.253-31.508 14.003-45.511 4.376-40.26-28.007-84.896-46.386-133.032-55.138-16.629-3.501-28.882-18.379-28.882-35.009v-58.639h-68.267v58.639c0 17.504-12.253 32.383-29.757 35.009-49.012 8.752-93.648 27.132-133.908 55.138-14.003 9.627-33.258 7.877-45.511-4.376l-41.135-41.135-48.137 45.511 41.135 41.135c12.253 12.253 14.003 31.508 4.376 45.511-28.007 40.26-46.386 85.771-56.014 133.908-3.501 16.629-17.504 28.882-35.009 28.882h-57.764v68.267h57.764c16.629 0.875 31.508 13.128 35.009 30.632zM511.125 196.814c135.658 0 245.935 110.277 245.935 245.935s-110.277 245.935-245.935 245.935c-135.658 0-245.935-110.277-245.935-245.935s110.277-245.935 245.935-245.935v0zM511.125 616.916c96.274 0 174.168-77.894 174.168-174.168s-77.894-174.168-174.168-174.168c-96.274 0-174.168 77.894-174.168 174.168s77.894 174.168 174.168 174.168z" />
<glyph unicode="&#xe92e;" glyph-name="globe" d="M512 960c-282.318 0-512-229.636-512-511.969s229.662-512.031 512-512.031c282.338 0 512 229.699 512 512.031-0.021 282.312-229.682 511.969-512 511.969zM512 8.833c-128.539 0-244.366 55.537-324.728 143.883 3.277 9.602 25.281 73.061 39.881 102.24 15.803 31.626 21.071 35.11 56.202 66.757 35.111 31.585-70.263 45.645-94.839 70.241s-36.874 24.596-64.954 46.869c-21.029 16.674-33.224-57.155-38.014-95.397-8.254 33.513-12.713 68.54-12.713 104.604 0 93.198 29.283 179.595 78.994 250.81-13.999-43.385-26.525-106.616 27.914-87.412 59.707 21.112 64.975 45.666 64.975 45.666l35.111 61.469c0 0 5.268-86.023 12.319-98.3 7.030-12.319 35.111-47.47 45.646 1.721 19.37 90.378 22.647 115.907 55.995 115.907s102.056 26.359 109.107-54.438c7.010-80.797-7.051-33.368-50.955-54.438-43.883-21.070-54.439-94.816-14.061-103.609 40.399-8.793 131.733-45.645 131.733-45.645l45.646-50.975 14.082-54.438c0 0 8.773-61.448 8.773-66.715v-56.222c0 0 1.784-110.619 42.141-84.281 40.399 26.359 151.020 198.466 128.228 263.44-22.854 64.973-24.596 72.024 17.545 94.837 42.141 22.854 72.005 50.934 70.263 82.539-1.244 22.149 1.016 35.691 1.286 50.228 34.157-62.464 53.631-134.074 53.631-210.142-0.062-242.183-197.060-439.198-439.207-439.198z" />
<glyph unicode="&#xe92f;" glyph-name="users" horiz-adv-x="1219" d="M841.505 415.48c2.751-1.189 5.627-2.181 10.545-3.906 2.315-0.872 4.577-1.747 7.037-2.521 18.385-5.773 37.722-8.683 57.422-8.683 6.601 0 13.054 0.34 19.848 1.019 2.046 0.242 4.066 0.532 6.089 0.898l4.092 0.581c2.777 0.389 5.6 0.751 8.863 1.43 1.997 0.438 3.922 0.947 5.869 1.479l2.607 0.679c3.141 0.702 6.233 1.457 9.886 2.547l8.23 2.958c3.069 1.041 6.139 2.136 8.692 3.226 1.508 0.581 2.948 1.309 5.259 2.449 3.945 1.796 8.010 3.638 11.277 5.407 1.216 0.581 2.338 1.26 3.505 1.966 3.581 2.038 7.207 4.147 10.689 6.404l3.971 2.645c30.124 20.664 53.648 49.448 68.043 83.281 9.522 22.384 14.66 45.739 15.271 69.531l0.121 5.068c0 22.384-4.017 44.527-11.883 65.723-27.544 75.3-100.088 125.892-180.503 125.892-84.871 0-158.632-54.395-183.523-135.348-4.653-15.109-7.378-29.562-8.329-44.407l-0.171-2.838c-0.193-2.981-0.39-5.966-0.39-9.045l0.099-2.498c1-76.032 47.077-144.352 117.382-173.94zM789.823 597.101l0.171 2.826c0.602 9.532 2.41 19.083 5.529 29.172 16.432 53.398 65.019 89.255 120.965 89.255 53.018 0 100.831-33.371 119.051-83.106 4.839-13.024 7.463-26.496 7.808-40.097v-3.363c0-16.707-3.397-33.201-10.15-49.008-9.27-21.783-24.196-40.377-43.319-53.911l-3.547-2.42c-2.517-1.65-5.097-3.126-7.249-4.369l-2.195-1.286c-2.56-1.37-5.271-2.57-7.895-3.749l-3.357-1.626c-1.72-0.73-3.527-1.326-7.225-2.613l-4.217-1.586c-1.851-0.557-3.698-0.963-7.185-1.776l-4.97-1.326c-1.526-0.3-3.096-0.493-4.625-0.687l-7.978-1.22c-17.121-1.736-34.651 0-50.675 5.032-1.268 0.407-2.453 0.88-3.658 1.35l-3.357 1.22c-1.55 0.537-3.096 1.026-4.645 1.693-46.415 19.557-76.806 64.599-77.515 116.434-0.017 1.756 0.11 3.449 0.241 5.162zM916.464 398.869c-83.116 0-161.095-33.829-218.054-93.104-73.787 60.24-168.059 96.496-270.705 96.496-235.829 0.004-427.704-191.075-427.704-425.953 0-3.785 0.22-7.543 0.462-11.23l1.144-29.079h851.952l1.338 28.35c0.243 3.955 0.489 7.905 0.489 11.954 0 29.418-3.020 58.157-8.742 85.923h370.6l1.413 26.384c0.193 2.985 0.39 5.943 0.39 8.947-0.027 166.155-135.745 301.31-302.584 301.31zM83.463 1.396c4.004 185.672 156.888 335.495 344.239 335.495 90.336 0 172.441-35.078 233.926-91.943 4.758-4.385 9.336-8.924 13.805-13.528 1.814-1.896 3.584-3.833 5.353-5.749 13.584-14.697 25.799-30.471 36.55-47.173 1.769-2.753 3.539-5.53 5.243-8.372 3.054-5.046 6.018-10.113 8.782-15.29 1.394-2.558 2.609-5.177 3.918-7.779 5.067-10.113 9.67-20.446 13.719-31.002 0.909-2.359 1.88-4.693 2.744-7.073 2.124-5.972 4.073-12.009 5.863-18.088 8.472-28.534 13.629-58.432 14.294-89.499h-688.433zM848.281 125.903c-0.086 0.234-0.192 0.445-0.278 0.679-4.147 12.306-8.975 24.273-14.336 35.966-0.913 1.991-1.913 3.919-2.849 5.866-4.871 10.144-10.167 19.995-15.908 29.612-1.34 2.244-2.7 4.492-4.104 6.713-5.997 9.574-12.42 18.851-19.248 27.809-1.277 1.674-2.489 3.388-3.786 5.042-8.274 10.464-16.951 20.545-26.247 30.077 41.689 43.105 98.797 67.503 159.435 67.503 118.362 0 215.394-92.88 221.411-209.291l-294.089 0.023zM324.035 447.226c2.777-1.14 5.627-2.181 8.499-3.2l8.207-3.007c2.436-0.921 4.869-1.841 7.624-2.717 25.691-7.977 52.553-12.030 79.899-12.079h0.049c9.204 0 18.264 0.487 27.006 1.408 2.948 0.268 5.843 0.728 8.768 1.211l6.866 1.019c3.751 0.509 7.525 1.068 10.936 1.77 2.849 0.581 5.627 1.309 8.427 2.060l5.138 1.287c4.092 0.97 8.181 1.94 12.421 3.249 1.948 0.608 3.846 1.332 5.722 2.038l6.965 2.498c3.945 1.358 7.84 2.74 11.663 4.34 1.728 0.728 3.384 1.528 6.673 3.151 5.6 2.521 11.227 5.068 16.805 8.026 1.243 0.657 2.436 1.408 3.801 2.306 6.26 3.54 12.47 7.177 18.461 11.132l2.145 1.528c72.643 49.837 116.014 131.759 116.113 219.889 0 147.136-120.228 266.866-268 266.866-141.050 0-258.383-109.835-267.174-250.010l-0.193-3.030c-0.318-4.585-0.633-9.192-0.633-13.849 0.019-107.454 64.261-203.954 163.812-245.885zM237.858 701.916l0.19 2.79c6.2 96.379 89.048 171.893 188.629 171.893 104.372 0 189.26-82.299 189.26-183.71-0.062-60.781-31.149-117.51-81.798-150.886l-3.005-1.915c-3.869-2.425-7.881-4.686-12.168-7.051l-2.103-1.284c-3.888-1.975-7.901-3.77-12.106-5.583l-4.709-2.2c-2.459-1.018-5.003-1.855-7.567-2.711l-9.856-3.443c-2.502-0.755-5.043-1.303-7.567-1.896l-5.844-1.427c-1.491-0.409-2.986-0.815-4.771-1.16-2.184-0.447-4.454-0.732-6.704-1.040l-6.998-1.018c-1.534-0.244-3.067-0.51-4.856-0.672-6.325-0.653-12.695-0.977-19.147-0.977-19.356 0.041-38.399 2.831-56.284 8.231-1.491 0.469-2.963 1.018-4.415 1.547l-7.839 2.79c-1.786 0.631-3.574 1.243-5.213 1.896-70.218 28.791-115.595 95.136-115.595 169.040 0.026 2.958 0.258 5.872 0.468 8.785z" />
<glyph unicode="&#xe930;" glyph-name="hide" horiz-adv-x="1365" d="M1362.056 467.53c-1.655 3.886-41.705 96.189-146.058 187.875-95.334 83.767-265.256 183.622-533.33 183.622-114.375 0-210.735-18.016-291.11-45.114l-158.13 153.819c-16.825 16.357-44.086 16.357-60.911 0-16.821-16.362-16.821-42.887 0-59.249l133.090-129.458c-66.331-31.883-118.242-69.136-157.404-103.67-104.069-91.775-143.415-184.204-145.038-188.090-4.179-10.016-4.22-21.213-0.11-31.257 1.595-3.895 40.224-96.448 144.013-188.309 94.695-83.816 264.484-183.725 535.601-183.725 113.686 0 209.843 18.392 290.228 45.973l159.013-154.673c8.413-8.179 19.432-12.27 30.456-12.27s22.043 4.092 30.456 12.27c16.821 16.362 16.821 42.887 0 59.249l-134.327 130.661c64.929 31.57 116.205 68.268 155.234 102.311 104.919 91.516 146.385 183.578 148.095 187.45 4.602 10.383 4.68 22.134 0.234 32.585zM208.244 306.856c-66.708 58.162-102.878 117.125-117.455 144.5 14.784 27.393 51.409 86.445 118.439 144.697 47.819 41.559 101.504 75.020 160.737 100.365l2.322-2.258c-55.027-66.462-88.020-150.877-88.020-242.661 0-94.49 34.961-181.168 92.939-248.492-62.649 25.721-119.087 60.358-168.961 103.849zM682.667 147.76c-172.179 0-312.261 136.255-312.261 303.739 0 68.666 23.574 132.060 63.224 182.987l91.261-88.771c-17.377-27.433-27.426-59.701-27.426-94.217 0-99.332 83.083-180.148 185.203-180.148 35.485 0 68.662 9.775 96.861 26.678l91.261-88.771c-52.356-38.563-117.529-61.498-188.122-61.498zM715.279 360.533c-10.219-3.474-21.188-5.388-32.607-5.388-54.623 0-99.063 43.223-99.063 96.359 0 11.112 1.968 21.777 5.539 31.717l126.13-122.688zM650.060 542.47c10.219 3.474 21.188 5.388 32.607 5.388 54.623 0 99.063-43.223 99.063-96.359 0-11.112-1.968-21.777-5.539-31.717l-126.13 122.688zM931.705 268.512l-91.261 88.771c17.377 27.433 27.431 59.701 27.431 94.217 0 99.332-83.083 180.148-185.203 180.148-35.485 0-68.662-9.775-96.861-26.678l-91.261 88.771c52.361 38.568 117.529 61.498 188.122 61.498 172.175 0 312.257-136.255 312.257-303.739 0-68.666-23.574-132.060-63.224-182.987zM993.724 208.181l-0.68 0.662c55.027 66.462 88.020 150.877 88.020 242.661 0 93.743-34.405 179.813-91.565 246.909 61.035-25.591 116.343-59.763 165.614-102.445 66.846-57.903 103.876-116.593 119.060-144.214-24.962-44.291-107.369-168.33-280.45-243.573z" />
<glyph unicode="&#xe931;" glyph-name="historical-report" horiz-adv-x="845" d="M760.082 896h-168.909c-0.015 0-0.027-0.002-0.042-0.002-15.423 19.418-39.947 32.002-67.519 32.002h-43.050c-11.916 19.516-34.054 32-58.294 32s-46.378-12.484-58.294-32h-43.050c-27.572 0-52.095-12.584-67.519-32.002-0.015 0-0.030 0.002-0.044 0.002h-168.907c-46.568 0-84.454-35.888-84.454-80v-800c0-44.112 37.886-80 84.454-80h675.629c46.568 0 84.454 35.888 84.454 80v800c0 44.112-37.886 80-84.454 80zM285.845 840.8c0 22.496 20.401 40.8 45.475 40.8h48.26c6.414 0 12.134 3.623 14.283 9.044 4.301 10.86 15.717 18.156 28.407 18.156s24.106-7.296 28.407-18.156c2.149-5.421 7.869-9.044 14.283-9.044h48.26c25.074 0 45.475-18.304 45.475-40.8v-40.8h-272.85v40.8zM795.163 32.054c0-25.404-21.82-46.074-48.639-46.074h-648.513c-26.818 0-48.638 20.67-48.638 46.074v767.893c0 25.404 21.82 46.074 48.638 46.074h147.547c-1.068-4.964-1.631-10.1-1.631-15.358v-61.431c0-8.481 7.259-15.358 16.213-15.358h324.257c8.954 0 16.213 6.876 16.213 15.358v61.431c0 5.258-0.563 10.393-1.631 15.358h147.547c26.818 0 48.639-20.67 48.639-46.074v-767.893zM156.963 587.314c-6.598-6.248-6.598-16.378 0-22.626l50.672-48c3.298-3.124 7.62-4.686 11.944-4.686s8.646 1.562 11.944 4.686l84.454 80c6.598 6.248 6.598 16.378 0 22.626-6.596 6.248-17.29 6.248-23.886 0l-72.512-68.686-38.728 36.686c-6.596 6.248-17.292 6.248-23.888 0zM315.977 443.314c-6.596 6.248-17.29 6.248-23.886 0l-72.512-68.686-38.728 36.686c-6.596 6.248-17.29 6.248-23.886 0-6.598-6.248-6.598-16.378 0-22.626l50.672-48c3.298-3.124 7.62-4.686 11.944-4.686s8.646 1.562 11.944 4.686l84.454 80c6.594 6.246 6.594 16.378-0.002 22.626zM292.089 267.314l-72.51-68.686-38.728 36.686c-6.596 6.248-17.29 6.248-23.886 0-6.598-6.248-6.598-16.378 0-22.626l50.672-48c3.298-3.124 7.62-4.686 11.944-4.686s8.646 1.562 11.944 4.686l84.454 80c6.598 6.248 6.598 16.378 0 22.626s-17.294 6.248-23.89 0zM388.487 540.8h287.142c9.328 0 16.891 11.462 16.891 25.6s-7.563 25.6-16.891 25.6h-287.142c-9.328 0-16.891-11.462-16.891-25.6s7.563-25.6 16.891-25.6zM388.487 364.8h287.142c9.328 0 16.891 11.462 16.891 25.6s-7.563 25.6-16.891 25.6h-287.142c-9.328 0-16.891-11.462-16.891-25.6s7.563-25.6 16.891-25.6zM388.487 188.8h287.142c9.328 0 16.891 11.462 16.891 25.6s-7.563 25.6-16.891 25.6h-287.142c-9.328 0-16.891-11.462-16.891-25.6s7.563-25.6 16.891-25.6z" />
<glyph unicode="&#xe932;" glyph-name="history" d="M510.017 960c-281.223 0-510.017-228.794-510.017-510.017 0-281.228 228.79-510.026 510.013-510.026 281.228 0 510.017 228.799 510.017 510.026 0.005 281.223-228.785 510.017-510.013 510.017zM510.017 9.775c-242.725 0-440.194 197.478-440.194 440.208-0.005 242.725 197.469 440.199 440.194 440.199s440.199-197.474 440.199-440.199c0-242.735-197.474-440.208-440.199-440.208zM773.171 456.792h-242.274v264.667c0 19.279-15.625 34.909-34.909 34.909-19.279 0-34.909-15.63-34.909-34.909v-299.576c0-19.279 15.63-34.909 34.909-34.909h277.183c19.284 0 34.909 15.63 34.909 34.909s-15.63 34.909-34.909 34.909z" />
<glyph unicode="&#xe933;" glyph-name="image" horiz-adv-x="1093" d="M305.793-9.599l267.716 347.737-208.677 201.733c-9.041 8.741-20.111 13.168-31.466 12.081-11.238-0.957-21.453-7.070-28.783-17.205l-245.975-340.151v-155.602c0-26.823 22.5-48.592 50.244-48.592h196.941zM347.582-9.599h637.554c27.743 0 50.26 21.753 50.26 48.592l-0.001 50.498c-5.609-1.69-11.967-0.498-16.518 3.671l-300.082 301.8c-9.427 8.611-21.134 12.762-33.228 11.789-12.009-1.005-22.878-7.119-30.661-17.205l-307.325-399.145zM1035.396 123.305l-0.016 729.741c0 26.823-22.483 48.575-50.243 48.575h-876.284c-27.744 0-50.244-21.753-50.244-48.575v-601.857l218.484 302.14c13.083 18.13 32.037 29.124 53.339 30.924 21.302 1.768 41.933-5.789 58.136-21.454l205.184-198.371 34.219 44.447c13.57 17.611 32.959 28.297 54.614 30.146 21.62 1.881 42.721-5.449 59.226-20.497l293.587-295.219zM973.983-61.638h-857.711c-64.208 0-116.272 50.351-116.272 112.427v796.8c0 62.076 52.064 112.411 116.272 112.411h857.711c64.208 0 116.288-50.335 116.288-112.411l-0.017-796.8c0-62.076-52.063-112.427-116.271-112.427zM692.244 552.081c-79.941 0-144.953 62.87-144.953 140.141s65.012 140.124 144.953 140.124c79.924 0 144.953-62.854 144.953-140.124s-65.046-140.141-144.953-140.141zM692.244 799.897c-61.423 0-111.407-48.308-111.407-107.692s49.967-107.708 111.407-107.708c61.44 0 111.407 48.308 111.407 107.708s-49.967 107.692-111.407 107.692z" />
<glyph unicode="&#xe934;" glyph-name="lichsubaocao" horiz-adv-x="836" d="M826.595 758.72l-192.904 192c-6.066 5.99-14.281 9.328-22.827 9.28h-514.411c-53.27 0-96.452-42.98-96.452-96v-832c0-53.020 43.182-96 96.452-96h643.014c53.27 0 96.452 42.98 96.452 96v704c0.050 8.506-3.306 16.68-9.324 22.72zM771.617 32c0-17.674-14.393-32-32.151-32h-643.014c-17.757 0-32.151 14.326-32.151 32v832c0 17.674 14.393 32 32.151 32h482.261v-128c0-35.346 28.789-64 64.301-64h128.603v-672zM128.603 544v-448c0-17.674 14.393-32 32.151-32h514.411c17.757 0 32.151 14.326 32.151 32v448c0 17.674-14.393 32-32.151 32h-514.411c-17.757 0-32.151-14.328-32.151-32zM385.808 512h257.206v-96h-257.206v96zM385.808 352h257.206v-64h-257.206v64zM385.808 224h257.206v-96h-257.206v96zM192.904 512h128.603v-96h-128.603v96zM192.904 352h128.603v-64h-128.603v64zM192.904 224h128.603v-96h-128.603v96z" />
<glyph unicode="&#xe935;" glyph-name="list" d="M31.977 898.56c-17.657 0-31.977 13.757-31.977 30.72s14.32 30.72 31.977 30.72h960.046c17.657 0 31.977-13.757 31.977-30.72s-14.32-30.72-31.977-30.72h-960.046zM31.977 581.12c-17.657 0-31.977 13.757-31.977 30.72s14.32 30.72 31.977 30.72h960.046c17.657 0 31.977-13.757 31.977-30.72s-14.32-30.72-31.977-30.72h-960.046zM673.819 314.88c18.084 0 32.741-13.757 32.741-30.72s-14.662-30.72-32.741-30.72h-641.078c-18.078 0-32.741 13.757-32.741 30.72s14.662 30.72 32.741 30.72h641.078zM673.819-2.56c18.084 0 32.741-13.757 32.741-30.72s-14.662-30.72-32.741-30.72h-641.078c-18.078 0-32.741 13.757-32.741 30.72s14.662 30.72 32.741 30.72h641.078z" />
<glyph unicode="&#xe936;" horiz-adv-x="3621" d="M1860.893 807.827h156.787v117.573h-156.787v-117.573zM1865.743-11.957h146.232v653.313h-146.232v-653.313zM2170.636-11.957h146.253v937.356h-146.253v-937.356zM2470.64 807.827h156.787v117.573h-156.787v-117.573zM2475.509-11.957h146.232v653.313h-146.232v-653.313zM904.326 56.775l4.442-4.061c-21.944-27.776-28.016-34.878-66.464-50.898-24.287-10.123-62.878-9.796-112.185-9.939-163.551-0.449-203.568 9.184-243.035 80.144-16.28 29.204-16.463 37.286-22.942 96.776-0.652 5.959-0.428 11.102-0.428 16.919 1.936 115.307 37.938 159.328 113.021 177.41 34.515 8.265 88.347 14.919 157.052 10.98l26.671-0.714c38.591-3.408 31.5-1.673 73.228-11.429 46.007-10.776 75.592-26.694 79.687-53.205l-2.343-8.49-1.65 134.695c0 32.266-2.567 54.103-12.755 71.286-7.233 12.163-8.782 21.919-40.139 29.51-25.123 6.061-15.628 3.918-66.443 7.408l-14.976-0.163c-96.762 0-141.444-6.082-150.98-68.103-0.387-2.612-1.589-13.347-1.589-22.429l-145.641 2.898c0 74.47 20.233 127.022 60.718 157.655 38.815 22.327 90.893 32.204 190.874 32.204 113.184 0 245.989-13.102 280.688-47.858s52.058-90.634 52.058-167.594v-439.433l-155.911-2.306-0.958 68.735zM631.156 261.164c-12.897-10.878-18.439-28.878-20.681-52.245-4.238-44.041-2.139-23.204-2.486-30.062-2.221-47.123 25.53-74.45 46.659-83.062 18.195-7.837 24.491-11.51 77.935-12.857 81.276-2.531 141.261 9.286 162.879 37.266 11.919 15.674 11.919 40.735 12.347 71.735 0.55 40.653-14.69 72.286-53.322 86.613-23.35 7.878-68.786 12.857-122.149 10.021-66.667-3.592-81.399-10.796-101.183-27.408zM278.569 583.057h161.29v96.715h-161.29v60.184c0 41.449 8.558 70.368 25.673 86.838 17.095 16.429 45.192 24.653 84.292 24.653 29.32 0 59.455-1.959 90.404-5.898v105.572c-26.060 5.918-63.53 8.878-112.41 8.878-160.475 0-240.691-72.797-240.691-218.288v-61.939h-125.837v-96.715h125.837v-595.006h152.732v595.006z" />
<glyph unicode="&#xe937;" horiz-adv-x="3621" d="M3146.646 742.835v51.502h80.91v-50.091c17.399-1.526 34.464-4.22 51.116-8.004l17.2 47.38 76.040-27.674-16.684-45.97c15.822-7.399 31.053-15.852 45.605-25.269l31.619 37.735 61.981-52.062-30.636-36.604c12.393-12.4 23.939-25.649 34.545-39.652l41.487 24.007 40.506-70.164-40.178-23.235c7.428-15.939 13.792-32.476 19-49.518l46.021 8.133 14.079-79.776-44.795-7.931c0.904-10.739 1.365-21.604 1.365-32.577 0-6.969-0.186-13.894-0.553-20.771l45.297-7.993-14.038-79.817-44.095 7.794c-4.724-17.377-10.641-34.263-17.656-50.562l39.349-22.725-40.485-70.205-38.615 22.32c-10.375-14.569-21.743-28.379-34.007-41.33l29.238-34.881-62.022-52.123-28.797 34.382c-14.643-10.048-30.021-19.101-46.035-27.062l15.671-43.053-76.060-27.715-15.505 42.68c-17.021-4.3-34.497-7.455-52.341-9.38l0.023-46.604-80.95-0.020 0.012 46.431c-17.741 1.827-35.123 4.87-52.060 9.045l-16.223-44.745-76.081 27.715 16.265 44.673c-15.77 7.726-30.93 16.508-45.389 26.254l-31.341-37.459-62.022 52.082 31.389 37.447c-12.030 12.492-23.219 25.802-33.476 39.838l-43.329-25.068-40.506 70.205 43.224 24.955c-6.967 15.649-12.917 31.853-17.763 48.528l-50.286-8.897-14.1 79.838 50.166 8.824c-0.639 9.050-0.964 18.186-0.964 27.399 0 8.041 0.248 16.025 0.736 23.943l-51.244 9.025 14.079 79.838 50.662-8.966c4.65 16.558 10.385 32.661 17.122 48.227l-45.386 26.238 40.465 70.184 44.815-25.897c9.921 13.872 20.745 27.053 32.386 39.455l-33.796 40.348 61.981 52.103 33.15-39.564c13.982 9.686 28.639 18.463 43.888 26.243l-17.824 49.090 75.999 27.694 17.422-47.899c16.404 4.328 33.24 7.591 50.429 9.71zM3193.794 33.979c181.453 0 328.549 147.336 328.549 329.085s-147.096 329.085-328.549 329.085c-181.453 0-328.549-147.336-328.549-329.085s147.096-329.085 328.549-329.085z" />
<glyph unicode="&#xe938;" horiz-adv-x="3621" d="M3436.906 361.71c0-134.144-108.599-242.9-242.546-242.9-133.926 0-242.484 108.756-242.484 242.9s108.559 242.9 242.484 242.9c133.946 0 242.546-108.756 242.546-242.9zM3298.316 368.645c0 57.511-46.557 104.103-103.954 104.103-57.417 0-103.934-46.592-103.934-104.103 0-57.49 46.516-104.103 103.934-104.103 57.397 0 103.954 46.613 103.954 104.103z" />
<glyph unicode="&#xe939;" horiz-adv-x="3621" d="M1768.429 208.076v-19.347c3.28-68.47-18.99-119.022-66.749-151.695-47.8-32.674-123.086-48.98-225.838-48.98-106.705 0-184.741 17.653-234.171 53.001-49.43 35.327-74.145 91.45-74.145 168.349v218.023c0 87.572 23.574 150.022 70.702 187.349 47.128 37.347 126.326 56.021 237.615 56.021 100.144 0 172.802-15.776 217.973-47.347 41.871-29.776 62.817-75.123 62.817-136.042v-33.306h-179.668v19.449c2.608 36.613-4.421 63.327-21.109 80.103-16.687 16.755-44.010 25.123-81.99 25.123-47.128 0-80.013-9.245-98.656-27.694-18.684-18.51-27.995-51.082-27.995-97.817v-239.043c0-51.184 8.822-86.327 26.508-105.47 17.665-19.143 50.062-28.694 97.189-28.694 42.564 0 73.493 8.878 92.788 26.653 19.316 17.796 27.669 45.102 25.061 82.021v19.347h179.668z" />
<glyph unicode="&#xe93a;" glyph-name="logout" d="M481.524 21.333c16.823 0 30.476-13.653 30.476-30.476s-13.653-30.476-30.476-30.476h-426.667c-16.823 0-30.476 13.653-30.476 30.476v914.286c0 16.823 13.653 30.476 30.476 30.476h426.667c16.823 0 30.476-13.653 30.476-30.476s-13.653-30.476-30.476-30.476h-396.19v-853.333h396.19zM990.78 469.272c11.856-11.825 11.734-31.665-0.030-43.52l-210.255-213.303c-11.885-12.038-31.176-12.038-43.093 0-11.916 12.008-11.916 31.482 0 43.52l158.476 160.762h-627.596c-16.823 0-30.476 13.775-30.476 30.781s13.653 30.781 30.476 30.781h627.596l-158.476 160.762c-11.916 12.008-11.916 31.512 0 43.52 11.886 12.008 31.177 12.038 43.093 0l210.286-213.303z" />
<glyph unicode="&#xe93b;" glyph-name="menu" horiz-adv-x="1260" d="M1260.308 908.8v-102.4c0-30.72-21.005-51.2-52.513-51.2h-1155.282c-31.508 0-52.513 20.48-52.513 51.2v102.4c0 30.72 21.005 51.2 52.513 51.2h1155.282c31.508 0 52.513-20.48 52.513-51.2zM1260.308 499.2v-102.4c0-30.72-21.005-51.2-52.513-51.2h-1155.282c-31.508 0-52.513 20.48-52.513 51.2v102.4c0 30.72 21.005 51.2 52.513 51.2h1155.282c31.508 0 52.513-20.48 52.513-51.2zM1260.308 89.6v-102.4c0-30.72-21.005-51.2-52.513-51.2h-1155.282c-31.508 0-52.513 20.48-52.513 51.2v102.4c0 30.72 21.005 51.2 52.513 51.2h1155.282c31.508 0 52.513-20.48 52.513-51.2z" />
<glyph unicode="&#xe93c;" glyph-name="move" d="M1016.481 466.494l-144.912 144.931c-10.018 10.018-26.214 10.018-36.232 0s-10.018-26.214 0-36.232l101.187-101.188h-398.909v398.508l101.187-101.188c10.018-10.018 26.214-10.018 36.232 0s10.018 26.214 0 36.232l-144.928 144.931c-10.002 10.018-26.214 10.018-36.232 0l-144.912-144.915c-10.018-10.018-10.018-26.214 0-36.232 10.002-10.018 26.214-10.018 36.232 0l101.187 101.188v-398.542h-398.893l101.187 101.188c10.018 10.018 10.018 26.214 0 36.232s-26.214 10.018-36.232 0l-144.928-144.913c-10.018-10.002-10.018-26.214 0-36.232l144.928-144.915c10.018-10.018 26.214-10.018 36.232 0 10.018 10.002 10.018 26.214 0 36.232l-101.187 101.188h398.911v-399.294l-101.187 101.188c-10.018 10.002-26.214 10.002-36.232 0-10.018-10.018-10.018-26.214 0-36.232l144.912-144.931c10-10 26.214-10 36.232 0l144.928 144.915c10.018 10.018 10.018 26.214 0 36.232-10.018 10-26.214 10-36.232 0l-101.187-101.188v399.294h398.911l-101.187-101.188c-10.018-10.018-10.018-26.214 0-36.232s26.214-10.018 36.232 0l144.928 144.915c9.984 10.016 9.984 26.23-0.036 36.248z" />
<glyph unicode="&#xe93d;" glyph-name="notepad" horiz-adv-x="811" d="M794.446 70.096c-8.623 0-15.611 6.966-15.611 15.554v779.368c0 15.776-12.885 28.612-28.723 28.612h-72.129v-47.568h42.94c8.623 0 15.611-6.962 15.611-15.552v-708.050c0-8.59-6.989-15.552-15.611-15.552h-631.786c-8.623 0-15.611 6.962-15.611 15.552v708.048c0 8.59 6.989 15.552 15.611 15.552h42.94v47.568h-72.133c-15.836 0-28.721-12.836-28.721-28.612v-869.3c0-15.776 12.885-28.612 28.721-28.612h690.169c15.838 0 28.723 12.836 28.723 28.612v97.546c0 8.59 6.989 15.552 15.611 15.552s15.611-6.962 15.611-15.552v-97.546c0-32.924-26.892-59.714-59.946-59.714h-690.169c-33.050 0-59.942 26.788-59.942 59.716v869.3c0 32.924 26.888 59.714 59.942 59.714h72.129v19.716c0 8.59 6.989 15.552 15.611 15.552h514.688c8.623 0 15.611-6.962 15.611-15.552v-19.718h72.129c33.054 0 59.946-26.786 59.946-59.714v-779.368c0-8.59-6.989-15.552-15.611-15.552zM705.31 814.958h-27.332v-35.992c0-8.59-6.989-15.552-15.611-15.552h-396.631c-8.623 0-15.611 6.962-15.611 15.552s6.989 15.552 15.611 15.552h381.021v134.38h-483.463v-134.378h166.677c8.623 0 15.611-6.962 15.611-15.552s-6.989-15.552-15.611-15.552h-182.289c-8.623 0-15.611 6.962-15.611 15.552v35.99h-27.326v-676.946h600.565v676.946zM406.827 667.014c8.623 0 15.611-6.962 15.611-15.552s-6.989-15.552-15.611-15.552h-221.018c-8.623 0-15.611 6.962-15.611 15.552s6.989 15.552 15.611 15.552h221.018zM406.827 258.99c8.623 0 15.611-6.962 15.611-15.552s-6.989-15.552-15.611-15.552h-221.018c-8.623 0-15.611 6.962-15.611 15.552s6.989 15.552 15.611 15.552h221.018zM406.827 531.006c8.623 0 15.611-6.962 15.611-15.552s-6.989-15.552-15.611-15.552h-221.018c-8.623 0-15.611 6.962-15.611 15.552s6.989 15.552 15.611 15.552h221.018zM406.827 394.998c8.623 0 15.611-6.962 15.611-15.552s-6.989-15.552-15.611-15.552h-221.018c-8.623 0-15.611 6.962-15.611 15.552s6.989 15.552 15.611 15.552h221.018zM654.274 694.602c6.097-6.072 6.097-15.918-0.002-21.992l-64.53-64.288c-3.050-3.036-7.047-4.556-11.040-4.556s-7.99 1.52-11.040 4.556l-40.751 40.604c-6.097 6.072-6.097 15.918 0 21.992 6.093 6.072 15.979 6.072 22.076 0l29.719-29.608 53.492 53.292c6.097 6.072 15.983 6.072 22.076 0zM654.28 422.588c6.095-6.072 6.095-15.916-0.002-21.99l-64.534-64.288c-3.048-3.036-7.045-4.556-11.038-4.556s-7.99 1.52-11.038 4.556l-40.759 40.602c-6.097 6.072-6.097 15.918-0.002 21.992 6.097 6.072 15.983 6.072 22.076 0l29.721-29.606 53.496 53.288c6.095 6.074 15.979 6.072 22.080 0.002z" />
<glyph unicode="&#xe93e;" glyph-name="quantrihethong" d="M750 658h244c16.568 0 30 13.432 30 30v242c0 16.568-13.432 30-30 30h-244c-16.568 0-30-13.432-30-30v-92h-120c-16.568 0-30-13.432-30-30v-330h-91.872c-14.808 118.23-115.95 210-238.128 210-132.336 0-240-107.664-240-240s107.664-240 240-240c122.178 0 223.32 91.77 238.128 210h91.872v-330c0-16.568 13.432-30 30-30h120v-92c0-16.568 13.432-30 30-30h244c16.568 0 30 13.432 30 30v242c0 16.568-13.432 30-30 30h-244c-16.568 0-30-13.432-30-30v-90h-90v300h90v-90c0-16.568 13.432-30 30-30h244c16.568 0 30 13.432 30 30v240c0 16.568-13.432 30-30 30h-244c-16.568 0-30-13.432-30-30v-90h-90v300h90v-90c0-16.568 13.432-30 30-30zM780 900h184v-182h-184v182zM240 268c-99.252 0-180 80.748-180 180s80.748 180 180 180c99.252 0 180-80.748 180-180s-80.748-180-180-180zM780 178h184v-182h-184v182zM780 538h184v-180h-184v180zM330 478c16.568 0 30-13.432 30-30s-13.432-30-30-30h-90c-16.568 0-30 13.432-30 30v90c0 16.568 13.432 30 30 30s30-13.432 30-30v-60h60z" />
<glyph unicode="&#xe93f;" d="M1024 448c0-282.77-229.23-512-512-512s-512 229.23-512 512c0 282.77 229.23 512 512 512s512-229.23 512-512z" />
<glyph unicode="&#xe940;" d="M708.969 498.701l-236.521 163.746c-40.822 28.254-74.226 9.299-74.226-42.101v-344.61c0-51.399 33.448-70.417 74.344-42.272l236.299 162.671c40.881 28.176 40.925 74.311 0.104 102.565zM677.445 430.496l-210.032-144.588c-13.622-9.392-24.771-3.053-24.771 14.080v296.123c0 17.133 11.135 23.441 24.742 14.018l210.106-145.445c13.607-9.408 13.592-24.796-0.044-34.188z" />
<glyph unicode="&#xe941;" d="M625.532 163.065c-97.187 0-185.539 34.457-254.454 92.77l-309.232-309.232c-7.068-7.068-15.903-10.602-25.622-10.602s-18.554 3.534-25.622 10.602c-14.136 14.136-14.136 37.108 0 51.244l309.232 309.232c-57.429 68.915-92.77 158.15-92.77 254.454 0 219.997 178.471 398.468 398.468 398.468 219.113 0 398.468-179.355 398.468-398.468 0-219.997-179.355-398.468-398.468-398.468v0zM625.532 887.551c-180.238 0-326.019-146.664-326.019-326.019 0-180.238 145.781-326.019 326.019-326.019s326.019 146.664 326.019 326.019c0 179.355-146.664 326.019-326.019 326.019v0z" />
<glyph unicode="&#xe942;" d="M625.532 163.065c-97.187 0-185.539 34.457-254.454 92.77l-309.232-309.232c-7.068-7.068-15.903-10.602-25.622-10.602s-18.554 3.534-25.622 10.602c-14.136 14.136-14.136 37.108 0 51.244l309.232 309.232c-57.429 68.915-92.77 158.15-92.77 254.454 0 219.997 178.471 398.468 398.468 398.468 219.113 0 398.468-179.355 398.468-398.468 0-219.997-179.355-398.468-398.468-398.468v0zM625.532 887.551c-180.238 0-326.019-146.664-326.019-326.019 0-180.238 145.781-326.019 326.019-326.019s326.019 146.664 326.019 326.019c0 179.355-146.664 326.019-326.019 326.019v0z" />
<glyph unicode="&#xe943;" glyph-name="storage" horiz-adv-x="957" d="M956.571 718.588c0 3.89-0.878 7.78-2.633 11.455-3.51 7.348-10.312 12.319-17.771 13.832l-446.912 213.531c-7.24 3.458-15.797 3.458-23.037 0l-451.299-215.477c-8.776-4.106-14.48-12.751-14.919-22.477v-0.216c0-0.216 0-0.432 0-0.865v-540.745c0-9.942 5.704-19.019 14.919-23.341l451.299-215.477c0.219 0 0.219 0 0.439-0.216 0.658-0.216 1.316-0.432 1.975-0.864 0.219 0 0.439-0.216 0.878-0.216 0.658-0.216 1.316-0.432 1.975-0.648 0.219 0 0.439-0.216 0.658-0.216 0.658-0.216 1.536-0.216 2.194-0.432 0.219 0 0.439 0 0.658 0 0.878 0 1.975-0.216 2.852-0.216s1.975 0 2.852 0.216c0.219 0 0.439 0 0.658 0 0.658 0 1.536 0.216 2.194 0.432 0.219 0 0.439 0.216 0.658 0.216 0.658 0.216 1.316 0.432 1.975 0.648 0.219 0 0.439 0.216 0.878 0.216 0.658 0.216 1.316 0.432 1.975 0.864 0.219 0 0.219 0 0.439 0.216l452.616 216.125c8.995 4.322 14.919 13.4 14.919 23.341v539.664c-0.439 0.216-0.439 0.432-0.439 0.648zM477.627 905.32l391.404-186.948-144.144-68.944-391.404 186.948 144.144 68.944zM477.627 531.424l-391.404 186.948 186.926 89.26 391.404-186.948-186.926-89.26zM52.655 676.66l398.644-190.406v-482.607l-398.644 190.406v482.607zM503.955 3.647v482.607l187.146 89.476v-126.217c0-14.264 11.847-25.935 26.328-25.935s26.328 11.671 26.328 25.935v151.504l160.16 76.508v-482.607l-399.961-191.271z" />
<glyph unicode="&#xe944;" glyph-name="tailieucv" horiz-adv-x="1300" d="M1287.558 471.254c8.094-13.498 12.759-29.329 12.759-46.24v-399.648c0-49.274-39.591-89.365-88.256-89.365h-1123.802c-48.665 0-88.259 40.089-88.259 89.365v399.648c0 16.911 4.665 32.742 12.759 46.24l-0.404 0.206 188.968 378.291c15.276 30.576 45.778 49.567 79.609 49.567h35.914v35.167c0 14.092 11.281 25.515 25.199 25.515h616.231c13.917 0 25.199-11.423 25.199-25.515v-35.167h35.914c33.831 0 64.333-18.991 79.609-49.567l188.965-378.291-0.404-0.206zM983.472 842.617v-45.013h33.503c13.917 0 25.199-11.423 25.199-25.515v-136.878h31.175c13.917 0 25.199-11.423 25.199-25.515v-95.319h105.222l-154.743 309.779c-5.691 11.387-17.046 18.461-29.641 18.461h-35.914zM1048.152 584.182v0h-795.985v-69.803h132.975c22.817 0 43.617-13.611 52.993-34.673l36.305-81.54c0.345-0.771 1.105-1.27 1.94-1.27h347.558c0.836 0 1.595 0.499 1.94 1.268l36.307 81.545c9.374 21.059 30.174 34.67 52.99 34.67h132.975v69.803zM367.243 908.969v-111.363h565.831v111.363h-565.831zM991.777 746.576h-683.236v-111.363h683.236v111.363zM251.291 824.156l-154.743-309.776h105.222v95.319c0 14.092 11.281 25.515 25.199 25.515h31.175v136.878c0 14.092 11.281 25.515 25.199 25.515h33.503v45.011h-35.914c-12.594 0-23.952-7.072-29.641-18.461zM1212.061-7.296c17.788 0 32.259 14.65 32.257 32.662h-0.003v399.648c0 18.006-14.469 32.662-32.257 32.662h-296.884c-0.836 0-1.595-0.499-1.94-1.27v-0.003l-36.307-81.543c-9.374-21.056-30.174-34.665-52.99-34.665h-347.556c-22.817 0-43.614 13.606-52.99 34.668l-36.305 81.54c-0.345 0.774-1.11 1.273-1.943 1.273h-296.884c-17.79 0-32.262-14.653-32.262-32.662v-399.648c0-18.006 14.474-32.662 32.262-32.662h1123.802zM793.552 250.673c21.615 0 39.197-17.806 39.203-39.69v-89.065c0-21.889-17.585-39.693-39.2-39.693h-286.789c-21.615 0-39.197 17.806-39.197 39.693v89.065c0 21.887 17.582 39.69 39.197 39.69h286.786zM782.352 133.256v66.383h-264.389v-66.383h264.389z" />
<glyph unicode="&#xe945;" glyph-name="tailieuTB" horiz-adv-x="836" d="M826.594 758.72l-192.904 192c-6.066 5.99-14.281 9.328-22.827 9.28h-514.411c-53.27 0-96.452-42.98-96.452-96v-832c0-53.020 43.182-96 96.452-96h643.014c53.27 0 96.452 42.98 96.452 96v704c0.050 8.506-3.306 16.68-9.324 22.72zM771.616 32c0-17.674-14.393-32-32.151-32h-643.014c-17.757 0-32.151 14.326-32.151 32v832c0 17.674 14.393 32 32.151 32h482.26v-128c0-35.346 28.789-64 64.301-64h128.603v-672zM291.284 183.564c5.23-9.182 14.753-14.837 25.085-14.837h203.18c10.288 0 19.855 5.655 25.041 14.837l101.613 179.539c5.273 9.314 5.273 20.843 0 30.157l-101.613 179.539c-5.186 9.182-14.753 14.837-25.041 14.837h-203.18c-10.332 0-19.855-5.655-25.085-14.837l-101.57-179.539c-5.273-9.314-5.273-20.843 0-30.157l101.57-179.539zM333.033 527.802h169.85l84.648-149.62-84.648-149.62h-169.85l-84.645 149.62 84.645 149.62zM417.936 260.34c64.028 0 116.111 53.693 116.111 119.705 0 65.989-52.083 119.685-116.111 119.685-63.987 0-116.064-53.693-116.064-119.685 0-66.011 52.077-119.705 116.064-119.705zM417.936 439.876c32.015 0 58.077-26.824 58.077-59.831s-26.062-59.854-58.077-59.854c-31.972 0-58.034 26.847-58.034 59.854s26.062 59.831 58.034 59.831z" />
<glyph unicode="&#xe946;" glyph-name="timkiem" d="M638.865 153.088c13.693-4.271 27.724-7.519 41.963-9.658-20.902-59.104-76.219-101.811-141.561-101.811h-388.269c-83.269 0-150.998 68.671-150.998 153.060v481.056c0 84.41 67.729 153.067 150.998 153.067h116.217c10.572 73.945 72.946 131.198 148.798 131.198h209.498c83.248 0 150.992-68.657 150.992-153.067v-104.266c-14.156 2.946-28.568 4.825-43.139 5.464v98.802c0 60.262-48.363 109.33-107.852 109.33h-209.498c-52.072 0-95.654-37.607-105.659-87.468h228.954c72.842 0 133.763-52.575 147.878-122.186-14.239-1.753-28.271-4.917-42.254-8.886-10.026 49.776-53.587 87.342-105.576 87.342h-388.276c-59.447 0-107.852-49.075-107.852-109.337v-481.056c0-60.22 48.412-109.337 107.852-109.337h388.276c44.828 0.056 83.331 28.118 99.508 67.752zM851.373 195.703c-124.492-72.858-284.208-29.465-356.061 96.691-71.881 126.113-29.053 288.039 95.357 360.862 124.451 72.816 284.208 29.493 356.089-96.691 71.874-126.134 28.983-288.004-95.384-360.862zM829.807 233.542c103.853 60.732 139.492 195.858 79.54 301.154-59.911 105.318-193.211 141.536-297.098 80.742-103.874-60.795-139.541-195.858-79.588-301.168s193.245-141.501 297.147-80.728zM916.847 211.933l-112.156-65.606 86.286-151.44 112.156 65.606-86.286 151.44zM1014.756 39.908l-112.114-65.599c17.865-31.428 57.469-42.201 88.389-24.008 30.969 18.109 41.673 58.214 23.725 89.607zM416.526 670.362h-287.142v-32.803h287.135v32.803h0.007zM350.485 524.548h-221.101v-32.796h221.101v32.796zM129.384 345.986h221.101v32.803h-221.101v-32.803zM129.384 200.234h287.135v32.796h-287.135v-32.796zM678.974 378.999l-66.989 75.236-32.021-29.366 94.755-106.251 185.116 156.286-27.634 33.589-153.226-129.494z" />
<glyph unicode="&#xe947;" glyph-name="update" horiz-adv-x="1078" d="M1046.954 871.098c21.128-4.547 34.587-25.413 30.067-46.609l-47.987-224.661c-2.175-10.178-8.292-19.076-17.006-24.732-5.446-3.536-11.631-5.625-17.976-6.162-3.809-0.32-7.672-0.085-11.475 0.735l-223.911 48.144c-21.128 4.541-34.587 25.413-30.061 46.612 4.523 21.199 25.319 34.706 46.453 30.162l130.442-28.048c-76.405 132.028-217.526 214.947-372.241 214.947-237.314 0-430.382-193.714-430.382-431.822 0-21.679-17.519-39.257-39.126-39.257-21.61 0-39.126 17.578-39.126 39.257 0 281.404 228.171 510.336 508.633 510.336 182.116 0 348.278-97.237 438.805-252.191l28.433 133.13c4.526 21.199 25.319 34.709 46.456 30.158zM1007.584 501.119c21.591 0.769 39.686-16.274 40.396-37.938 4.485-136.242-44.174-266.081-137.021-365.598s-218.759-156.8-354.544-161.304c-5.647-0.188-11.303-0.28-16.927-0.28-175.104-0.006-336.505 90.19-429.23 236.686l-33.332-124.732c-4.686-17.534-20.496-29.103-37.767-29.103-3.355 0-6.761 0.44-10.157 1.354-20.871 5.618-33.254 27.144-27.657 48.085l59.299 221.928c2.689 10.056 9.246 18.633 18.236 23.833 8.983 5.201 19.666 6.608 29.689 3.916l221.182-59.5c20.871-5.622 33.254-27.147 27.657-48.088-5.597-20.944-27.053-33.365-47.924-27.753l-135.991 36.587c77.995-126.573 216.099-204.693 366.016-204.7 4.77 0 9.534 0.079 14.323 0.236 114.895 3.806 221.435 52.283 299.997 136.487 78.564 84.213 119.737 194.072 115.943 309.354-0.714 21.666 16.22 39.812 37.814 40.528z" />
<glyph unicode="&#xe948;" glyph-name="use3" horiz-adv-x="957" d="M478.759 960c-105.602 0-191.909-89.407-191.909-198.803s86.307-198.803 191.909-198.803c105.602 0 191.909 89.407 191.909 198.803 0 109.391-86.312 198.803-191.909 198.803zM478.759 630.762c-69.553 0-125.907 58.379-125.907 130.43s56.354 130.43 125.907 130.43c69.553 0 125.907-58.379 125.907-130.43s-56.354-130.43-125.907-130.43zM548.312 465.62c225.417 0 408.697-189.864 408.697-423.379v-106.24h-957.009v106.24c0 233.515 183.28 423.379 408.697 423.379h139.615zM891.007 4.373v37.867c0 195.648-153.832 355.006-342.695 355.006h-139.615c-188.863 0-342.695-159.358-342.695-355.006v-37.867h825.005z" />
<glyph unicode="&#xe949;" horiz-adv-x="964" d="M963.765-64v125.239c0 26.26-11.755 51.51-32.71 68.175-114.484 92.92-237.656 154.529-263.21 166.649-3.067 1.515-4.6 4.040-4.6 7.575v176.244c22.488 14.645 37.309 39.895 37.309 68.68v182.809c0 90.9-74.619 164.629-166.614 164.629h-39.865c-91.996 0-166.614-73.73-166.614-164.629v-182.809c0-28.785 14.822-53.53 37.309-68.68v-176.244c0-3.030-1.533-6.060-4.6-7.575-25.043-12.12-148.726-73.73-263.21-166.649-20.443-16.665-32.71-41.915-32.71-68.175v-125.239z" />
<glyph unicode="&#xe94a;" horiz-adv-x="964" d="M918.557-64c24.839 0 45.208 20.175 45.208 44.778v122.034c0 39.366-17.388 76.271-48.188 100.875-95.383 77.747-197.721 133.843-243.922 157.463v128.431c22.852 23.127 36.265 54.128 36.265 87.589v178.13c0 113.176-92.899 204.702-206.663 204.702h-38.749c-114.261 0-206.663-92.017-206.663-204.702v-178.13c0-32.969 13.413-64.461 36.265-87.589v-128.431c-45.704-23.619-148.042-79.716-243.922-157.463-30.801-25.096-48.188-61.509-48.188-100.875v-122.034c0-24.604 20.368-44.778 45.208-44.778s45.208 20.175 45.208 44.778v122.034c0 12.794 5.465 24.111 15.4 31.985 107.803 87.589 224.547 146.145 246.903 156.971 17.884 8.857 29.807 27.064 29.807 47.239v171.733c0 14.762-7.452 29.032-19.871 36.905-9.936 6.889-15.897 17.715-15.897 29.524v178.13c0 63.969 52.163 115.637 116.745 115.637h38.749c64.582 0 116.745-51.667 116.745-115.637v-178.13c0-11.81-5.961-23.127-15.897-29.524-12.42-8.365-19.871-22.143-19.871-36.905v-171.733c0-19.683 11.426-38.382 29.807-47.239 22.355-10.826 139.1-69.382 246.903-156.971 9.439-7.873 15.4-19.683 15.4-31.985v-122.034c-1.49-24.604 18.381-44.778 43.22-44.778z" />
<glyph unicode="&#xe94b;" glyph-name="user-add" horiz-adv-x="1293" d="M488.079 960c-107.658 0-195.645-89.407-195.645-198.803s87.987-198.803 195.645-198.803c107.658 0 195.645 89.407 195.645 198.803 0 109.391-87.992 198.803-195.645 198.803zM488.079 630.762c-70.907 0-128.358 58.379-128.358 130.43s57.451 130.43 128.358 130.43c70.907 0 128.358-58.379 128.358-130.43s-57.451-130.43-128.358-130.43zM558.986 465.62c229.805 0 416.653-189.864 416.653-423.379v-106.24h-975.639v106.24c0 233.515 186.848 423.379 416.653 423.379h142.333zM908.352 4.373v37.867c0 195.648-156.827 355.006-349.366 355.006h-142.333c-192.54 0-349.366-159.358-349.366-355.006v-37.867h841.065zM1104.534 634.747h188.266v-93.658h-188.266v-187.317h-94.133v187.317h-188.266v93.658h188.266v187.317h94.133v-187.317z" />
<glyph unicode="&#xe94c;" d="M1024 448c0-282.77-229.23-512-512-512s-512 229.23-512 512c0 282.77 229.23 512 512 512s512-229.23 512-512z" />
<glyph unicode="&#xe94d;" d="M1024 447.94c0 282.154-229.906 512.060-512.060 512.060s-511.94-229.906-511.94-512.060c0-155.409 70.509-295.215 180.201-389.185 1.33-1.33 2.66-2.66 5.2-3.87 88.77-74.499 202.454-118.884 327.869-118.884 122.755 0 236.439 44.385 325.209 116.224 5.2 1.33 9.191 5.2 11.731 9.191 105.944 95.301 173.791 232.446 173.791 386.525zM47.045 447.94c0 256.030 208.985 465.015 465.015 465.015s465.015-208.985 465.015-465.015c0-125.415-49.585-238.977-130.615-322.669-13.061 61.438-52.246 165.93-172.46 233.777 27.454 33.984 43.055 78.369 43.055 125.415 0 112.354-91.43 203.784-203.784 203.784s-203.784-91.43-203.784-203.784c0-47.045 16.931-90.1 43.055-125.415-121.302-67.847-160.487-172.34-172.219-233.777-82.36 82.36-133.276 197.254-133.276 322.669zM355.321 483.254c0 86.23 70.509 156.739 156.739 156.739s156.739-70.509 156.739-156.739c0-86.23-70.509-156.739-156.739-156.739s-156.739 70.509-156.739 156.739zM222.046 84.877c2.66 37.855 23.462 165.93 164.6 237.769 35.315-27.454 78.369-43.055 125.415-43.055s91.43 16.931 126.745 44.385c139.806-71.839 161.939-197.254 165.93-237.769-79.7-63.978-181.531-103.161-291.224-103.161-111.142-0.12-211.766 37.734-291.465 101.831z" />
<glyph unicode="&#xe94e;" d="M971.2 166.4c-15.576 0-29.427-6.353-39.090-16.291h-13.71v97.745h-140.8v12.691c10.736 8.944 17.6 21.765 17.6 36.182 0 26.994-23.637 48.873-52.8 48.873s-52.8-21.879-52.8-48.873c0-14.417 6.864-27.238 17.6-36.182v-12.691h-140.8v-97.745h-13.71c-9.662 9.937-23.514 16.291-39.090 16.291-29.163 0-52.8-21.879-52.8-48.873s23.637-48.873 52.8-48.873c15.576 0 29.427 6.353 39.090 16.291h13.71v-97.745h352v97.745h13.71c9.662-9.937 23.514-16.291 39.090-16.291 29.163 0 52.8 21.879 52.8 48.873s-23.637 48.873-52.8 48.873z" />
<glyph unicode="&#xe94f;" d="M318.676 547.097h-13.066c-9.208-10.075-22.408-16.516-37.252-16.516-27.792 0-50.317 22.181-50.317 49.548s22.525 49.548 50.317 49.548c14.844 0 28.043-6.441 37.252-16.516h13.066v99.097h134.179v12.866c-10.231 9.067-16.772 22.066-16.772 36.682 0 27.367 22.525 49.548 50.317 49.548s50.317-22.181 50.317-49.548c0-14.617-6.541-27.615-16.772-36.682v-12.866h134.179v-99.097h13.066c9.208 10.075 22.408 16.516 37.252 16.516 27.792 0 50.317-22.181 50.317-49.548s-22.525-49.548-50.317-49.548c-14.844 0-28.043 6.441-37.252 16.516h-13.066v-99.097h318.676v512h-972.8v-512h318.676v99.097z" />
<glyph unicode="&#xe950;" d="M955.733 157.867c-12.049 0-23.825-3.277-34.133-9.301v77.568c0 9.438-7.646 17.067-17.067 17.067h-111.701c6.025 10.308 9.301 22.084 9.301 34.133 0 37.649-30.618 68.267-68.267 68.267s-68.267-30.618-68.267-68.267c0-12.049 3.277-23.825 9.301-34.133h-111.701c-9.421 0-17.067-7.629-17.067-17.067v-77.568c-10.308 6.025-22.084 9.301-34.133 9.301-37.649 0-68.267-30.618-68.267-68.267s30.618-68.267 68.267-68.267c12.049 0 23.825 3.277 34.133 9.301v-77.568c0-9.438 7.646-17.067 17.067-17.067h341.333c9.421 0 17.067 7.629 17.067 17.067v77.568c10.308-6.025 22.084-9.301 34.133-9.301 37.649 0 68.267 30.618 68.267 68.267s-30.618 68.267-68.267 68.267zM955.733 55.467c-9.626 0-18.603 4.045-25.242 11.435-3.226 3.584-7.834 5.632-12.681 5.632h-13.278c-9.421 0-17.067-7.629-17.067-17.067v-85.333h-307.2v85.333c0 9.438-7.646 17.067-17.067 17.067h-13.278c-4.83 0-9.438-2.048-12.681-5.632-6.639-7.39-15.616-11.435-25.242-11.435-18.825 0-34.133 15.309-34.133 34.133s15.309 34.133 34.133 34.133c9.626 0 18.603-4.045 25.242-11.435 3.226-3.584 7.834-5.632 12.681-5.632h13.278c9.421 0 17.067 7.629 17.067 17.067v85.333h119.467c9.421 0 17.067 7.629 17.067 17.067v13.278c0 4.83-2.048 9.438-5.632 12.663-7.373 6.656-11.435 15.633-11.435 25.259 0 18.825 15.309 34.133 34.133 34.133s34.133-15.309 34.133-34.133c0-9.626-4.062-18.603-11.435-25.242-3.584-3.243-5.632-7.834-5.632-12.681v-13.278c0-9.438 7.646-17.067 17.067-17.067h119.467v-85.333c0-9.438 7.646-17.067 17.067-17.067h13.278c4.83 0 9.438 2.048 12.681 5.632 6.639 7.39 15.616 11.435 25.242 11.435 18.825 0 34.133-15.309 34.133-34.133s-15.309-34.133-34.133-34.133z" />
<glyph unicode="&#xe951;" d="M17.067 396.8h324.267c9.421 0 17.067 7.629 17.067 17.067v102.4c0 9.438-7.646 17.067-17.067 17.067h-13.278c-4.83 0-9.438-2.048-12.681-5.632-6.639-7.39-15.616-11.435-25.242-11.435-18.825 0-34.133 15.309-34.133 34.133s15.309 34.133 34.133 34.133c9.626 0 18.603-4.045 25.242-11.435 3.226-3.584 7.834-5.632 12.681-5.632h13.278c9.421 0 17.067 7.629 17.067 17.067v85.333h119.467c9.421 0 17.067 7.629 17.067 17.067v13.278c0 4.83-2.048 9.438-5.632 12.663-7.373 6.656-11.435 15.633-11.435 25.259 0 18.825 15.309 34.133 34.133 34.133s34.133-15.309 34.133-34.133c0-9.626-4.062-18.603-11.435-25.242-3.584-3.243-5.632-7.834-5.632-12.681v-13.278c0-9.438 7.646-17.067 17.067-17.067h119.467v-85.333c0-9.438 7.646-17.067 17.067-17.067h13.278c4.83 0 9.438 2.048 12.681 5.632 6.639 7.39 15.616 11.435 25.242 11.435 18.825 0 34.133-15.309 34.133-34.133s-15.309-34.133-34.133-34.133c-9.626 0-18.603 4.045-25.242 11.435-3.226 3.584-7.834 5.632-12.681 5.632h-13.278c-9.421 0-17.067-7.629-17.067-17.067v-102.4c0-9.438 7.646-17.067 17.067-17.067h324.267c9.421 0 17.067 7.629 17.067 17.067v529.067c0 9.438-7.646 17.067-17.067 17.067h-989.867c-9.421 0-17.067-7.629-17.067-17.067v-529.067c0-9.438 7.646-17.067 17.067-17.067zM34.133 925.867h955.733v-494.933h-290.133v60.501c10.308-6.025 22.084-9.301 34.133-9.301 37.649 0 68.267 30.618 68.267 68.267s-30.618 68.267-68.267 68.267c-12.049 0-23.825-3.277-34.133-9.301v77.568c0 9.438-7.646 17.067-17.067 17.067h-111.701c6.025 10.308 9.301 22.084 9.301 34.133 0 37.649-30.618 68.267-68.267 68.267s-68.267-30.618-68.267-68.267c0-12.049 3.277-23.825 9.301-34.133h-111.701c-9.421 0-17.067-7.629-17.067-17.067v-77.568c-10.308 6.025-22.084 9.301-34.133 9.301-37.649 0-68.267-30.618-68.267-68.267s30.618-68.267 68.267-68.267c12.049 0 23.825 3.277 34.133 9.301v-60.501h-290.133v494.933z" />
<glyph unicode="&#xe952;" d="M512 560.401l39.134-39.134 24.132 24.132-68.267 68.267c-6.673 6.673-17.459 6.673-24.132 0l-68.267-68.267 24.132-24.132 39.134 39.134v-163.601h34.133v163.601z" />
<glyph unicode="&#xe953;" d="M477.867 362.667h51.2v-51.2h-51.2v51.2z" />
<glyph unicode="&#xe954;" d="M477.867 294.4h51.2v-51.2h-51.2v51.2z" />
<glyph unicode="&#xe955;" d="M477.867 226.133h51.2v-51.2h-51.2v51.2z" />
<glyph unicode="&#xe956;" d="M102.4 362.667h51.2v-51.2h-51.2v51.2z" />
<glyph unicode="&#xe957;" d="M102.4 294.4h51.2v-51.2h-51.2v51.2z" />
<glyph unicode="&#xe958;" d="M102.4 226.133h51.2v-51.2h-51.2v51.2z" />
<glyph unicode="&#xe959;" d="M102.4 157.867h51.2v-51.2h-51.2v51.2z" />
<glyph unicode="&#xe95a;" d="M102.4 89.6h51.2v-51.2h-51.2v51.2z" />
<glyph unicode="&#xe95b;" d="M170.667 89.6h51.2v-51.2h-51.2v51.2z" />
<glyph unicode="&#xe95c;" d="M238.933 89.6h51.2v-51.2h-51.2v51.2z" />
<glyph unicode="&#xe95d;" d="M307.2 89.6h51.2v-51.2h-51.2v51.2z" />
<glyph unicode="&#xe95e;" d="M375.467 89.6h51.2v-51.2h-51.2v51.2z" />
<glyph unicode="&#xe95f;" glyph-name="vattuthaythe" d="M302 275.64v344.718c75.278 30.816 122 78.62 122 159.642 0 90.486-57.938 137.378-141.952 167.244-9.184 3.268-19.382 1.864-27.348-3.756-7.964-5.622-12.7-14.762-12.7-24.51v-94.906c-18.152-11.86-41.848-11.862-60 0v94.904c0 9.748-4.736 18.888-12.7 24.51-7.966 5.624-18.164 7.022-27.348 3.756-83.95-29.84-141.952-76.594-141.952-167.242 0-81.028 46.73-128.83 122-159.642v-344.718c-75.276-30.812-122-78.618-122-159.64 0-90.486 57.938-137.378 141.952-167.244 19.516-6.944 40.048 7.572 40.048 28.266v94.908c18.154 11.862 41.848 11.864 60 0v-94.906c0-20.796 20.632-35.17 40.048-28.266 83.95 29.842 141.952 76.594 141.952 167.242 0 81.010-46.71 128.822-122 159.64zM302 22.326v63.674c0 7.956-3.162 15.586-8.788 21.212-22.392 22.394-51.798 33.586-81.212 33.586-29.408 0-58.826-11.198-81.212-33.584-5.626-5.628-8.788-13.256-8.788-21.214v-63.674c-44.022 22.912-62 51.22-62 93.674 0 53.564 28.612 84.604 102.048 110.71 11.96 4.252 19.952 15.572 19.952 28.266v386.046c0 12.694-7.99 24.016-19.952 28.268-73.436 26.106-102.048 57.146-102.048 110.71 0 42.456 17.978 70.762 62 93.674v-63.674c0-7.958 3.162-15.586 8.788-21.214 44.782-44.78 117.646-44.78 162.426 0 5.624 5.628 8.786 13.258 8.786 21.214v63.674c44.022-22.914 62-51.22 62-93.674 0-53.564-28.612-84.604-102.048-110.71-11.96-4.252-19.952-15.572-19.952-28.266v-386.046c0-12.694 7.99-24.014 19.952-28.266 73.436-26.108 102.048-57.148 102.048-110.712 0-42.454-17.978-70.762-62-93.674zM874 600c-82.926 0-150-69.070-150-152 0-82.926 67.070-152 150-152 82.926 0 150 69.070 150 152 0 82.926-67.070 152-150 152zM874 356c-48.786 0-90 42.13-90 92s41.214 92 90 92c48.786 0 90-42.13 90-92s-41.214-92-90-92zM514 600c-82.926 0-150-69.070-150-152 0-82.926 67.070-152 150-152 82.926 0 150 69.070 150 152 0 82.926-67.070 152-150 152zM514 356c-48.786 0-90 42.13-90 92s41.214 92 90 92c48.786 0 90-42.13 90-92s-41.214-92-90-92zM565.2 448c0-28.277-22.923-51.2-51.2-51.2s-51.2 22.923-51.2 51.2c0 28.277 22.923 51.2 51.2 51.2s51.2-22.923 51.2-51.2zM925.2 448c0-28.277-22.923-51.2-51.2-51.2s-51.2 22.923-51.2 51.2c0 28.277 22.923 51.2 51.2 51.2s51.2-22.923 51.2-51.2zM874 900c-23.456 0-188.076 0-210 0v30c0 16.568-13.432 30-30 30h-120c-16.568 0-30-13.432-30-30v-240c0-16.568 13.432-30 30-30h120c16.568 0 30 13.432 30 30v30h210c49.626 0 90 40.374 90 90s-40.374 90-90 90zM604 720h-60v180h60c0-18.218 0-150.662 0-180zM664 780v60h47.574l60-60h-107.574zM874 780h-17.574l-60 60h77.574c16.542 0 30-13.458 30-30s-13.458-30-30-30zM934 236h-120c-16.568 0-30-13.432-30-30v-30c-21.918 0-186.544 0-210 0-49.626 0-90-40.374-90-90s40.374-90 90-90h210v-30c0-16.568 13.432-30 30-30h120c16.568 0 30 13.432 30 30v240c0 16.568-13.432 30-30 30zM591.574 56h-17.574c-16.542 0-30 13.458-30 30s13.458 30 30 30h77.574l-60-60zM784 56h-107.574l60 60h47.574v-60zM904-4h-60c0 29.6 0 161.75 0 180h60v-180z" />
<glyph unicode="&#xe960;" glyph-name="votes" horiz-adv-x="900" d="M835.918 960h-771.617c-35.51 0-64.301-28.626-64.301-64v-896c0-35.376 28.791-64 64.301-64h578.713l257.206 256v704c0 35.374-28.759 64-64.301 64zM643.014 26.5v165.5h166.279l-166.279-165.5zM835.918 256h-192.904c-35.543 0-64.301-28.624-64.301-64v-192h-514.411v896h771.617v-640zM128.603 736c0 17.688 14.379 32 32.151 32h578.713c17.771 0 32.151-14.312 32.151-32s-14.379-32-32.151-32h-578.713c-17.771 0-32.151 14.312-32.151 32zM128.603 544c0 17.688 14.379 32 32.151 32h578.713c17.771 0 32.151-14.312 32.151-32s-14.379-32-32.151-32h-578.713c-17.771 0-32.151 14.312-32.151 32zM128.603 352c0 17.688 14.379 32 32.151 32h578.713c17.771 0 32.151-14.312 32.151-32s-14.379-32-32.151-32h-578.713c-17.771 0-32.151 14.312-32.151 32z" />
<glyph unicode="&#xe961;" horiz-adv-x="1078" d="M1055.499 176.444l-380.769 705.633c-61.177 103.828-210.307 103.966-271.566 0l-380.75-705.633c-62.539-106.095 13.177-240.444 135.752-240.444h761.55c122.472 0 198.322 134.241 135.783 240.444z" />
<glyph unicode="&#xe962;" horiz-adv-x="1078" d="M511.915 618.667h96.106v-306.649h-96.106v306.649zM559.971 250.684c35.33 0 64.073-28.823 64.073-64.251s-28.746-64.251-64.073-64.251c-35.33 0-64.073 28.823-64.073 64.251s28.743 64.251 64.073 64.251z" />
</font>
</defs>
</svg>
